<?xml version="1.0" encoding="utf-8"?>
<!-- Generator: Adobe Illustrator 16.0.0, SVG Export Plug-In . SVG Version: 6.00 Build 0)  -->
<!DOCTYPE svg PUBLIC "-//W3C//DTD SVG 1.1//EN" "http://www.w3.org/Graphics/SVG/1.1/DTD/svg11.dtd">
<svg version="1.1" id="图层_1" xmlns="http://www.w3.org/2000/svg" xmlns:xlink="http://www.w3.org/1999/xlink" x="0px" y="0px"
	 width="566.929px" height="566.929px" viewBox="0 0 566.929 566.929" enable-background="new 0 0 566.929 566.929"
	 xml:space="preserve">
<path fill-rule="evenodd" clip-rule="evenodd" fill="#EA5514" d="M206.363,4.73h153.15c111.603,0,202.915,91.313,202.915,202.914
	v153.163c0,111.601-91.313,202.914-202.915,202.914h-153.15C94.76,563.722,3.45,472.408,3.45,360.808V207.645
	C3.45,96.044,94.76,4.73,206.363,4.73z"/>
<g>
	<linearGradient id="SVGID_1_" gradientUnits="userSpaceOnUse" x1="450.501" y1="295.9248" x2="234.6644" y2="42.6545">
		<stop  offset="0" style="stop-color:#C30D23"/>
		<stop  offset="1" style="stop-color:#EA5514"/>
	</linearGradient>
	<path fill="url(#SVGID_1_)" d="M359.514,4.73H249.161l-82.633,118.962c0,0-16.798,26.611-20.124,73.557
		c-3.331,46.947,32.521,85.144,79.909,85.144c30.98,0,59.273-16.379,76.12-40.801c13.405,24.422,32.447,43.653,62.06,34.529
		c40.9-12.603,65.99-29.063,65.99-29.063L524.03,89.311C487.091,38.187,427.043,4.73,359.514,4.73z M292.869,197.249
		c-2.344,33.063-31.399,59.954-64.767,59.954c-33.369,0-58.6-26.892-56.258-59.954c2.348-33.057,31.393-59.951,64.759-59.951
		C269.972,137.298,295.217,164.192,292.869,197.249z M439.353,197.249c-2.345,33.063-31.399,59.954-64.772,59.954
		c-33.368,0-58.618-26.892-56.279-59.954c2.345-33.057,31.415-59.951,64.786-59.951C416.457,137.298,441.7,164.192,439.353,197.249z
		"/>
	<linearGradient id="SVGID_2_" gradientUnits="userSpaceOnUse" x1="254.9414" y1="223.751" x2="217.5838" y2="179.9142">
		<stop  offset="0" style="stop-color:#C30D23"/>
		<stop  offset="1" style="stop-color:#EA5514"/>
	</linearGradient>
	<path fill="url(#SVGID_2_)" d="M234.261,170.273c-15.006,0-28.079,12.098-29.13,26.976c-1.058,14.872,10.305,26.971,25.31,26.971
		c15.007,0,28.088-12.099,29.143-26.971C260.637,182.371,249.274,170.273,234.261,170.273z M231.63,207.428
		c-5.67,0-9.946-4.569-9.555-10.179c0.409-5.624,5.33-10.184,11-10.184c5.671,0,9.95,4.56,9.552,10.184
		C242.226,202.858,237.304,207.428,231.63,207.428z"/>
	<linearGradient id="SVGID_3_" gradientUnits="userSpaceOnUse" x1="401.4287" y1="223.7588" x2="364.0634" y2="179.913">
		<stop  offset="0" style="stop-color:#C30D23"/>
		<stop  offset="1" style="stop-color:#EA5514"/>
	</linearGradient>
	<path fill="url(#SVGID_3_)" d="M380.743,170.273c-15.01,0-28.086,12.098-29.147,26.976c-1.048,14.872,10.305,26.971,25.32,26.971
		c15.03,0,28.103-12.099,29.156-26.971C407.13,182.371,395.768,170.273,380.743,170.273z M378.109,207.428
		c-5.671,0-9.953-4.569-9.552-10.179c0.401-5.624,5.331-10.184,10.991-10.184c5.679,0,9.962,4.56,9.553,10.184
		C388.709,202.858,383.778,207.428,378.109,207.428z"/>
	<linearGradient id="SVGID_4_" gradientUnits="userSpaceOnUse" x1="449.8467" y1="514.3359" x2="232.7498" y2="259.5868">
		<stop  offset="0" style="stop-color:#C30D23"/>
		<stop  offset="1" style="stop-color:#EA5514"/>
	</linearGradient>
	<path fill="url(#SVGID_4_)" d="M479.009,319.256h-37.01c-1.85,0-3.695,0.389-5.437,1.175l-30.8,13.705l1.673-23.448
		c0.485-6.958-4.806-12.598-11.822-12.598H162.33c-7.024,0-13.116,5.64-13.601,12.598l-3.005,42.314
		c-0.492,6.961,4.789,12.606,11.817,12.606h26.226l-4.384,61.934c-0.499,6.952,4.794,12.602,11.822,12.602h194.331
		c7.021,0,13.114-5.649,13.619-12.602l1.201-17.051l28.839,13.71c1.635,0.768,3.437,1.168,5.283,1.168h37.007
		c7.027,0,13.121-5.639,13.613-12.602l5.737-80.922C491.33,324.895,486.038,319.256,479.009,319.256z M379.931,339.726h-25.599
		c-4.679,0-8.743,3.765-9.065,8.397c-0.341,4.646,3.201,8.408,7.871,8.408h25.605l-4.144,58.423H205.698l4.146-58.423H314.47
		c4.666,0,8.73-3.762,9.066-8.408c0.332-4.633-3.206-8.397-7.881-8.397h-143.56l1.164-16.441H381.1L379.931,339.726z
		 M460.549,400.185h-17.747l2.194-30.959c0.331-4.645-3.194-8.407-7.882-8.407c-4.68,0-8.749,3.763-9.07,8.407l-1.769,24.873
		l-18.772-8.92l1.82-25.729l33.695-15.002H464.5L460.549,400.185z"/>
</g>
<g id="Page-1-Copy-3_1_" transform="translate(521.000000, 258.000000)">
	<path id="Fill-1_2_" fill="#FFFFFF" d="M-311.331-70.935c5.673,0,10.282,4.56,10.282,10.184c0,5.609-4.609,10.179-10.282,10.179
		c-5.662,0-10.271-4.569-10.271-10.179C-321.602-66.375-316.993-70.935-311.331-70.935L-311.331-70.935z M-311.331-33.78
		c15.014,0,27.227-12.099,27.227-26.971c0-14.878-12.213-26.976-27.227-26.976c-15.008,0-27.224,12.098-27.224,26.976
		C-338.555-45.879-326.339-33.78-311.331-33.78L-311.331-33.78z M-68.739,142.185h-17.746v-30.959c0-4.645-3.797-8.407-8.476-8.407
		c-4.684,0-8.482,3.763-8.482,8.407v24.873l-19.401-8.92V101.45l32.624-15.002h21.481V142.185z M-153.646,81.726h-25.601
		c-4.668,0-8.475,3.765-8.475,8.397c0,4.646,3.807,8.408,8.475,8.408h25.601v58.423H-322.54V98.531h104.621
		c4.671,0,8.477-3.762,8.477-8.408c0-4.633-3.806-8.397-8.477-8.397H-361.48V65.284h207.834V81.726z M-56.021,61.256h-37.007
		c-1.845,0-3.675,0.389-5.353,1.175l-29.825,13.705V52.688c0-6.958-5.693-12.598-12.71-12.598h-233.283
		c-7.022,0-12.717,5.64-12.717,12.598v42.314c0,6.961,5.694,12.606,12.717,12.606h26.231v61.934c0,6.952,5.69,12.602,12.717,12.602
		h194.335c7.017,0,12.718-5.649,12.718-12.602v-17.051l29.817,13.71c1.678,0.768,3.51,1.168,5.362,1.168h37.001
		c7.029,0,12.722-5.639,12.722-12.602V73.846C-43.296,66.895-48.988,61.256-56.021,61.256L-56.021,61.256z M-311.331-120.702
		c33.376,0,60.52,26.895,60.52,59.951c0,33.063-27.144,59.954-60.52,59.954c-33.365,0-60.508-26.892-60.508-59.954
		C-371.839-93.808-344.696-120.702-311.331-120.702L-311.331-120.702z M-164.856-120.702c33.376,0,60.528,26.895,60.528,59.951
		c0,33.063-27.152,59.954-60.528,59.954c-33.355,0-60.523-26.892-60.523-59.954C-225.38-93.808-198.212-120.702-164.856-120.702
		L-164.856-120.702z M-311.331,24.393c30.989,0,58.119-16.379,73.23-40.801c15.129,24.422,42.258,40.801,73.244,40.801
		c47.403,0,85.957-38.196,85.957-85.144c0-46.945-38.554-85.146-85.957-85.146c-30.986,0-58.115,16.373-73.244,40.799
		c-15.131-24.426-42.241-40.799-73.23-40.799c-47.393,0-85.945,38.2-85.945,85.146C-397.276-13.804-358.724,24.393-311.331,24.393
		L-311.331,24.393z M-164.856-70.935c5.674,0,10.274,4.56,10.274,10.184c0,5.609-4.601,10.179-10.274,10.179
		c-5.662,0-10.271-4.569-10.271-10.179C-175.127-66.375-170.519-70.935-164.856-70.935L-164.856-70.935z M-164.856-33.78
		c15.026,0,27.244-12.099,27.244-26.971c0-14.878-12.218-26.976-27.244-26.976c-15.008,0-27.224,12.098-27.224,26.976
		C-192.08-45.879-179.864-33.78-164.856-33.78L-164.856-33.78z"/>
</g>
<g>
	<linearGradient id="SVGID_5_" gradientUnits="userSpaceOnUse" x1="282.9375" y1="369.1172" x2="477.7041" y2="369.1172">
		<stop  offset="0" style="stop-color:#C9CACA"/>
		<stop  offset="1" style="stop-color:#F7F8F8"/>
	</linearGradient>
	<path fill="url(#SVGID_5_)" d="M464.979,319.256h-37.007c-1.845,0-3.675,0.389-5.353,1.175l-29.817,13.705v-23.448
		c0-6.958-5.701-12.598-12.718-12.598h-97.146v25.194h84.416v16.441h-25.595c-4.674,0-8.48,3.765-8.48,8.397
		c0,4.646,3.807,8.408,8.48,8.408h25.595v58.423h-84.416v25.189h97.146c7.017,0,12.718-5.649,12.718-12.602v-17.051l29.817,13.71
		c1.678,0.768,3.51,1.168,5.362,1.168h37.001c7.029,0,12.722-5.639,12.722-12.602v-80.922
		C477.704,324.895,472.012,319.256,464.979,319.256z M452.261,400.185h-17.746v-30.959c0-4.645-3.797-8.407-8.476-8.407
		c-4.684,0-8.482,3.763-8.482,8.407v24.873l-19.401-8.92V359.45l32.624-15.002h21.481V400.185z"/>
	<linearGradient id="SVGID_6_" gradientUnits="userSpaceOnUse" x1="328.9199" y1="197.2461" x2="383.3877" y2="197.2461">
		<stop  offset="0" style="stop-color:#C9CACA"/>
		<stop  offset="1" style="stop-color:#F7F8F8"/>
	</linearGradient>
	<path fill="url(#SVGID_6_)" d="M383.388,197.249c0-14.878-12.218-26.976-27.24-26.976c-15.012,0-27.228,12.098-27.228,26.976
		c0,14.872,12.216,26.971,27.228,26.971C371.17,224.22,383.388,212.121,383.388,197.249z M345.873,197.249
		c0-5.624,4.608-10.184,10.274-10.184c5.67,0,10.278,4.56,10.278,10.184c0,5.609-4.608,10.179-10.278,10.179
		C350.481,207.428,345.873,202.858,345.873,197.249z"/>
	<linearGradient id="SVGID_7_" gradientUnits="userSpaceOnUse" x1="282.9375" y1="197.248" x2="442.1006" y2="197.248">
		<stop  offset="0" style="stop-color:#C9CACA"/>
		<stop  offset="1" style="stop-color:#F7F8F8"/>
	</linearGradient>
	<path fill="url(#SVGID_7_)" d="M442.101,197.249c0-46.945-38.554-85.146-85.957-85.146c-30.959,0-58.067,16.35-73.206,40.746
		v88.799c15.139,24.391,42.247,40.744,73.206,40.744C403.547,282.393,442.101,244.196,442.101,197.249z M295.62,197.249
		c0-33.057,27.168-59.951,60.527-59.951c33.372,0,60.524,26.895,60.524,59.951c0,33.063-27.152,59.954-60.524,59.954
		C322.788,257.203,295.62,230.312,295.62,197.249z"/>
	<linearGradient id="SVGID_8_" gradientUnits="userSpaceOnUse" x1="282.9375" y1="348.1289" x2="311.5576" y2="348.1289">
		<stop  offset="0" style="stop-color:#C9CACA"/>
		<stop  offset="1" style="stop-color:#F7F8F8"/>
	</linearGradient>
	<path fill="url(#SVGID_8_)" d="M311.558,348.123c0-4.633-3.799-8.397-8.477-8.397h-20.144v16.806h20.144
		C307.759,356.531,311.558,352.77,311.558,348.123z"/>
</g>
</svg>
