<?xml version="1.0" encoding="utf-8"?>
<!-- Generator: Adobe Illustrator 16.0.0, SVG Export Plug-In . SVG Version: 6.00 Build 0)  -->
<!DOCTYPE svg PUBLIC "-//W3C//DTD SVG 1.1//EN" "http://www.w3.org/Graphics/SVG/1.1/DTD/svg11.dtd">
<svg version="1.1" id="图层_1" xmlns="http://www.w3.org/2000/svg" xmlns:xlink="http://www.w3.org/1999/xlink" x="0px" y="0px"
	 width="566.93px" height="566.929px" viewBox="0 0 566.93 566.929" enable-background="new 0 0 566.93 566.929"
	 xml:space="preserve">
<path fill-rule="evenodd" clip-rule="evenodd" fill="#F39800" d="M207.73,4.687h153.154c111.603,0,202.914,91.311,202.914,202.915
	v153.16c0,111.603-91.312,202.917-202.914,202.917H207.73c-111.604,0-202.914-91.314-202.914-202.917v-153.16
	C4.816,95.998,96.126,4.687,207.73,4.687z"/>
<g>
	<linearGradient id="SVGID_1_" gradientUnits="userSpaceOnUse" x1="83.0791" y1="179.4009" x2="396.5468" y2="465.2672">
		<stop  offset="0" style="stop-color:#F39800"/>
		<stop  offset="1" style="stop-color:#EA5514"/>
	</linearGradient>
	<path fill="url(#SVGID_1_)" d="M290.732,274.55c-8.303-3.075-18.389,1.534-22.529,10.279l-64.156,84.568
		c-4.141,8.751-0.784,18.319,7.503,21.387c8.321,3.075,18.397-1.535,22.541-10.287l64.158-84.556
		C302.385,287.189,299.028,277.618,290.732,274.55z"/>
	<linearGradient id="SVGID_2_" gradientUnits="userSpaceOnUse" x1="139.8818" y1="117.043" x2="453.4186" y2="402.9724">
		<stop  offset="0" style="stop-color:#F39800"/>
		<stop  offset="1" style="stop-color:#EA5514"/>
	</linearGradient>
	<path fill="url(#SVGID_2_)" d="M313.479,259.479L296.18,396.624c-1.173,9.267,5.33,16.776,14.532,16.776
		c9.21,0,17.619-7.509,18.792-16.776l17.299-137.145h62.351c9.211,0,17.62-7.512,18.794-16.781
		c1.173-9.278-5.344-16.782-14.556-16.782h-62.354l5.904-46.723c1.162-9.268-5.351-16.776-14.552-16.776
		c-9.205,0-17.609,7.508-18.773,16.776l-5.898,46.723H213.833c-9.2,0-17.61,7.504-18.78,16.782
		c-1.173,9.269,5.347,16.781,14.541,16.781H313.479z"/>
	<linearGradient id="SVGID_3_" gradientUnits="userSpaceOnUse" x1="165.4063" y1="89.042" x2="478.9503" y2="374.9779">
		<stop  offset="0" style="stop-color:#F39800"/>
		<stop  offset="1" style="stop-color:#EA5514"/>
	</linearGradient>
	<path fill="url(#SVGID_3_)" d="M421.924,409.863l141.875-195.779v-6.483c0-111.604-91.312-202.915-202.914-202.915h-54.6
		L199.752,117.671c0,0-71.393,116.544-77.694,166.511c-6.308,49.964,7.104,96.943,37.713,132.272
		c31.615,36.471,76.87,54.702,124.436,54.702C331.766,471.157,421.924,409.863,421.924,409.863z M186.332,392.729
		c-25.122-28.997-36.127-67.54-30.949-108.544c5.168-41.003,25.896-79.548,58.341-108.544
		c33.495-29.923,74.396-44.884,113.435-44.884c39.025,0,76.17,14.961,102.115,44.884c51.87,59.858,39.58,157.236-27.395,217.088
		C334.895,452.56,238.205,452.576,186.332,392.729z"/>
</g>
<path id="Fill-1_3_" fill="#FFFFFF" d="M392.137,392.729c-59.432,59.831-156.123,59.848-215.557,0
	c-28.771-28.997-44.649-67.54-44.649-108.544c0-41.003,15.869-79.548,44.649-108.544c29.719-29.923,68.746-44.884,107.783-44.884
	c39.024,0,78.053,14.961,107.773,44.884C451.557,235.499,451.557,332.876,392.137,392.729 M415.692,151.912
	c-72.427-72.948-190.269-72.929-262.666,0c-35.082,35.332-54.414,82.304-54.414,132.271c0,49.964,19.332,96.943,54.414,132.272
	c36.208,36.471,83.769,54.702,131.337,54.702c47.559,0,95.125-18.231,131.329-54.702C488.11,343.523,488.11,224.846,415.692,151.912
	 M266.074,274.55c-8.688-3.075-18.195,1.534-21.24,10.279l-53.469,84.568c-3.045,8.751,1.522,18.319,10.201,21.387
	c8.698,3.075,18.195-1.535,21.239-10.287l53.486-84.556C279.332,287.189,274.762,277.618,266.074,274.55 M382.6,225.916h-62.356
	v-46.723c0-9.268-7.455-16.776-16.663-16.776c-9.203,0-16.66,7.508-16.66,16.776v46.723H183.043
	c-9.205,0-16.663,7.504-16.663,16.782c0,9.269,7.458,16.781,16.663,16.781H286.92v137.145c0,9.267,7.457,16.776,16.66,16.776
	c9.208,0,16.663-7.509,16.663-16.776V259.479H382.6c9.205,0,16.671-7.512,16.671-16.781
	C399.271,233.419,391.805,225.916,382.6,225.916"/>
<g>
	<linearGradient id="SVGID_4_" gradientUnits="userSpaceOnUse" x1="283.3779" y1="284.2041" x2="470.0059" y2="284.2041">
		<stop  offset="0" style="stop-color:#C9CACA"/>
		<stop  offset="1" style="stop-color:#F7F8F8"/>
	</linearGradient>
	<path fill-rule="evenodd" clip-rule="evenodd" fill="url(#SVGID_4_)" d="M283.378,97.253v33.549c0.325,0,0.653-0.046,0.985-0.046
		c39.024,0,78.053,14.961,107.773,44.884c59.42,59.858,59.42,157.236,0,217.088c-29.973,30.17-69.405,45.083-108.759,44.835v33.549
		c0.325,0,0.653,0.045,0.985,0.045c47.559,0,95.125-18.231,131.329-54.702c72.418-72.932,72.418-191.609,0-264.543
		C379.236,115.186,331.256,97,283.378,97.253z"/>
	<linearGradient id="SVGID_5_" gradientUnits="userSpaceOnUse" x1="283.3779" y1="287.9082" x2="399.2705" y2="287.9082">
		<stop  offset="0" style="stop-color:#C9CACA"/>
		<stop  offset="1" style="stop-color:#F7F8F8"/>
	</linearGradient>
	<path fill-rule="evenodd" clip-rule="evenodd" fill="url(#SVGID_5_)" d="M303.58,162.416c-9.203,0-16.66,7.508-16.66,16.776v46.723
		h-3.542v33.563h3.542v137.145c0,9.267,7.457,16.776,16.66,16.776c9.208,0,16.663-7.509,16.663-16.776V259.479H382.6
		c9.205,0,16.671-7.512,16.671-16.781c0-9.278-7.466-16.782-16.671-16.782h-62.356v-46.723
		C320.243,169.924,312.788,162.416,303.58,162.416z"/>
</g>
</svg>
