<?xml version="1.0" standalone="no"?><!DOCTYPE svg PUBLIC "-//W3C//DTD SVG 1.1//EN" "http://www.w3.org/Graphics/SVG/1.1/DTD/svg11.dtd"><svg t="1504079493835" class="icon" style="" viewBox="0 0 1024 1024" version="1.1" xmlns="http://www.w3.org/2000/svg" p-id="9246" xmlns:xlink="http://www.w3.org/1999/xlink" width="32" height="32"><defs><style type="text/css"></style></defs><path d="M512.009557 1.706667C790.196224 0 1020.596224 228.693333 1024.009557 508.586667c3.413333 281.6-223.573333 510.293333-508.586666 513.706666C232.116224 1025.706667 1.716224 800.426667 0.009557 520.533333-1.697109 232.106667 223.582891 3.413333 512.009557 1.706667z m1.706667 44.373333c-256 0-467.626667 208.213333-469.333333 462.506667-3.413333 257.706667 208.213333 471.04 465.92 471.04 256 0 469.333333-209.92 469.333333-462.506667 0-259.413333-208.213333-469.333333-465.92-471.04z" fill="#B5B5B5" p-id="9247"></path><path d="M815.796224 354.986667c-6.826667 8.533333-15.36 22.186667-27.306667 34.133333C684.382891 493.226667 580.276224 595.626667 477.876224 699.733333c-30.72 30.72-51.2 30.72-81.92-1.706666-54.613333-58.026667-112.64-114.346667-168.96-172.373334-10.24-11.946667-29.013333-25.6-13.653333-40.96 18.773333-20.48 32.426667 1.706667 46.08 13.653334 47.786667 46.08 95.573333 92.16 139.946666 139.946666 29.013333 32.426667 51.2 29.013333 80.213334-1.706666 93.866667-95.573333 187.733333-191.146667 283.306666-285.013334 11.946667-11.946667 20.48-27.306667 40.96-22.186666 8.533333 3.413333 13.653333 10.24 11.946667 25.6z" fill="#B5B5B5" p-id="9248"></path></svg>