<?xml version="1.0" standalone="no"?><!DOCTYPE svg PUBLIC "-//W3C//DTD SVG 1.1//EN" "http://www.w3.org/Graphics/SVG/1.1/DTD/svg11.dtd"><svg class="icon" style="" viewBox="0 0 1024 1024" version="1.1" xmlns="http://www.w3.org/2000/svg" p-id="14951" xmlns:xlink="http://www.w3.org/1999/xlink" width="20" height="20"><defs><style type="text/css"><![CDATA[

]]></style></defs><path d="M664.316 758.172c-5.399 21.456-32.91 68.323-76.615 131.514 11.98 2.766 23.431 5.923 35.019 8.028 21.193 3.818 42.524 6.842 63.716 10.666 6.977 1.316 10.53-1.183 14.218-6.713 42.654-63.188 77.012-130.723 105.843-201.018 11.321-27.515 20.931-55.684 31.329-83.596 1.053-2.895 2.109-5.66 3.293-9.084 22.774 7.9 45.154 15.533 68.453 23.565-4.212 12.244-8.028 23.826-12.112 35.278-35.019 97.155-78.721 189.965-136.911 275.662-4.874 7.11-10.271 13.821-15.007 20.931-10.929 16.454-26.198 21.456-45.419 19.745-73.982-6.977-145.729-23.826-215.235-49.891-126.38-47.524-235.248-120.060-321.477-224.718-10.401-12.506-13.297-26.463-6.585-41.203 6.447-14.218 18.956-20.666 34.357-20.8 65.687-0.921 129.012-13.955 190.224-37.124 55.425-20.931 105.843-49.764 144.81-95.572 11.321-13.297 20.406-28.306 31.068-43.179 20.009 11.321 40.547 22.774 63.321 35.543-11.717 16.985-22.249 33.963-34.492 49.364-30.016 37.913-67.927 66.743-110.052 90.044-63.456 35.148-131.91 55.425-203.261 66.875-1.453 0.267-2.766 0.525-6.189 1.183 10.137 9.346 18.823 18.037 28.306 25.669 17.771 14.349 35.674 28.306 54.106 41.597 3.551 2.634 9.872 3.685 14.218 2.766 36.598-8.293 70.164-22.774 98.337-48.843-2.369 12.768-25.541 45.154-58.058 81.356 20.406 10.137 40.944 18.956 60.161 30.276 24.882 14.611 48.575 10.666 73.062 0.132 41.203-17.771 76.489-44.362 110.317-73.195 5.529-4.741 10.796-9.61 17.247-15.271v0 0zM931.55 570.717c-115.715-51.342-230.51-102.287-346.355-153.63 9.61-22.116 24.615-38.964 44.889-50.948 33.836-19.881 69.378-22.116 105.316-6.585 46.207 20.009 92.413 40.281 138.224 61.477 53.844 24.882 79.116 80.699 62.662 136.121-1.183 4.478-3.026 8.69-4.741 13.558v0 0zM880.075 369.692c-36.467-16.192-72.403-32.121-108.34-48.182-0.788-0.396-1.316-1.183-2.369-2.109 1.316-2.766 2.634-5.399 4.080-8.028 45.023-84.253 90.044-168.503 135.198-252.626 7.504-14.086 16.325-18.295 32.517-16.064 14.877 2.109 27.515 8.557 37.254 20.14 6.447 7.635 8.028 16.064 4.478 25.802-33.569 92.283-67.007 184.564-100.578 276.849-0.396 1.053-1.183 2.109-2.236 4.212v0 0zM330.593 458.554c-1.183 50.157-43.44 90.967-92.548 89.519-50.157-1.453-90.443-43.179-89.519-92.677 1.053-48.971 43.44-89.911 92.153-89.124 50.025 1.053 91.094 43.179 89.911 92.283v0 0zM94.164 185.129c30.142 0.132 54.501 24.75 54.239 54.634-0.267 29.49-24.615 53.844-54.239 53.975-29.75 0.267-54.765-24.75-54.765-54.501 0-29.886 24.615-54.239 54.765-54.106v0 0zM221.595 257.533c0-20.275 16.192-36.204 36.467-36.065 20.009 0.132 36.598 16.722 36.204 36.598-0.396 19.484-16.722 35.674-36.204 35.807-19.881 0.132-36.334-16.325-36.467-36.334v0 0zM221.595 257.533z" p-id="14952" fill="#ffffff"></path></svg>