<?xml version="1.0" standalone="no"?><!DOCTYPE svg PUBLIC "-//W3C//DTD SVG 1.1//EN" "http://www.w3.org/Graphics/SVG/1.1/DTD/svg11.dtd"><svg class="icon" style="" viewBox="0 0 1025 1024" version="1.1" xmlns="http://www.w3.org/2000/svg" p-id="10459" xmlns:xlink="http://www.w3.org/1999/xlink" width="40.0390625" height="40"><defs><style type="text/css"><![CDATA[

]]></style></defs><path d="M976.78336 605.10208c-181.69856 0-265.3184-1.35168-425.1648 0-32.01024-146.90304-63.17056-317.77792-94.49472-465.44896 143.16544 5.3248 295.95648 35.52256 566.87616 46.55104C1003.81696 322.70336 996.82304 467.52768 976.78336 605.10208zM929.50528 232.72448 882.2784 232.72448l-47.21664 0 0 46.55104-47.26784 0 0 46.55104L740.5568 325.82656l0-46.55104-47.21664 0 0-46.55104-47.26784 0L598.8352 232.72448l0 46.55104 47.22688 0 0 46.55104 47.26784 0 0 46.55104-47.26784 0 0 46.52032 94.49472 0 0 46.55104-94.49472 0L646.06208 512l94.49472 0 0 46.55104 47.22688 0L787.78368 512l94.49472 0 0-46.55104-94.49472 0 0-46.55104 94.49472 0 0-46.52032-47.21664 0 0-46.55104 47.21664 0 0-46.55104 47.22688 0L929.50528 232.72448zM976.78336 698.18368c3.29728 81.60256 3.74784 76.04224-47.42144 91.61728-183.3984 0.39936-567.04 1.54624-566.72256 1.4848 0 0-126.75072-583.35232-141.7216-651.63264-39.41376-0.07168-129.57696 0.07168-188.95872 0C-25.00608 78.10048 6.53312 13.8752 31.96928 0c98.57024 0 192.08192 0 283.4432 0 51.24096 250.15296 91.25888 482.02752 141.7216 698.18368C611.6352 698.18368 869.38624 698.18368 976.78336 698.18368zM504.36096 837.81632c52.18304 0 94.48448 41.6768 94.48448 93.0816 0 51.41504-42.30144 93.10208-94.48448 93.10208-52.1728 0-94.48448-41.6768-94.48448-93.10208C409.87648 879.50336 452.18816 837.81632 504.36096 837.81632zM787.79392 837.81632c52.19328 0 94.49472 41.6768 94.49472 93.0816 0 51.41504-42.30144 93.10208-94.49472 93.10208-52.1728 0-94.45376-41.6768-94.45376-93.10208C693.34016 879.50336 735.62112 837.81632 787.79392 837.81632z" p-id="10460" fill="#ffffff"></path></svg>