<?xml version="1.0" standalone="no"?><!DOCTYPE svg PUBLIC "-//W3C//DTD SVG 1.1//EN" "http://www.w3.org/Graphics/SVG/1.1/DTD/svg11.dtd"><svg class="icon" style="" viewBox="0 0 1024 1024" version="1.1" xmlns="http://www.w3.org/2000/svg" p-id="5690" xmlns:xlink="http://www.w3.org/1999/xlink" width="40" height="40"><defs><style type="text/css"><![CDATA[

]]></style></defs><path d="M515.924679 1023.829365c-134.8042 0-269.437761 0-404.241961 0-8.019997 0-15.528079-1.194468-22.353608-5.8017-9.385103-6.313614-14.333611-15.528079-15.35744-26.619563-0.341276-3.071488-0.170638-6.313614-0.170638-9.555741 0-262.953509 0-525.907017 0.170638-788.860526 0-5.972338-1.535744-10.238294-5.972338-14.674888C41.038492 150.673555 54.518912 101.188469 91.718046 90.438261c17.063823-4.948509 34.810198-6.142976 52.385936-9.043826 49.14381-7.849358 98.287619-15.35744 147.602067-23.036161 53.92168-8.361273 108.013998-16.722546 161.935678-25.083819 51.532745-8.019997 103.236128-15.698717 154.768872-24.230628 32.76254-5.460423 60.235294 14.504249 65.695718 43.000833 3.583403 18.940843-1.706382 35.492751-15.35744 49.14381-2.559573 2.559573-3.924679 4.948509-3.924679 8.70255 0 67.572738 0.170638 135.145476 0 202.718214 0 4.77787 1.365106 6.484253 6.313614 6.313614 13.992335-0.341276 27.131478 4.607232 40.44126 7.849358 79.176138 19.28212 158.352275 38.734878 237.528413 58.187636 21.841693 5.289785 37.54041 17.575737 43.683386 39.588069 6.313614 22.353608-0.341276 41.294451-17.917014 56.139977-4.436594 3.754041-5.972338 7.337444-5.972338 12.797867 0.170638 163.130145 0.170638 326.260291 0 489.390436 0 10.067655-1.023829 19.794034-7.67872 27.984669-7.166806 8.873188-16.38127 13.139144-27.814031 13.139144-40.270622 0-80.541243 0-120.982503 0C707.039494 1023.829365 611.482087 1023.829365 515.924679 1023.829365zM586.056991 539.046161c0-134.974838 0-269.779038 0-404.753876 0-2.047659 0-4.095317 0-6.142976 0.170638-3.754041-1.535744-4.77787-5.289785-4.265956-28.667222 4.607232-57.505083 8.873188-86.172305 13.309782-54.262956 8.531911-108.696551 17.063823-162.959507 25.425096-60.576571 9.385103-121.153142 18.940843-181.729712 28.155308-5.460423 0.853191-7.337444 2.90085-7.337444 8.531911 0.170638 249.30245 0.170638 498.604901 0.170638 747.907351 0 7.849358 0 7.849358 7.67872 7.849358 51.191468 0 102.212298 0 153.403766 0 7.67872 0 7.67872 0 7.67872-7.849358 0-51.02083 0-101.871022 0-152.891852 0-7.508082 0.170638-7.67872 7.337444-7.67872 30.202966 0 60.405933 0 90.608899 0 7.67872 0 7.67872 0 7.67872 7.849358 0 51.02083 0 101.871022 0 152.891852 0 7.67872 0 7.67872 7.67872 7.67872 51.02083 0 101.871022 0 152.891852 0 0.682553 0 1.535744 0 2.218297 0 4.265956 0.341276 6.313614-1.194468 5.972338-5.8017-0.170638-1.877021 0-3.754041 0-5.631062C586.056991 808.825198 586.056991 673.85036 586.056991 539.046161zM655.165473 694.838862c0 84.124646 0 168.249292 0 252.544577 0 7.67872 0.170638 7.849358 7.849358 7.849358 23.377437 0 46.584236 0 69.961673 0 7.166806 0 7.337444-0.170638 7.508082-7.67872 0-23.377437 0-46.584236 0-69.961673 0-8.361273 0.170638-8.70255 8.361273-8.70255 16.039993 0 32.079987 0 48.11998 0 6.996167 0 7.337444 0.341276 7.337444 7.166806 0 23.718714 0 47.437427 0 71.156141 0 8.019997 0 8.019997 8.190635 8.019997 23.206799 0 46.24296 0 69.449759 0 8.190635 0 8.190635 0 8.190635-8.361273 0-150.332278 0-300.835195 0-451.167473 0-8.361273 0-8.361273-8.190635-10.067655-72.691885-16.38127-145.554408-32.76254-218.246293-49.14381-8.361273-1.877021-8.361273-1.877021-8.361273 6.654891C655.165473 526.760208 655.165473 610.884854 655.165473 694.838862zM364.397933 321.653059c-15.35744 0-30.544243-0.170638-45.901683 0.170638-5.119147 0.170638-7.337444-1.365106-7.337444-6.825529 0.170638-30.032328 0.170638-60.064656 0-90.096984 0-4.77787 1.535744-6.654891 6.484253-6.654891 31.056157 0.170638 61.941677 0.170638 92.997834 0 4.607232 0 6.654891 1.365106 6.654891 6.313614-0.170638 30.202966-0.170638 60.405933 0 90.608899 0 4.77787-1.365106 6.654891-6.313614 6.484253C395.454091 321.482421 379.926012 321.653059 364.397933 321.653059zM364.227295 402.876855c15.35744 0 30.544243 0.170638 45.901683-0.170638 5.119147 0 7.166806 1.365106 7.166806 6.825529-0.170638 30.032328-0.170638 60.064656 0 90.096984 0 5.119147-1.706382 6.825529-6.825529 6.654891-30.885519-0.170638-61.941677-0.170638-92.827196 0-4.948509 0-6.484253-1.877021-6.484253-6.654891 0.170638-30.202966 0.170638-60.405933 0-90.608899 0-4.948509 1.706382-6.484253 6.484253-6.484253C333.341776 403.047493 348.699216 402.876855 364.227295 402.876855zM364.73921 691.084821c-15.698717 0-31.397434-0.170638-47.096151 0-4.948509 0-6.484253-1.706382-6.484253-6.484253 0.170638-30.202966 0.170638-60.405933 0-90.608899 0-4.436594 1.365106-6.313614 6.142976-6.313614 31.397434 0.170638 62.624229 0.170638 94.021663 0 4.436594 0 5.8017 1.706382 5.8017 5.972338-0.170638 30.544243-0.170638 61.259124 0 91.803366 0 4.607232-1.877021 5.8017-5.972338 5.8017C395.795367 690.914183 380.267288 691.084821 364.73921 691.084821zM771.88202 585.971673c-8.531911 0-17.234461-0.170638-25.766372 0-4.265956 0.170638-5.631062-1.706382-5.631062-5.631062 0-16.722546 0.170638-33.615731 0-50.338277 0-4.265956 1.706382-5.972338 5.972338-5.972338 17.405099 0.170638 34.63956 0.170638 52.044659 0 4.265956 0 5.972338 1.877021 5.972338 6.142976-0.170638 16.722546-0.170638 33.615731 0 50.338277 0 4.095317-1.535744 5.631062-5.631062 5.460423C789.628396 585.801035 780.755208 585.971673 771.88202 585.971673zM771.711382 695.521415c-8.361273 0-16.722546-0.170638-25.254458 0-4.265956 0.170638-6.142976-1.535744-6.142976-5.8017 0-16.722546 0-33.615731 0-50.338277 0-4.265956 1.877021-5.972338 6.142976-5.8017 17.405099 0.170638 34.63956 0.170638 52.044659 0 4.095317 0 5.8017 1.365106 5.8017 5.460423-0.170638 16.893185-0.170638 33.957007 0 50.850192 0 4.095317-1.535744 5.631062-5.631062 5.631062C789.628396 695.350777 780.755208 695.521415 771.711382 695.521415zM772.90585 743.129481c8.531911 0 17.234461 0.170638 25.766372 0 4.095317-0.170638 5.631062 1.535744 5.631062 5.631062-0.170638 16.722546-0.170638 33.615731 0 50.338277 0 4.265956-1.535744 6.142976-5.8017 6.142976-17.405099-0.170638-34.63956-0.170638-52.044659 0-4.265956 0-5.972338-1.706382-5.972338-5.972338 0.170638-16.722546 0.170638-33.615731 0-50.338277 0-4.436594 2.047659-5.8017 6.142976-5.631062C755.330112 743.300119 764.2033 743.129481 772.90585 743.129481z" p-id="5691" fill="#ffffff"></path></svg>