<?xml version="1.0" standalone="no"?><!DOCTYPE svg PUBLIC "-//W3C//DTD SVG 1.1//EN" "http://www.w3.org/Graphics/SVG/1.1/DTD/svg11.dtd"><svg class="icon" style="" viewBox="0 0 1024 1024" version="1.1" xmlns="http://www.w3.org/2000/svg" p-id="7894" xmlns:xlink="http://www.w3.org/1999/xlink" width="40" height="40"><defs><style type="text/css"><![CDATA[

]]></style></defs><path d="M811.680337 453.290877l-8.234545 0c2.745531-16.470113 5.490038-35.685757 5.490038-54.901401 0-161.957649-131.761929-288.230564-296.465109-288.230564S216.006636 236.432851 216.006636 398.390499c0 19.215644 2.745531 35.685757 5.490038 54.901401l-10.980076 0c-46.665833 0-82.35159 35.685757-82.35159 82.35159l0 274.504958c0 46.665833 35.685757 82.35159 82.35159 82.35159l601.165786 0c46.665833 0 82.35159-35.685757 82.35159-82.35159L894.033973 535.642466C894.031926 488.976634 858.347193 453.290877 811.680337 453.290877zM262.670421 450.54637c-2.745531-16.470113-5.490038-32.94125-5.490038-52.15587 0-139.997498 112.547309-247.054769 252.544807-247.054769s252.544807 109.801778 252.544807 247.054769c0 19.215644-2.745531 38.430264-5.490038 54.901401l-27.450189 0L265.415952 453.2919 262.670421 450.54637zM850.093205 810.454416c0 21.960151-16.452717 40.868803-38.412868 40.868803L210.514551 851.323219c-21.960151 0-41.175795-19.215644-41.175795-41.175795L169.338756 535.642466c0-21.960151 19.215644-41.175795 41.175795-41.175795l521.559727 0 76.861552 0c21.960151 0 41.175795 19.215644 41.175795 41.175795l0 274.504958L850.093205 810.454416zM512.470721 576.818261c-10.980076 0-21.960151 8.234545-21.960151 21.960151l0 167.447686c0 10.980076 8.234545 21.960151 21.960151 21.960151 13.725606 0 21.960151-8.234545 21.960151-21.960151L534.430872 598.778412C534.430872 587.798337 523.450796 576.818261 512.470721 576.818261z" p-id="7895" fill="#ffffff"></path></svg>