<?xml version="1.0" standalone="no"?><!DOCTYPE svg PUBLIC "-//W3C//DTD SVG 1.1//EN" "http://www.w3.org/Graphics/SVG/1.1/DTD/svg11.dtd"><svg class="icon" style="" viewBox="0 0 1024 1024" version="1.1" xmlns="http://www.w3.org/2000/svg" p-id="9293" xmlns:xlink="http://www.w3.org/1999/xlink" width="40" height="40"><defs><style type="text/css"><![CDATA[

]]></style></defs><path d="M585.540249 179.118466c0 99.055517-80.062949 179.31031-178.99057 179.31031-98.863673 0-179.054518-80.254793-179.054518-179.31031C227.49516 80.190845 307.686005 0 406.549678 0 505.4773 0 585.540249 80.190845 585.540249 179.118466L585.540249 179.118466zM353.217011 562.998564l205.46506-86.585649C571.151939 471.105227 592.062949 469.37863 605.364142 472.576032l4.732155 1.151065c-10.871167-42.78124-47.193655-50.518953-133.58746-50.518953L284.536814 423.208143c-70.21495 0-108.008243-1.982389-130.96559 45.978642C153.251483 469.826266 133.043902 522.903141 111.941048 588.513833 101.453569 621.383126 90.710298 657.321926 82.269156 692.173609c-8.569038 34.851683-15.155686 67.720977-16.434647 99.055517l0-0.767377 0 0.255792c0 1.151065-0.127896 2.493974-0.127896 4.220571 0 17.329919 4.732155 33.572722 11.382752 46.618123 12.72566 24.875788 29.991632 40.479111 47.897084 53.972148 31.526385 23.085243 68.488353 39.83963 108.136139 55.059264 117.984138 44.571785 261.547493 70.918379 263.465934 71.429963C500.681197 1022.784987 504.837819 1023.168675 508.930494 1023.168675c31.590333 0 59.663523-22.509711 65.610691-54.675576 6.842441-36.322488-17.138075-71.174171-53.524511-78.208456 0 0-1.151065-0.127896-3.645038-0.767377-19.184413-3.645038-110.630113-22.126023-193.69862-49.112096-41.310435-13.237245-80.766377-29.096359-105.130581-43.356773-7.993505-4.732155-14.324361-9.14457-18.225192-12.469868 1.854493-15.34753 5.88322-37.217761 11.76644-60.4309 8.82483-36.066696 21.166802-76.290014 32.805346-111.653282-10.935115 65.930432-24.428152 155.265846-25.771061 164.090676 2.238181 1.598701 4.987947 3.389246 8.121401 5.115843 22.126023 12.981453 59.151939 28.328983 101.805283 42.077812 1.151065 0.383688 2.30213 0.63948 3.517142 1.151065-1.406857-3.517142-2.110285-6.970337-2.110285-10.615375L330.451508 597.40261C330.515456 583.781677 340.619247 568.370199 353.217011 562.998564L353.217011 562.998564zM894.409292 821.860239c0 0-0.767377-0.127896-2.749766-0.255792-0.255792 0-0.767377 0-1.023169 0-0.383688 0.127896-0.63948 0.383688-0.895273 0.63948l-205.46506 86.585649c-12.72566 5.371636-33.572722 7.098233-46.809967 3.900831l-13.876725-3.26135c0.191844 0.255792 0.191844 0.767377 0.31974 1.151065 11.190907 4.092675 22.765503 7.865609 34.531943 11.254855 51.478174 14.644102 107.560607 22.509711 152.004496 27.369762 44.315993 4.860051 76.545807 6.394804 77.568975 6.394804 1.151065 0.127896 2.110285 0.127896 3.26135 0.127896 35.363267 0 64.971211-28.009242 66.825704-63.69225C959.892088 854.79348 931.307313 823.586836 894.409292 821.860239L894.409292 821.860239zM875.096984 576.683445l-185.129582 78.08056c-8.888778 3.772934-15.987011 14.516206-15.987011 23.980516l0 192.867295c0 9.336414 7.098233 14.132517 15.987011 10.487479l185.129582-78.08056c8.760882-3.900831 15.859114-14.516206 15.859114-23.980516L890.956098 587.170924C890.956098 577.642665 883.793917 572.846562 875.096984 576.683445L875.096984 576.683445zM624.292762 659.8159 366.454256 597.914195C357.117842 595.739961 349.635921 601.751077 349.635921 611.279336l0 193.954412c0 9.46431 7.481921 19.120465 16.818335 21.358646l257.838506 61.837757c9.272466 2.238181 16.882283-3.772934 16.882283-13.237245l0-193.954412C641.175045 671.582339 633.50128 662.118029 624.292762 659.8159L624.292762 659.8159zM377.389371 705.53875 372.337476 704.067945 372.52932 697.03366l-6.714544-1.982389-3.645038 6.139012-4.860051-1.470805 14.388309-22.829451L377.709111 678.42478 377.389371 705.53875 377.389371 705.53875zM393.632174 710.398801l-13.748829-4.092675 7.290077-25.003685 4.796103 1.342909-6.075064 20.847062 8.888778 2.749766L393.632174 710.398801 393.632174 710.398801zM409.874977 715.194904l-13.748829-4.092675 7.354025-25.003685 4.732155 1.342909-6.139012 20.974958 8.952726 2.62187L409.874977 715.194904 409.874977 715.194904zM413.136327 707.201399l1.023169-3.389246 8.82483 2.62187-1.023169 3.26135L413.136327 707.201399 413.136327 707.201399zM435.709986 722.676825l3.133454-10.743271-8.50509-2.366078-3.133454 10.615375L422.408793 718.775995l7.290077-25.003685 4.860051 1.342909-2.94161 9.975895 8.441142 2.493974 2.94161-9.975895 4.732155 1.470805-7.290077 25.003685L435.709986 722.676825 435.709986 722.676825zM462.887904 730.67033l-4.987947-1.470805 0.127896-7.098233L451.377256 720.054955l-3.645038 6.266908-4.860051-1.470805 14.388309-22.829451 6.075064 1.598701L462.887904 730.67033 462.887904 730.67033zM469.602448 732.65272l0-27.241866 5.307688 1.598701-0.383688 11.894336c-0.063948 1.470805-0.127896 3.26135-0.255792 4.732155-0.063948 1.598701-0.127896 3.26135-0.447636 4.732155l0.127896 0c0.703428-1.342909 1.470805-2.749766 2.238181-4.092675 0.831325-1.470805 1.662649-2.749766 2.430026-4.092675l6.139012-10.231687 5.179791 1.470805-14.835946 22.829451L469.602448 732.65272 469.602448 732.65272zM504.006495 719.927059 495.373509 717.433086l-1.726597 6.139012 8.121401 2.366078L500.617248 729.647162l-8.057453-2.238181-2.110285 6.970337 9.080622 2.62187L498.506963 741.157809l-14.004621-4.092675 7.290077-25.003685 13.429089 4.028727L504.006495 719.927059 504.006495 719.927059zM514.685818 745.889964c-3.197402-1.023169-5.755324-4.028727-5.56348-7.226129l4.860051-17.138075 14.324361 4.092675-1.087117 3.645038-9.720102-2.749766-3.772934 13.109349c0 0 0.831325 1.726597 2.110285 2.110285 1.023169 0.255792 2.238181-0.127896 2.94161-0.63948l3.197402-11.126959 4.540311 1.278961-3.453194 11.638544C521.592206 745.506276 517.88322 746.657341 514.685818 745.889964L514.685818 745.889964zM569.297446 738.152251 568.210329 741.79729l-1.151065 3.772934-4.540311-1.342909-3.836883-1.151065-2.813714 9.847999c2.046337-0.255792 4.220571-0.63948 6.458752-1.342909L563.158434 755.290327c-2.685818 0.895273-5.627428 1.342909-8.377194 1.342909l-5.307688 18.225192 6.266908 1.726597-1.087117 3.772934-10.807219-3.133454 6.011116-20.719166c-1.023169-0.127896-2.110285-0.255792-3.005558-0.511584l0.063948-4.028727c1.406857 0.383688 2.685818 0.511584 4.028727 0.63948L554.205708 741.79729l-12.278024-3.645038-2.557922 8.50509 6.586648 1.854493-0.959221 3.389246-6.586648-1.854493-0.959221 3.26135c-1.151065 3.900831-4.987947 6.011116-8.632986 4.732155-3.645038-0.895273-5.819272-4.860051-4.732155-8.50509 0.959221-3.389246 4.284519-5.499532 7.673765-5.115843l0.895273 0.255792 2.557922 0.767377 2.493974-8.377194-9.272466-2.749766 1.151065-3.772934 9.14457 2.749766 0.959221-3.133454-7.993505-2.238181 1.023169-3.772934c4.987947 1.470805 10.039843 2.877662 15.091738 4.220571l-1.151065 3.900831-2.813714-0.895273-0.831325 3.133454 12.278024 3.645038 1.854493-6.842441 4.668207 1.342909-1.982389 6.714544 3.836883 1.151065 1.534753-5.243739c0.127896-0.255792 0-1.342909-0.255792-1.726597l3.964779 1.278961C569.233498 735.402485 569.48929 737.001187 569.297446 738.152251L569.297446 738.152251zM576.33173 763.731468c-3.197402-0.767377-5.691376-3.900831-5.691376-6.970337l5.051895-17.265971 14.132517 4.220571-1.023169 3.645038-9.592206-2.877662L575.308562 757.7843c0 0 0.895273 1.598701 2.174233 1.982389 0.959221 0.383688 2.238181-0.255792 3.005558-0.511584l3.133454-11.126959 4.540311 1.278961-3.197402 11.510648C583.174171 763.603572 579.465185 764.754637 576.33173 763.731468L576.33173 763.731468zM590.656092 776.137388l-4.476363-1.278961 2.62187-9.272466 4.476363 1.342909L590.656092 776.137388 590.656092 776.137388zM594.30113 763.731468l-4.540311-1.342909 2.174233-7.609817 4.604259 1.470805L594.30113 763.731468 594.30113 763.731468zM592.958221 751.517392 595.132455 744.035471l4.540311 1.278961-2.110285 7.609817L592.958221 751.517392 592.958221 751.517392zM629.024917 768.015987l-1.087117 3.645038-2.30213-0.63948-3.26135 11.382752c-0.447636 1.342909-2.110285 2.493974-3.772934 1.982389-6.011116-1.726597-10.743271-3.133454-16.818335-4.860051l0.959221-3.645038 13.493037 3.772934c0.895273 0.383688 2.110285-0.383688 2.238181-1.278961l2.62187-8.760882-15.219634-4.348467-1.278961 4.220571 13.429089 4.028727-0.959221 3.645038-18.097296-5.115843 2.366078-8.249297-2.366078-0.511584 1.151065-3.900831 2.238181 0.767377 2.493974-7.993505c7.993505 2.366078 16.114907 4.732155 24.108412 7.098233L626.786736 767.376507 629.024917 768.015987 629.024917 768.015987zM615.915569 768.975208l-0.895273 2.62187-5.051895-1.470805 0.703428-2.62187L615.915569 768.975208 615.915569 768.975208zM631.838631 758.615625l-28.904515-8.632986 1.726597-4.987947 4.348467 1.278961L608.561544 747.616562l24.364204 7.098233L631.838631 758.615625 631.838631 758.615625zM527.411478 750.366327c-0.447636 1.726597 0.447636 3.772934 2.174233 4.220571 1.918441 0.63948 2.94161-0.383688 3.58109-2.238181l1.151065-3.645038-2.62187-0.63948C529.713608 747.488665 527.987011 748.128146 527.411478 750.366327L527.411478 750.366327zM458.027852 708.288516c-0.31974 0.511584-0.63948 1.151065-0.895273 1.598701s-0.63948 1.023169-0.831325 1.470805l-3.197402 5.243739 5.307688 1.598701 0.127896-6.139012c0.063948-0.767377 0.127896-1.278961 0.127896-1.726597 0-0.767377 0.127896-1.278961 0.127896-1.982389 0-0.63948 0.063948-1.151065 0.127896-1.726597L458.795229 706.625866C458.539437 707.201399 458.283645 707.649035 458.027852 708.288516L458.027852 708.288516zM372.401424 683.220883c-0.31974 0.511584-0.511584 1.151065-0.895273 1.598701-0.255792 0.63948-0.575532 1.151065-0.831325 1.470805l-3.133454 5.371636 5.307688 1.470805 0.191844-6.139012c0-0.63948 0-1.151065 0.063948-1.726597s0.063948-1.278961 0.063948-1.982389c0.127896-0.63948 0.127896-1.151065 0.127896-1.726597L373.296696 681.558234C373.104852 682.069818 372.785112 682.581403 372.401424 683.220883L372.401424 683.220883zM607.026791 761.493287l15.091738 4.476363 1.278961-4.348467-15.091738-4.348467L607.026791 761.493287 607.026791 761.493287zM613.037907 759.383001 618.089802 760.981702l-0.703428 2.62187L612.398426 762.132767 613.037907 759.383001 613.037907 759.383001zM855.209143 550.848436 600.312246 489.714107C590.783988 487.475926 575.948042 488.626991 566.931368 492.399925L384.423656 569.521264c-8.952726 3.772934-8.569038 8.632986 0.831325 10.871167l255.024792 61.198276c9.46431 2.366078 24.364204 1.023169 33.31693-2.749766l182.507712-77.121339C865.057141 558.010616 864.865297 553.086617 855.209143 550.848436L855.209143 550.848436zM527.411478 750.366327c-0.447636 1.726597 0.447636 3.772934 2.174233 4.220571 1.918441 0.63948 2.94161-0.383688 3.58109-2.238181l1.151065-3.645038-2.62187-0.63948C529.713608 747.488665 527.987011 748.128146 527.411478 750.366327L527.411478 750.366327zM372.401424 683.220883c-0.31974 0.511584-0.511584 1.151065-0.895273 1.598701-0.255792 0.63948-0.575532 1.151065-0.831325 1.470805l-3.133454 5.371636 5.307688 1.470805 0.191844-6.139012c0-0.63948 0-1.151065 0.063948-1.726597s0.063948-1.278961 0.063948-1.982389c0.127896-0.63948 0.127896-1.151065 0.127896-1.726597L373.296696 681.558234C373.104852 682.069818 372.785112 682.581403 372.401424 683.220883L372.401424 683.220883zM458.027852 708.288516c-0.31974 0.511584-0.63948 1.151065-0.895273 1.598701s-0.63948 1.023169-0.831325 1.470805l-3.197402 5.243739 5.307688 1.598701 0.127896-6.139012c0.063948-0.767377 0.127896-1.278961 0.127896-1.726597 0-0.767377 0.127896-1.278961 0.127896-1.982389 0-0.63948 0.063948-1.151065 0.127896-1.726597L458.795229 706.625866C458.539437 707.201399 458.283645 707.649035 458.027852 708.288516L458.027852 708.288516zM607.026791 761.493287l15.091738 4.476363 1.278961-4.348467-15.091738-4.348467L607.026791 761.493287 607.026791 761.493287zM613.037907 759.383001 618.089802 760.981702l-0.703428 2.62187L612.398426 762.132767 613.037907 759.383001 613.037907 759.383001zM527.411478 750.366327c-0.447636 1.726597 0.447636 3.772934 2.174233 4.220571 1.918441 0.63948 2.94161-0.383688 3.58109-2.238181l1.151065-3.645038-2.62187-0.63948C529.713608 747.488665 527.987011 748.128146 527.411478 750.366327L527.411478 750.366327z" p-id="9294" fill="#ffffff"></path></svg>