<?xml version="1.0" standalone="no"?><!DOCTYPE svg PUBLIC "-//W3C//DTD SVG 1.1//EN" "http://www.w3.org/Graphics/SVG/1.1/DTD/svg11.dtd"><svg class="icon" style="" viewBox="0 0 1024 1024" version="1.1" xmlns="http://www.w3.org/2000/svg" p-id="6483" xmlns:xlink="http://www.w3.org/1999/xlink" width="40" height="40"><defs><style type="text/css"><![CDATA[

]]></style></defs><path d="M915.2 380.8c-27.2 41.6-115.2 158.4-201.6 46.4-11.2-14.4-35.2-14.4-46.4-1.6-33.6 40-97.6 91.2-166.4-1.6-11.2-14.4-33.6-16-46.4-1.6-35.2 35.2-99.2 81.6-152 1.6-9.6-14.4-32-17.6-44.8-6.4C219.2 452.8 144 494.4 91.2 384c-4.8-8-3.2-19.2 1.6-25.6l139.2-206.4C236.8 144 246.4 139.2 256 139.2l510.4-4.8c11.2 0 20.8 4.8 25.6 14.4l123.2 204.8C921.6 361.6 921.6 372.8 915.2 380.8zM134.4 830.4l17.6 0 0 0 0 0L152 536c0-17.6 14.4-32 32-32l654.4 0c9.6 0 16 6.4 16 16l1.6 310.4 14.4 0c11.2 0 19.2 8 19.2 19.2l0 35.2c0 11.2-8 19.2-17.6 19.2l-736 0c-11.2 0-27.2-9.6-27.2-19.2l0-35.2C108.8 838.4 124.8 830.4 134.4 830.4zM680 864c0 4.8 3.2 8 8 8l97.6 0c4.8 0 8-3.2 8-8L793.6 576c0-4.8-3.2-8-8-8L688 568c-4.8 0-8 3.2-8 8L680 864zM232 798.4c0 4.8 4.8 9.6 9.6 9.6l348.8 0c4.8 0 9.6-4.8 9.6-9.6L600 577.6c0-4.8-4.8-9.6-9.6-9.6L241.6 568c-4.8 0-9.6 4.8-9.6 9.6L232 798.4z" p-id="6484" fill="#ffffff"></path></svg>