<?xml version="1.0" standalone="no"?><!DOCTYPE svg PUBLIC "-//W3C//DTD SVG 1.1//EN" "http://www.w3.org/Graphics/SVG/1.1/DTD/svg11.dtd"><svg class="icon" style="" viewBox="0 0 1024 1024" version="1.1" xmlns="http://www.w3.org/2000/svg" p-id="18122" xmlns:xlink="http://www.w3.org/1999/xlink" width="40" height="40"><defs><style type="text/css"><![CDATA[

]]></style></defs><path d="M753.6 506.4c23.7 1.9 48.1-0.2 70.6-6 30-8 58.3-23.3 81.8-44.1 23-19.8 41.5-46.3 53.4-76.4 2.7-6.9 2.5-14.7-0.5-21.5-3-6.6-8.2-11.6-14.3-13.8-5.2-2.4-11.1-2.9-17.8-1.5l-98.3 27-62-62.4 22.5-84.4 98.8-26.1c14.7-4.1 23.3-19.4 19.4-33.5-1.1-5.7-4.9-11.1-9.9-14.5-24.8-20-53.8-33.7-84.1-39.6-32.1-6.5-63.3-5.5-92.8 2.8-52 13.6-95.3 46.8-121.9 93.5-26.4 45.3-33.9 100.6-20.7 152l-35.7 35.6L425 276.4c1.9-3.5 3.5-6.8 5.1-10.1l3.1-6.6c5.6-12 9.1-23.4 11.4-32.2 7.2-11.9 15-19.4 24.7-23.8 11.6-5.4 26.1-7.3 45.2-6.1 8.3 1.6 17.4-1.5 23.1-7.7 10.6-10.9 10.5-28-0.4-39.2-33.7-31.9-70.8-50.2-107.6-52.6-36.5-2.3-71.2 10.1-102.8 37.2-7.3 2.6-14.5 6-21.7 9.4-2.4 1.2-5 2.5-7.6 4l-7.6-7.3c-10.4-10.4-27.7-10.4-38.7 0l-92.5 92.9c-5.2 4.9-8.1 11.6-8.2 18.8-0.1 7.4 2.8 14.5 8.3 19.9l7.3 6.9-1.4 2.2c-2.2 4.3-4.3 8.7-6.5 13.3-1.1 0.5-2.5 0.9-4.5 1.4-3.9 1.2-10.2 1.7-17.7 1.3-8.1-0.6-15.9 2.2-21.4 7.7l-45 45.5c-5.4 5.4-8.4 12.5-8.3 19.9 0.1 7.2 3.1 13.9 8.3 18.8l52.5 52.7 0.2 1.5 1.7 0.8 56.6 56.8c11.1 10.5 28.2 10.5 39-0.1l45.5-45.5c5.6-5.6 8.3-13.2 7.7-21.8-0.3-4.5 0.1-8.6 1.2-12.4 1-2.1 1.9-3.9 3.3-6.5 5.2-2.3 9.9-4.4 14.3-6.8l1.9-1.2 117 117-257.7 257.4c-10.2 11.1-10.1 28.5 0.2 38.7l92.7 92.5c10.3 10.9 28.8 10.7 38.8 0.1l257.6-256.9L806.5 921c5.2 5.1 12.2 7.6 19.3 7.6 7.1 0 14.2-2.6 19.8-7.7l92-92.5c5.5-5.2 8.6-12.2 8.6-19.7s-3-14.5-8.4-19.6L673.4 524.7l30.1-29.8c15.2 5.8 32 9.7 50.1 11.5zM635.1 356.6l-2.1-6.2-1.1-5-0.9-2.2c-9.7-37.8-4.3-76.9 15.1-110.2 19.2-33.8 50.7-58 88.4-68.2 22.8-5.8 45.7-6.4 67.5-2.1h0.1l-42 11.6c-9.8 2.4-17.1 9.6-19.7 19.4L710 308.5c-2.6 9.3-0.1 19.4 6.6 26.5l83.2 83c6.7 7.9 17.5 11.2 27.4 8.3l42.9-11.4c-0.2 0.2-0.4 0.3-0.6 0.5-16.3 14.6-36.8 25.5-59.1 31.7-16.5 4.3-34.4 5.9-51.6 4.6-16.6-1.7-33.6-6.4-48.8-13.5-10.8-5.9-24.3-4-32.7 4.5L265.2 855.2l-53.9-53.7 417-417.2c7.8-7.5 10.4-18.8 6.8-27.7z m-423.6-45.2l5.4-9.8c1.9-3.3 4.1-7 6.4-10.7 7.9-11.6 5.8-26.7-4.5-35.2l-2-2.1 53.8-53.8 3 2.9c9.4 9.1 24 10.6 34.7 3.5 7.2-4.7 14.7-9.1 21.3-12.7 6.3-3 13.1-6 20.2-8.1 3.8-1.4 6.6-3.2 10.1-5.8 20.3-19 43.4-28.2 66.3-26.9 5.4 0.3 10.7 1.2 16.5 2.8-19.4 9.9-35.4 26.2-48 48.9-1 2.2-2.1 4.6-2.7 7.5-1.5 8.3-5 16.9-8.7 25.2l-0.4 0.9c-4.2 9.2-9.4 18.4-15.8 27.6-6.8 10.7-5.2 24.8 3.8 34.5L503.1 432 449 485.9 317 354.1c-9.5-9.8-24.7-11.1-36-3.1-5.5 3.6-10.1 6.6-15.2 9.2l-2.9 1.6c-4.5 2.5-8.8 4.8-13.1 6.2-5.3 2.1-8.5 5.3-11.5 8.5-7.3 8.3-12.4 17.1-15.6 26.8-2.7 7.4-4.1 14.7-4.4 22.4l-18.2 17.7-72.9-72.4 18-17.8c8.7-0.2 16-1.2 22.6-3.1 12.3-3.1 23.3-9 32.4-17.6 2.5-3 5-6.4 6.6-10.7 1-3.3 2.8-6.7 4.7-10.4z m423 252.2l245 245.2-53.7 53.9-245.2-245.2 53.9-53.9z" p-id="18123" fill="#ffffff"></path></svg>