<?xml version="1.0" standalone="no"?><!DOCTYPE svg PUBLIC "-//W3C//DTD SVG 1.1//EN" "http://www.w3.org/Graphics/SVG/1.1/DTD/svg11.dtd"><svg class="icon" style="" viewBox="0 0 1024 1024" version="1.1" xmlns="http://www.w3.org/2000/svg" p-id="17300" xmlns:xlink="http://www.w3.org/1999/xlink" width="40" height="40"><defs><style type="text/css"><![CDATA[

]]></style></defs><path d="M673.334332 546.836454c60.851935-56.377528 99.843196-142.605743 99.843196-239.252934 0-169.899625-120.233708-307.583521-268.464419-307.583521-148.358552 0-268.59226 137.683895-268.59226 307.583521 0 93.131586 36.114856 176.547316 93.259426 233.052684-256.830961 69.161548-250.950312 443.030212-99.076155 443.030212 1.470162 0 2.812484-0.25568 4.282647-0.383521 41.164544 13.870662 80.219725 17.322347 161.781773 17.322347 12.208739 0 24.673159 0 37.265418 0 12.84794 17.002747 33.813733 25.82372 55.163046 20.582272l189.778777-21.860674c40.525343-2.109363 67.627466-6.64769 95.81623-16.107865 1.470162 0.12784 2.876404 0.383521 4.346567 0.383521C944.227715 983.602497 960.335581 636.899875 673.334332 546.836454L673.334332 546.836454zM358.847441 287.001248c26.335081-15.532584 109.878652-117.101623 109.878652-117.101623s35.539576 75.681398 91.597503 114.289139C566.971286 288.854931 573.810737 293.201498 580.522347 297.356305c52.989763 6.008489 89.168539 21.221473 89.168539 55.163046 0 1.342322 0 2.684644-0.25568 4.090886 0.383521 1.278402 0.639201 2.492884 0.639201 3.707366 0 13.998502-6.39201 27.038202-15.852185 38.22422-14.509863 23.650437-37.840699 48.003995-66.924345 65.198502l0 87.762297L422.000499 551.502622l0-87.570537C372.526342 434.784519 339.22397 385.118602 339.22397 352.519351c0-1.534082 0.06392-3.068165 0.19176-4.602247C338.840449 329.444195 340.566292 297.675905 358.847441 287.001248L358.847441 287.001248zM504.713109 886.380025l-0.25568 0.25568 0-24.864919c-0.12784 1.853683-0.447441 3.771286-0.767041 5.497129-0.830961 4.090886-2.556804 7.990012-5.305368 11.761298-3.323845 4.730087-6.903371 9.268414-10.482896 13.614981l-22.244195 8.245693c-24.161798 5.752809-41.420225 27.869164-44.296629 53.309363-11.058177 10.482896-22.116355 21.093633-32.471411 32.21573 0 0-17.961548 7.862172-41.292385 10.099376-5.880649 0.511361-12.016979 0.639201-18.408989 0.25568-6.32809-0.511361-12.91186-1.470162-19.36779-3.387765-12.97578-3.771286-25.63196-10.355056-36.881898-22.819476-11.186017-12.7201-15.980025-27.102122-16.235705-42.187266-0.3196-15.085144 4.090886-30.809488 10.355056-43.465668 12.59226-26.079401 31.640449-37.968539 31.384769-38.67166 49.857678-20.070911 32.599251-13.870662 162.420974-40.461423l-2.492884 1.853683c2.045443-1.725843 10.482896-1.150562 13.0397-1.342322 2.556804-0.383521 5.113608 0.12784 7.606492 1.022722 2.492884 1.022722 4.794007 2.237203 6.839451 4.026966 2.045443 1.853683 3.771286 3.899126 4.921848 6.51985 3.068165 6.51985 5.944569 12.59226 8.629213 18.600749 1.086642 2.365044 2.173283 5.241448 3.196005 8.629213 0.958801 3.004245 1.534082 6.26417 1.853683 9.588015L504.457428 615.039201c0 0 0.12784 0 0.25568 0l0 0L504.713109 886.380025 504.713109 886.380025 504.713109 886.380025zM710.024469 810.954307l-152.960799 56.313608c-19.36779-17.578027-31.76829-43.209988-31.76829-71.782272 0-52.798002 41.611985-95.496629 92.939825-95.496629 51.45568 0 93.003745 42.698627 93.003745 95.496629C711.238951 800.727091 710.727591 805.840699 710.024469 810.954307L710.024469 810.954307z" p-id="17301" fill="#ffffff"></path></svg>