<?xml version="1.0" standalone="no"?><!DOCTYPE svg PUBLIC "-//W3C//DTD SVG 1.1//EN" "http://www.w3.org/Graphics/SVG/1.1/DTD/svg11.dtd"><svg t="1490914897725" class="icon" style="" viewBox="0 0 1024 1024" version="1.1" xmlns="http://www.w3.org/2000/svg" p-id="5921" xmlns:xlink="http://www.w3.org/1999/xlink" width="32" height="32"><defs><style type="text/css"></style></defs><path d="M235.45856 358.21568v336.6912c0 19.7632 16.0768 39.66976 35.84 39.66976h462.25408c19.7632 0 31.98976-19.92704 31.98976-39.66976V358.13376L502.43584 565.76 235.45856 358.21568z m515.03104-41.8816l2.47808-1.49504c-5.14048-5.38624-11.6736-8.88832-19.41504-8.88832H271.29856c-7.3728 0-14.21312 3.13344-19.92704 8.06912l251.04384 195.31776 248.07424-193.00352zM512 0C229.23264 0 0 229.23264 0 512s229.23264 512 512 512 512-229.23264 512-512S794.76736 0 512 0z m295.424 694.90688c0 47.86176-26.0096 82.8416-73.87136 82.8416H271.29856c-47.88224 0-80.2816-34.95936-80.2816-82.8416V348.20096c0-47.86176 32.39936-86.67136 80.2816-86.67136h462.25408c47.86176 0 73.87136 38.8096 73.87136 86.67136v346.70592z" fill="#a686ba" p-id="5922"></path></svg>