<?xml version="1.0" standalone="no"?><!DOCTYPE svg PUBLIC "-//W3C//DTD SVG 1.1//EN" "http://www.w3.org/Graphics/SVG/1.1/DTD/svg11.dtd"><svg t="1488186586605" class="icon" style="" viewBox="0 0 1024 1024" version="1.1" xmlns="http://www.w3.org/2000/svg" p-id="18116" xmlns:xlink="http://www.w3.org/1999/xlink" width="48" height="48"><defs><style type="text/css"></style></defs><path d="M969.545 319.23c-25.039-59.195-60.88-112.356-106.529-158.006-45.65-45.65-98.812-81.491-158.009-106.53-61.291-25.924-126.39-39.068-193.495-39.068-67.104 0-132.205 13.143-193.497 39.068-59.197 25.039-112.356 60.88-158.007 106.53-45.65 45.649-81.49 98.81-106.53 158.007-25.922 61.29-39.067 126.391-39.067 193.495 0 67.105 13.145 132.204 39.067 193.495 25.039 59.197 60.88 112.356 106.53 158.007 45.653 45.652 98.815 81.493 158.007 106.529 61.289 25.924 126.39 39.068 193.497 39.068 20.321 0 40.784-1.239 60.823-3.684 69.588-8.49 298.495-6.752 324.365-6.524l13.062 0.114-0.624-13.046c-0.73-15.275-2.099-55.539 0.917-99.44 3.706-53.883 12.841-94.161 26.425-116.483 47.189-77.557 72.131-166.785 72.131-258.035 0-67.106-13.146-132.206-39.068-193.495zM771.198 656.647h-525.575v-24.691h525.575v24.691zM771.198 520.071h-525.575v-24.69h525.575v24.69zM771.198 377.428h-525.575v-24.69h525.575v24.69z" p-id="18117" fill="#8cbb19"></path></svg>