<?xml version="1.0" standalone="no"?><!DOCTYPE svg PUBLIC "-//W3C//DTD SVG 1.1//EN" "http://www.w3.org/Graphics/SVG/1.1/DTD/svg11.dtd"><svg t="1482993749706" class="icon" style="" viewBox="0 0 1024 1024" version="1.1" xmlns="http://www.w3.org/2000/svg" p-id="2026" xmlns:xlink="http://www.w3.org/1999/xlink" width="64" height="64"><defs><style type="text/css"></style></defs><path d="M437.310927 232.496192c-53.590546-52.472072-178.50758-73.566506-248.901837 1.86958C119.508861 307.930231 63.86761 485.317291 63.86761 652.618645c0 201.848171 169.171957 229.856062 261.410732 130.704854 53.400211-57.511855 58.44204-66.474994 93.361341-112.031563l186.721659 0c35.101449 45.556569 39.950897 54.518684 93.361341 112.031563 92.231611 99.151207 261.410732 71.143317 261.410732-130.704854 0-167.301354-55.652508-344.688413-124.541481-418.252873-70.387094-75.436086-195.128119-54.341652-248.901837-1.86958-20.733207 20.166295-74.689073 28.007891-74.689073 28.007891S458.034924 252.662487 437.310927 232.496192zM362.621854 355.735004l0 54.145178 54.147224 0c21.663392 0 39.213094 16.802688 39.213094 37.346583 0 20.539802-17.549701 37.344536-39.213094 37.344536l-54.147224 0 0 54.145178c0 21.663392-16.802688 39.21514-37.344536 39.21514-20.540825 0-37.344536-17.551748-37.344536-39.21514l0-54.145178-54.147224 0c-21.663392 0-39.213094-16.804734-39.213094-37.344536 0-20.542872 17.549701-37.346583 39.213094-37.346583l54.147224 0L287.932782 355.735004c0-21.665439 16.802688-39.21514 37.344536-39.21514C345.819167 316.51884 362.621854 334.069565 362.621854 355.735004zM698.721659 381.872291c0-25.76378 20.914332-46.680159 46.680159-46.680159 25.765827 0 46.680159 20.916379 46.680159 46.680159 0 25.765827-20.914332 46.680159-46.680159 46.680159C719.635991 428.552449 698.721659 407.637094 698.721659 381.872291zM605.360318 493.904876c0-25.765827 20.914332-46.678112 46.680159-46.678112 25.765827 0 46.680159 20.913309 46.680159 46.678112s-20.914332 46.680159-46.680159 46.680159C626.275673 540.585035 605.360318 519.670703 605.360318 493.904876z" p-id="2027" fill="#f0510d"></path></svg>