<?xml version="1.0" standalone="no"?><!DOCTYPE svg PUBLIC "-//W3C//DTD SVG 1.1//EN" "http://www.w3.org/Graphics/SVG/1.1/DTD/svg11.dtd"><svg t="1492044489538" class="icon" style="" viewBox="0 0 1024 1024" version="1.1" xmlns="http://www.w3.org/2000/svg" p-id="2466" xmlns:xlink="http://www.w3.org/1999/xlink" width="32" height="32"><defs><style type="text/css"></style></defs><path d="M517.241 997.991c-268.045 0-486.131-218.071-486.131-486.017 0-268.045 218.071-486.131 486.131-486.131s486.131 218.071 486.131 486.131c0 268.017-218.071 486.017-486.131 486.017zM517.241 85.311c-235.237 0-426.595 191.337-426.595 426.595 0 235.195 191.337 426.572 426.595 426.572s426.595-191.337 426.595-426.572c0-235.237-191.337-426.595-426.595-426.595z" p-id="2467" fill="#e16531"></path><path d="M555.103 302.911h75.969c37.59 0 70.178-0.707 97.687-2.162v39.049c-26.065-1.436-52.811-2.162-80.308-2.162h-290.767c0 92.609-0.754 155.961-2.162 189.89-1.437 33.963-5.785 68.754-13.036 104.199-7.293 35.444-18.817 69.783-34.731 103.129-13.036-10.178-28.266-18.909-45.527-26.065 21.633-33.229 35.839-70.508 42.276-111.725s10.157-86.067 10.857-134.585c0.707-48.468-0.349-101.638-3.317-159.545h190.986c-2.917-13.036-9.334-31.051-19.515-54.224 14.522-2.916 29.709-7.907 45.527-15.196 10.157 24.644 18.8 47.826 26.065 69.498zM557.222 417.954h114.997c23.104 0 43.495-0.707 60.741-2.162v41.218c-15.878-1.436-36.17-2.162-60.741-2.162h-114.997v73.801h143.206c-1.436 37.59-2.162 72.326-2.162 104.199s0.754 65.782 2.162 101.959h-45.527v-39.049h-216.966v41.218h-43.495c1.436-40.494 2.162-76.687 2.162-108.459 0-33.229-0.754-66.573-2.162-99.855h119.359v-108.459c0-24.561-0.754-47.725-2.162-69.466h47.725c-1.437 23.274-2.162 45.615-2.162 67.339zM654.81 660.982v-95.447h-216.966v95.447h216.966z" p-id="2468" fill="#e16531"></path></svg>