<?xml version="1.0" standalone="no"?><!DOCTYPE svg PUBLIC "-//W3C//DTD SVG 1.1//EN" "http://www.w3.org/Graphics/SVG/1.1/DTD/svg11.dtd"><svg t="1484034642373" class="icon" style="" viewBox="0 0 1024 1024" version="1.1" xmlns="http://www.w3.org/2000/svg" p-id="4191" xmlns:xlink="http://www.w3.org/1999/xlink" width="128" height="128"><defs><style type="text/css"></style></defs><path d="M227.154533 527.392572c-23.375383-5.718235-31.907711-19.342534-25.575492-40.893362l24.286126-90.635253 30.212092 8.095375-4.774747 17.816784 91.410919 24.493857 9.963932-37.183877-127.044488-34.042327 7.265474-27.113521 157.25658 42.136679-24.493857 91.409896-121.623012-32.588209-10.17064 37.95852c-3.289929 10.197246 0.298805 16.412808 10.775414 18.662035l73.593112 19.718087c12.115945 4.363378 20.137643 1.245364 24.085558-9.320273 0.551562-2.058892 2.029216-5.541203 4.455475-10.43056 2.169409-6.061043 3.935636-10.56973 5.285377-13.529131 10.015098 6.004761 19.125593 11.222599 27.362184 15.634072-4.869914 11.979846-9.731642 22.857591-14.556531 32.631188-7.249101 14.663978-21.394263 18.891256-42.427298 12.709463L227.154533 527.392572z" p-id="4192" fill="#d4237a"></path><path d="M423.438988 515.224438l23.455201-87.536682 33.310663 8.925277c-0.857531-2.993171-2.211365-7.234775-4.065596-12.713556-2.988054-7.442506-4.980431-12.400425-5.975085-14.885012l34.196847 2.520403c4.214998 11.092639 7.78122 22.570042 10.703783 34.418904l19.367093 5.189186c2.88777-2.547009 7.566326-6.548136 14.014178-12.019755 6.583952-5.981225 11.251252-9.984399 14.014178-12.020778l31.289634 13.365402c-9.487072 8.537444-17.374716 15.270798-23.684422 20.2236l33.310663 8.925277-23.455201 87.536682-41.831734-11.208273-7.680936 28.662807c-2.596128 7.607258-0.212848 12.124132 7.16519 13.542434l6.970762 1.868557c6.565533 2.316765 11.270694 0.255827 14.111392-6.182816 3.210112-5.78168 6.034437-12.213159 8.495488-19.310811 8.834202 6.246261 16.791431 11.700483 23.848151 16.353456-4.455475 10.429537-8.625448 18.73162-12.480242 24.88476-6.4192 11.564383-17.374716 15.271822-32.868595 11.119245l-28.66383-7.679913c-17.043165-4.567016-23.348778-15.116279-18.921955-31.639604l10.586103-39.507806-21.689998-5.812379c-6.384407 32.05916-33.643238 49.105395-81.789795 51.148937-0.854461-3.00545-2.407839-7.571443-4.632507-13.694907-2.094708-6.658653-4.019547-11.871375-5.767354-15.659655 38.494733 0.907673 59.158355-9.058306 61.97654-29.889751L423.438988 515.224438zM469.482651 461.139635l-9.963932 37.183877 96.832396 25.945929 9.962909-37.182854L469.482651 461.139635z" p-id="4193" fill="#d4237a"></path><path d="M638.827547 512.328481l7.05672-26.338878 16.266475 4.359284 8.9263-33.310663 25.564235 6.848988-8.9263 33.310663 13.94357 3.736091-3.52836 13.169951c19.505239-10.821463 35.344996-23.455201 47.520293-37.913495l30.212092 8.095375c-4.114714 4.994758-8.328689 9.391904-12.673647 13.20986l53.452399 14.323217-5.396917 20.139689-19.131733 15.631002 24.013927 6.434549-14.737656 55.000662 9.296737 2.491751-6.226818 23.240307-51.128471-13.701047c4.900613 16.817014 20.294209 30.632671 46.186925 41.435715-2.759857 2.025123-6.652514 6.235005-11.691273 12.642948-2.515287 3.191692-4.572132 5.689582-6.15621 7.482415-25.948999-14.710027-41.832757-30.862915-47.625694-48.462758-11.482519 11.868305-34.296107 18.482957-68.420299 19.859303-0.242524-1.180895-0.602727-2.936889-1.079588-5.270027-2.01796-11.062963-3.90903-18.48398-5.65786-22.274306 33.293267 1.734504 54.713113-2.775206 64.23293-13.508665l-51.128471-13.700023 5.604648-20.916379-11.467169-0.581238-11.416004 42.6074c-3.919263 16.658402-12.976546 23.636327-27.198455 20.941961-2.591011-0.694825-6.011924-1.338485-10.279111-1.924839-4.140297-1.109264-7.237845-1.939165-9.296737-2.490727 1.450025-9.575076 2.451842-18.439978 2.976798-26.601868 3.607154 0.967024 6.971785 1.868557 10.07138 2.699482 5.01727 1.901303 8.43716-0.502443 10.237155-7.221472l7.679913-28.662807-17.304108-0.485047 5.563716-30.060643 19.421328 1.882883 8.509814-31.760354L638.827547 512.328481zM694.602851 527.272845l-13.94357-3.736091-7.265474 27.113521 13.224186 0.222057c-3.184529 11.886725-5.213745 20.476357-6.075369 25.771967l9.295714 2.491751 11.209296-41.832757-4.786003-16.226566L694.602851 527.272845zM723.346499 553.241286l-8.718569 32.536021 17.817808 4.773723 9.491165-32.328289L723.346499 553.241286zM780.620947 525.411451l-37.183877-9.962909c-2.104941 1.654686-5.191232 3.877307-9.255805 6.653537-4.207835 3.309372-7.362688 5.78475-9.462512 7.42818l37.95852 10.17064L780.620947 525.411451zM785.319969 569.845453l-17.816784-4.773723-9.493212 32.329313 18.59245 4.980431L785.319969 569.845453z" p-id="4194" fill="#d4237a"></path><path d="M512 297.357432c70.719668 0 133.443221 34.206056 172.547845 86.968747l27.357068 7.329942c-40.839127-67.693752-115.083062-112.963795-199.904912-112.963795-40.980343 0-79.483262 10.578939-112.952538 29.134551l27.304879 7.316639C452.590935 303.712163 481.551524 297.357432 512 297.357432zM652.945079 285.216927l14.980179 12.141528 4.617158-18.197454 16.767895-9.79918-16.767895-9.79918-4.617158-18.197454-14.980179 12.143575-19.62599-1.450025 7.512091 17.304108-7.512091 17.302061L652.945079 285.216927zM393.037585 244.49241l-15.410991-10.724249-3.363607 18.987447-15.775288 11.762905 17.012466 8.15268 5.656837 17.994839 13.879102-13.951757 19.272949-0.64059-8.43409-16.774035 6.252401-18.391882L393.037585 244.49241zM537.309432 218.257909l-11.42112-14.901385-8.977465 17.066701-18.602683 6.411013 13.727653 12.936637-0.076748 18.86465 17.460674-9.072633 18.556635 5.246491-2.935865-18.543332 11.545964-15.618723L537.309432 218.257909zM746.131435 335.440795l-16.180518-11.200086-2.301416 18.724457-15.247262 11.101849 17.648962 8.703219 6.754844 18.063401 13.204743-13.34289 19.424398 0.059352-9.485025-16.951067 5.248537-18.026562L746.131435 335.440795zM956.288852 476.464669 145.002488 259.078617c-19.913539-5.334495-40.380686 6.483668-45.719274 26.397207L41.315988 501.818103c-5.334495 19.913539 6.482645 40.382733 26.39516 45.719274l811.286364 217.381959c19.913539 5.336542 40.382733-6.480598 45.719274-26.39516l57.966203-216.34228C988.020554 502.268358 976.202391 481.799164 956.288852 476.464669zM962.239378 526.366196l-53.136198 198.312648c-4.003174 14.935154-19.354813 23.799032-34.288944 19.797905L81.556481 531.924795c-14.935154-4.003174-23.796986-19.354813-19.797905-34.288944l53.140291-198.316741c4.000104-14.935154 19.352767-23.796986 34.288944-19.795858l793.255709 212.551954C957.378673 496.077356 966.242552 511.431042 962.239378 526.366196zM512 176.038342c155.48012 0 286.266839 105.624642 324.580446 249.025657l20.653389 5.53404c-36.787858-156.61906-177.391153-273.223778-345.232812-273.223778-101.768825 0-193.520505 42.872436-258.192434 111.537306l20.632923 5.528923C335.237157 213.641775 419.22706 176.038342 512 176.038342zM597.648682 708.85546c-26.239618 11.432377-55.200206 17.786085-85.648682 17.786085-70.718645 0-133.443221-34.206056-172.548868-86.970794l-27.358091-7.330966c40.839127 67.694775 115.083062 112.965841 199.906959 112.965841 40.980343 0 79.484286-10.578939 112.953561-29.134551L597.648682 708.85546zM397.395846 747.608066l-14.860453-12.114922-4.578272 18.156522-16.633842 9.774621 16.633842 9.776667 4.578272 18.155499 14.860453-12.112875 19.463284 1.444908-7.450692-17.263176 7.450692-17.263176L397.395846 747.608066zM511.941672 805.096385l11.328 14.868639 8.904811-17.027815 18.451234-6.39464-13.617136-12.906961 0.078795-18.819624-17.318434 9.05012-18.407232-5.235235 2.911306 18.500353-11.450796 15.582907L511.941672 805.096385zM276.004101 687.780469l15.21861 12.281721 3.594875-18.472723 15.868409-9.981329-16.84669-9.897418-5.412266-18.448164-14.005992 12.354376-19.215644-1.420349 8.18952 17.533328-6.463202 17.569144L276.004101 687.780469zM512 847.961658c-155.479097 0-286.267862-105.625666-324.580446-249.02668l-20.653389-5.53404c36.786835 156.61906 177.391153 273.225825 345.233835 273.225825 101.768825 0 193.521528-42.872436 258.193457-111.537306l-20.6319-5.5279C688.763866 810.358225 604.773963 847.961658 512 847.961658zM646.923946 779.475867l15.312754 10.715039 3.302209-18.929118 15.635095-11.704576-16.898879-8.15268-5.65172-17.951861-13.746072 13.892405-19.125593 0.611937 8.401344 16.736173-6.166443 18.328437L646.923946 779.475867z" p-id="4195" fill="#d4237a"></path></svg>