<?xml version="1.0" standalone="no"?><!DOCTYPE svg PUBLIC "-//W3C//DTD SVG 1.1//EN" "http://www.w3.org/Graphics/SVG/1.1/DTD/svg11.dtd"><svg t="1483587667597" class="icon" style="" viewBox="0 0 1024 1024" version="1.1" xmlns="http://www.w3.org/2000/svg" p-id="4602" xmlns:xlink="http://www.w3.org/1999/xlink" width="64" height="64"><defs><style type="text/css"></style></defs><path d="M512 63.0784c247.3984 0 449.9456 200.6016 449.9456 449.9456S759.3984 960.9216 512 960.9216 62.0544 760.32 62.0544 513.024 264.6016 63.0784 512 63.0784L512 63.0784zM512 0.9216c-281.4976 0-512 228.6592-512 512S230.5024 1023.0784 512 1023.0784s512-228.5568 512-512S793.4976 0.9216 512 0.9216L512 0.9216" p-id="4603" fill="#ffffff"></path><path d="M512 199.3728c35.0208 0 62.3616 27.2384 62.3616 62.3616s-27.2384 62.3616-62.3616 62.3616c-35.1232 0-62.3616-27.2384-62.3616-62.3616S476.9792 199.3728 512 199.3728L512 199.3728zM512 141.0048c-66.2528 0-120.7296 54.5792-120.7296 120.7296S445.7472 382.464 512 382.464s120.7296-54.5792 120.7296-120.7296S578.2528 141.0048 512 141.0048L512 141.0048" p-id="4604" fill="#ffffff"></path><path d="M512 707.7888c35.0208 0 62.3616 27.2384 62.3616 62.3616s-27.2384 62.3616-62.3616 62.3616c-35.1232 0-62.3616-27.2384-62.3616-62.3616S476.9792 707.7888 512 707.7888L512 707.7888zM512 649.3184c-66.2528 0-120.7296 54.5792-120.7296 120.7296s54.4768 120.832 120.7296 120.832 120.7296-54.5792 120.7296-120.832C632.7296 701.952 578.2528 649.3184 512 649.3184L512 649.3184" p-id="4605" fill="#ffffff"></path><path d="M763.2896 450.6624c35.0208 0 62.3616 27.2384 62.3616 62.3616 0 35.0208-27.2384 62.3616-62.3616 62.3616-35.0208 0-62.3616-27.2384-62.3616-62.3616S730.112 450.6624 763.2896 450.6624L763.2896 450.6624zM763.2896 392.192c-66.2528 0-120.7296 54.5792-120.7296 120.7296s54.5792 120.7296 120.7296 120.7296 120.7296-54.4768 120.7296-120.6272S831.3856 392.192 763.2896 392.192L763.2896 392.192" p-id="4606" fill="#ffffff"></path><path d="M256.8192 450.6624c35.0208 0 62.3616 27.2384 62.3616 62.3616 0 35.0208-27.2384 62.3616-62.3616 62.3616S194.56 548.0448 194.56 513.024C194.56 477.9008 223.744 450.6624 256.8192 450.6624L256.8192 450.6624zM256.8192 392.192c-66.2528 0-120.7296 54.5792-120.7296 120.7296s54.5792 120.7296 120.7296 120.7296 120.832-54.4768 120.832-120.6272S325.0176 392.192 256.8192 392.192L256.8192 392.192" p-id="4607" fill="#ffffff"></path><path d="M523.3664 1023.0784l432.3328 0c19.7632 0 35.84-13.9264 35.84-31.0272s-16.1792-31.0272-35.84-31.0272L523.3664 961.024 523.3664 1023.0784 523.3664 1023.0784z" p-id="4608" fill="#ffffff"></path></svg>