<?xml version="1.0" standalone="no"?><!DOCTYPE svg PUBLIC "-//W3C//DTD SVG 1.1//EN" "http://www.w3.org/Graphics/SVG/1.1/DTD/svg11.dtd"><svg t="1481702447070" class="icon" style="" viewBox="0 0 1024 1024" version="1.1" xmlns="http://www.w3.org/2000/svg" p-id="2374" xmlns:xlink="http://www.w3.org/1999/xlink" width="200" height="200"><defs><style type="text/css"></style></defs><path d="M355.784955 47.305652l242.509585 0c6.383538 0 11.560432-5.682906 11.560432-12.702203L609.854973 25.067065c0-7.019297-5.150945-12.715178-11.560432-12.715178L355.784955 12.351887c-6.370564 0-11.547458 5.695881-11.547458 12.715178l0 9.523409C344.237497 41.622746 349.414391 47.305652 355.784955 47.305652L355.784955 47.305652z" p-id="2375" fill="#d6204b"></path><path d="M259.707512 375.590791l434.69042 0c6.344614 0 11.560432-5.682906 11.560432-12.689229l0-9.536384c0-7.019297-5.189869-12.702203-11.560432-12.702203L259.707512 340.662975c-6.370564 0-11.547458 5.682906-11.547458 12.702203l0 9.536384C248.160055 369.92086 253.323974 375.590791 259.707512 375.590791L259.707512 375.590791z" p-id="2376" fill="#d6204b"></path><path d="M887.915158 607.798487 887.915158 43.478124C887.915158 19.462007 870.25663 0 848.485131 0L709.617222 0c-12.287014 1.375315-17.502832 16.854098-17.502832 16.854098l-43.919263 79.353091c0 0-3.269617 4.930375-4.865502 5.9424-1.414239 0.856328-5.449362 1.076898-5.449362 1.076898L312.825818 103.226487c0 0-3.062022-0.376265-4.190819-1.076898-0.817404-0.518987-2.9712-2.478162-2.9712-2.478162l-45.82654-82.817328c0 0-5.176894-15.465808-17.476883-16.854098L103.868733 0C82.097234 0 64.438706 19.462007 64.438706 43.478124l0 863.269769c0 24.003142 17.658528 43.46515 39.430027 43.46515l437.415101 0 0 0c44.256605 45.502173 106.158762 73.786957 174.613129 73.786957 134.586268 0 243.651356-109.052114 243.651356-243.638382C959.561294 712.906301 932.158788 651.899396 887.915158 607.798487L887.915158 607.798487zM871.567072 598.845964c-0.233544-0.233544-0.480063-0.441139-0.739556-0.687658C871.087009 598.404825 871.346502 598.625394 871.567072 598.845964L871.567072 598.845964zM867.843341 595.485524c-0.311392-0.272468-0.635759-0.557911-0.947151-0.843354C867.220557 594.927613 867.518974 595.213056 867.843341 595.485524L867.843341 595.485524zM114.222521 904.139985c-3.710756 0-6.72088-3.321516-6.72088-7.395563L107.501641 55.362923c0-4.087022 2.997149-7.408537 6.72088-7.408537l125.127732 0 44.490149 80.37809 2.698732 4.878476 3.970249 3.671832c4.35949 4.048098 6.759804 5.514235 7.771828 6.149994 1.647783 1.012024 6.668981 4.099996 15.958846 5.293666l1.842403 0.233544 1.816454 0 316.828504 0 0.817404 0 0.791455-0.051899c11.352838-0.622784 17.282262-4.281642 19.202514-5.475311 3.529111-2.205694 8.446511-5.981324 14.881948-15.738277l0.713607-1.141771 0.700632-1.19367 42.647745-77.01765 125.491023 0c3.697781 0 6.72088 3.321516 6.72088 7.408537L846.694626 578.800096c-38.49585-26.935418-85.373339-42.751543-135.935633-42.751543-1.595885 0-3.191769 0.025949-4.787654 0.077848l0-8.031322c0-7.019297-5.189869-12.702203-11.560432-12.702203L259.707512 515.392877c-6.370564 0-11.547458 5.682906-11.547458 12.702203l0 9.549358c0 7.019297 5.163919 12.702203 11.547458 12.702203l369.739214 0c1.543986-0.557911 3.087972-1.115822 4.657907-1.621834-67.234748 22.91327-120.885015 75.110373-145.744485 141.39797L259.707512 690.122778c-6.370564 0-11.547458 5.682906-11.547458 12.702203l0 9.510434c0 7.019297 5.163919 12.702203 11.547458 12.702203l218.545367 0c0.298417-1.505062 0.648734-2.997149 0.99905-4.541135-3.905376 17.035744-5.9424 34.77212-5.9424 52.949634 0 48.291727 14.388911 93.223015 39.144584 130.654942l0-0.025949L114.222521 904.075111 114.222521 904.139985zM863.769294 591.969388c-0.298417-0.272468-0.60981-0.506012-0.882278-0.77848C863.159485 591.450401 863.457902 591.69692 863.769294 591.969388L863.769294 591.969388zM859.565501 588.505151c-0.259493-0.207595-0.480063-0.38924-0.713607-0.60981C859.085438 588.11591 859.306007 588.310531 859.565501 588.505151L859.565501 588.505151zM855.335758 585.17066c-0.207595-0.155696-0.363291-0.272468-0.557911-0.428164C854.946517 584.898192 855.128163 585.014964 855.335758 585.17066L855.335758 585.17066zM851.002217 581.926992c-0.103797-0.077848-0.181645-0.155696-0.272468-0.207595C850.820572 581.771296 850.89842 581.849144 851.002217 581.926992L851.002217 581.926992zM701.559951 536.256148c-0.350316 0-0.687658 0.025949-1.012024 0.025949C700.872293 536.282098 701.209635 536.256148 701.559951 536.256148L701.559951 536.256148zM696.409006 536.515642c-0.363291 0.025949-0.791455 0.051899-1.16772 0.077848C695.630526 536.554566 696.032741 536.541591 696.409006 536.515642L696.409006 536.515642zM691.063442 536.891907c-0.181645 0-0.337341 0.025949-0.557911 0.051899C690.713125 536.917857 690.894771 536.891907 691.063442 536.891907L691.063442 536.891907zM677.258391 538.409944c-0.428164 0.077848-0.882278 0.129747-1.349366 0.207595C676.376113 538.539691 676.830227 538.487792 677.258391 538.409944L677.258391 538.409944zM672.36694 539.175449c-0.58386 0.077848-1.19367 0.181645-1.790505 0.272468C671.17327 539.34412 671.78308 539.253298 672.36694 539.175449L672.36694 539.175449zM667.203021 540.057727c-0.60981 0.129747-1.271518 0.259493-1.881327 0.376265C665.931503 540.317221 666.593211 540.187474 667.203021 540.057727L667.203021 540.057727zM662.026127 541.069752c-0.58386 0.129747-1.180695 0.259493-1.790505 0.376265C660.858406 541.329245 661.442267 541.199498 662.026127 541.069752L662.026127 541.069752zM654.319172 542.821332c-0.739556 0.181645-1.453163 0.350316-2.179745 0.531962C652.853034 543.171648 653.59259 543.002978 654.319172 542.821332L654.319172 542.821332zM649.362847 544.09285c-0.817404 0.246519-1.621834 0.428164-2.439238 0.661708C647.741013 544.521014 648.545443 544.326394 649.362847 544.09285L649.362847 544.09285zM644.237852 545.507089c-0.830379 0.259493-1.673733 0.506012-2.504112 0.765506C642.564119 546.013101 643.407473 545.753608 644.237852 545.507089L644.237852 545.507089zM639.164756 547.06405c-0.895252 0.272468-1.803479 0.58386-2.685757 0.843354C637.374251 547.634935 638.256529 547.336518 639.164756 547.06405L639.164756 547.06405zM486.894011 694.18385c-0.064873 0.155696-0.129747 0.298417-0.19462 0.454114C486.777239 694.482268 486.829137 694.339546 486.894011 694.18385L486.894011 694.18385zM482.729141 707.093648c-0.038924 0.103797-0.077848 0.19462-0.103797 0.285443C482.651293 707.262319 482.690217 707.184471 482.729141 707.093648L482.729141 707.093648zM481.691167 710.752506c-0.168671 0.570886-0.298417 1.154746-0.467088 1.712657C481.379775 711.907251 481.522497 711.323391 481.691167 710.752506L481.691167 710.752506zM480.432624 715.540159c-0.19462 0.700632-0.337341 1.38829-0.506012 2.101897C480.082308 716.941424 480.250979 716.240792 480.432624 715.540159L480.432624 715.540159zM536.677825 934.993753c0 0.025949 0.012975 0.025949 0.012975 0.051899C536.677825 935.019703 536.677825 935.019703 536.677825 934.993753L536.677825 934.993753zM515.581009 908.797892l0.025949 0.025949L515.581009 908.797892 515.581009 908.797892zM518.824677 913.364976c0.025949 0.025949 0.025949 0.025949 0.051899 0.051899C518.837652 913.377951 518.837652 913.377951 518.824677 913.364976L518.824677 913.364976zM522.198092 917.880162c0 0 0.012975 0.025949 0.025949 0.051899C522.211066 917.906111 522.198092 917.880162 522.198092 917.880162L522.198092 917.880162zM525.662329 922.278575c0.012975 0 0.025949 0.025949 0.038924 0.051899C525.688278 922.304525 525.675304 922.278575 525.662329 922.278575L525.662329 922.278575zM529.230364 926.612116c0.012975 0 0.025949 0.025949 0.038924 0.051899C529.256313 926.638065 529.243338 926.612116 529.230364 926.612116L529.230364 926.612116zM532.902196 930.854833c0 0.025949 0.025949 0.025949 0.025949 0.051899C532.928145 930.880783 532.902196 930.880783 532.902196 930.854833L532.902196 930.854833zM854.440505 917.231428c-38.392053 38.366104-89.421436 59.540768-143.707462 59.540768s-105.302434-21.174664-143.694487-59.540768c-38.392053-38.392053-59.527793-89.46036-59.527793-143.720436s21.13574-105.315409 59.527793-143.681512 89.408461-59.527793 143.694487-59.527793c54.311975 0 105.315409 21.161689 143.707462 59.527793 38.366104 38.366104 59.501844 89.421436 59.501844 143.681512S892.806609 878.839375 854.440505 917.231428L854.440505 917.231428z" p-id="2377" fill="#d6204b"></path><path d="M813.064278 784.072374c9.458536 0 17.100617-7.681006 17.100617-17.126566 0-9.445561-7.655056-17.087642-17.100617-17.087642l-66.624938 0 73.242021-95.285988c5.747779-7.473411 4.33354-18.216439-3.139871-23.990168-7.486385-5.773729-18.229413-4.35949-24.003142 3.113921l-80.845178 105.159713-80.832204-105.159713c-5.773729-7.473411-16.516757-8.900625-24.003142-3.113921-7.486385 5.747779-8.926574 16.490807-3.126896 23.990168l73.203097 95.285988-66.598989 0c-9.458536 0-17.139541 7.655056-17.139541 17.087642 0 9.458536 7.681006 17.126566 17.139541 17.126566l84.257517 0 0 37.276231-80.248343 0c-9.432586 0-17.087642 7.681006-17.087642 17.152516 0 9.458536 7.668031 17.126566 17.087642 17.126566l80.248343 0 0 63.939181c0 9.458536 7.655056 17.100617 17.100617 17.100617 9.445561 0 17.087642-7.655056 17.087642-17.100617l0-63.939181 80.248343 0c9.432586 0 17.087642-7.681006 17.087642-17.126566 0-9.47151-7.681006-17.152516-17.087642-17.152516l-80.248343 0 0-37.276231L813.064278 784.072374 813.064278 784.072374z" p-id="2378" fill="#d6204b"></path></svg>