<?xml version="1.0" standalone="no"?><!DOCTYPE svg PUBLIC "-//W3C//DTD SVG 1.1//EN" "http://www.w3.org/Graphics/SVG/1.1/DTD/svg11.dtd"><svg t="1483587472239" class="icon" style="" viewBox="0 0 1024 1024" version="1.1" xmlns="http://www.w3.org/2000/svg" p-id="2754" xmlns:xlink="http://www.w3.org/1999/xlink" width="64" height="64"><defs><style type="text/css"></style></defs><path d="M905.472 447.744c-85.44-129.088-227.456-213.248-398.528-213.248-165.312 0-303.552 78.656-389.76 200.448L64 379.648c100.416-134.528 257.408-220.8 443.008-220.8 191.808 0 353.216 92.032 452.992 234.432L905.472 447.744zM507.584 348.032c139.456 0 256.832 66.88 329.472 170.24l-39.68 39.616c-62.144-93.76-165.376-154.88-289.792-154.88-120.256 0-220.8 57.088-283.456 145.536L185.408 508.352C258.432 410.688 372.608 348.032 507.584 348.032zM513.856 499.392c91.904 0 169.088 44.8 216.896 113.728l-39.104 39.488c-38.4-62.08-104.576-102.784-184.704-102.784-73.728 0-135.552 34.688-174.848 88.576l-30.528-32C349.696 541.248 424.896 499.392 513.856 499.392zM513.344 638.144c62.656 0 113.472 50.816 113.472 113.472S576 865.216 513.344 865.216s-113.472-50.88-113.472-113.536S450.624 638.144 513.344 638.144z" p-id="2755" fill="#ffffff"></path></svg>