<?xml version="1.0" standalone="no"?><!DOCTYPE svg PUBLIC "-//W3C//DTD SVG 1.1//EN" "http://www.w3.org/Graphics/SVG/1.1/DTD/svg11.dtd"><svg t="1492595701872" class="icon" style="" viewBox="0 0 1024 1024" version="1.1" xmlns="http://www.w3.org/2000/svg" p-id="19782" xmlns:xlink="http://www.w3.org/1999/xlink" width="32" height="32"><defs><style type="text/css"></style></defs><path d="M969.347926 491.246048 969.320254 491.218376 965.210971 496.047129 512.06918 57.018025 173.36468 57.018025 98.097014 57.018025C98.097014 25.610377 123.375328 0.13836 154.547764 0.13836L154.547764 0 511.93082 0 511.93082 0.166032C511.972328 0.166032 512.027672 0.13836 512.06918 0.13836 527.703824 0.13836 541.844183 6.558249 552.068964 16.893717L868.912633 322.281205C869.009485 322.101338 869.120173 321.92147 869.217025 321.755438L965.805918 414.843832C976.099878 425.137792 982.492096 439.416511 982.492096 455.189515 982.492096 468.956303 977.441967 481.408675 969.347926 491.246048ZM98.097014 113.75933 455.48007 113.75933 455.48007 113.925361C455.521578 113.925361 455.576922 113.911525 455.61843 113.911525 471.253074 113.911525 485.393433 120.317579 495.618214 130.666883L927.88153 547.281719C935.740359 555.029861 941.357762 565.060938 943.682205 576.323416 943.682205 576.351088 943.696041 576.37876 943.696041 576.406432 944.014268 577.983732 944.24948 579.588704 944.429347 581.193677 944.470855 581.498068 944.540035 581.788623 944.567707 582.079178 944.733739 583.697987 944.789083 585.330631 944.816754 586.977111 944.816754 587.295338 944.858262 587.59973 944.858262 587.917957 944.858262 601.961465 939.780462 614.801243 931.395865 624.721632L931.423537 624.749304 611.535955 1003.965518 611.508283 1003.937846C601.158979 1016.196514 585.74571 1024 568.51993 1024 566.679746 1024 564.867234 1023.903148 563.068558 1023.723281 561.781813 1023.598757 560.536576 1023.377381 559.277503 1023.169842 558.848588 1023.100662 558.405837 1023.059154 557.990758 1022.976138 547.876665 1021.052939 538.73109 1016.404054 531.301176 1009.818133L531.21816 1009.901148 60.795244 573.819106 61.002783 573.59773C49.44975 563.37295 42.033671 548.596136 41.756952 531.951466L41.507904 531.951466 41.507904 227.51866 41.507904 171.7182 41.507904 170.777354 41.646264 170.777354C41.646264 139.369707 66.924578 113.911525 98.097014 113.911525L98.097014 113.75933ZM524.00962 693.790785C527.274909 697.139089 530.42951 698.951601 533.459587 699.22832 536.489664 699.50504 541.097041 698.411998 547.281719 695.93536L581.152169 682.099392C588.111661 679.263019 592.53917 677.630374 594.434698 677.173787 596.330226 676.731036 597.783002 677.007756 598.765356 678.017781 599.415647 678.681908 599.692366 679.442886 599.581678 680.28688 599.47099 681.130874 598.862208 682.846534 597.741494 685.420024L577.790028 732.393136C576.074368 736.377895 575.45175 739.850723 575.908337 742.797784 576.364924 745.758681 577.997568 748.664235 580.806269 751.52828 582.909337 753.672855 584.943224 755.056452 586.907931 755.665234 588.858803 756.287853 591.210917 756.274017 593.978111 755.651398 597.672315 754.765897 601.657073 753.520659 605.89088 751.929523 610.124686 750.324551 623.102824 745.094555 644.825294 736.239535L690.567004 716.329577C695.852344 713.991298 699.463532 712.566194 701.386732 712.054263 703.309931 711.528496 705.468342 711.390136 707.834293 711.597676 711.431644 711.929739 714.046642 711.929739 715.679287 711.597676 717.325767 711.265613 718.833887 710.435455 720.23132 709.07953 723.399757 706.007945 723.93936 701.981678 721.8778 697.014566 720.411188 693.403378 717.408783 689.294095 712.870585 684.659046 705.911093 677.547358 700.279854 673.036833 695.990704 671.141305 691.71539 669.259614 688.131874 669.702365 685.253993 672.49723 681.93336 675.707175 681.601297 679.940981 684.230131 685.198649 685.57222 687.813647 685.281665 690.055074 683.358465 691.909093 681.919524 693.306526 679.29069 694.925334 675.471963 696.751682L662.037238 703.088556C657.166977 705.385326 653.735657 706.741251 651.715606 707.15633 649.695555 707.585245 648.145926 707.239346 647.066721 706.146305 646.084367 705.150115 645.752304 703.72501 646.056695 701.898662 646.361086 700.058479 647.606323 696.281259 649.764734 690.553168L654.551979 677.962438C656.655047 672.372706 658.550574 668.775355 660.238562 667.14271 661.331604 666.077341 662.978084 665.648426 665.150331 665.869801 668.982894 666.146521 671.431861 666.215701 672.511066 666.063505 673.576436 665.911309 674.710985 665.261019 675.900878 664.098797 677.298311 662.742873 678.086961 661.027213 678.280665 658.924145 678.474368 656.834914 678.045453 654.718011 676.980084 652.587272 673.797811 646.374922 667.709985 638.682124 658.730442 629.508877 640.785191 611.176219 628.734063 604.991542 622.590893 610.941008 619.809864 613.639022 619.187245 617.582273 620.736873 622.798433 621.636211 625.634806 621.26264 629.12147 619.602324 633.244589L616.599919 640.204081C616.198676 641.048075 615.811269 641.656857 615.437698 642.030428 615.105634 642.348656 614.524524 642.680719 613.722038 642.998946L602.639427 648.007567C595.38938 651.217511 590.865018 651.895474 589.03867 650.027618 588.291528 649.26664 588.014809 648.381138 588.222348 647.398784 588.416052 646.41643 589.356898 643.898284 591.017214 639.872017L595.057317 630.242183C599.498662 619.68534 602.929982 613.251615 605.323605 610.927172 606.665694 609.626591 608.076963 608.824105 609.543575 608.505878 612.449128 608.021619 614.233968 607.634212 614.925767 607.343656 615.617565 607.039265 616.516903 606.361303 617.623781 605.282097 621.179624 601.850777 621.746899 597.699986 619.353277 592.871234 616.807458 587.876449 611.356087 581.124497 602.985326 572.573868 586.631212 555.860019 575.064343 550.782219 568.298554 557.340468 565.323821 560.232185 564.396811 563.497473 565.531361 567.136333 566.486042 570.401621 566.914957 572.477017 566.80427 573.376355 566.693582 574.261857 565.794244 576.613971 564.078584 580.405026L522.155601 672.414214C519.914174 677.381327 518.917984 681.435266 519.180867 684.57603 519.457587 687.716795 521.062559 690.78838 524.00962 693.790785ZM389.620862 553.106661 449.087853 613.846561C453.944278 619.090393 457.583137 623.517903 459.990596 627.129091 461.388029 629.135306 462.536414 630.588083 463.421916 631.501257 464.501121 632.594298 465.663343 633.230753 466.90858 633.41062 468.167653 633.590488 470.146196 633.438292 472.858046 632.967869 478.323254 631.860992 483.926821 629.951628 489.696419 627.239778 495.466018 624.527929 499.796676 621.788407 502.674557 618.993541 505.317227 616.433887 506.866856 613.652858 507.337279 610.636617 507.793866 607.634212 507.046723 605.116065 505.082016 603.123686 503.407864 601.39419 501.553844 600.46718 499.547629 600.32882 497.527577 600.176625 494.469828 600.785407 490.388218 602.141332 483.290366 604.548791 477.050345 604.839346 471.654317 602.999162 466.244453 601.158979 460.04594 596.662289 453.031104 589.495257 448.492906 584.874044 445.532009 581.290528 444.148412 578.786218 442.75098 576.268072 442.598784 574.109661 443.664153 572.338657 444.480476 570.88588 446.528199 568.270882 449.807323 564.493663 453.072612 560.716444 455.839805 557.741711 458.095068 555.555628 461.789272 551.972112 464.708661 549.910553 466.853236 549.37095 468.983975 548.845183 471.100878 549.647669 473.217781 551.792244 478.682989 557.381975 479.05656 563.16541 474.338495 569.128712 472.014052 572.02043 470.741143 574.192677 470.519768 575.617781 470.284556 577.056722 470.962519 578.592515 472.553655 580.211323 475.127145 582.840157 478.364762 583.518119 482.266505 582.24521 489.405864 579.87926 496.752763 575.036671 504.334874 567.675936 508.181273 563.967896 511.529577 560.038481 514.379787 555.929199 517.229996 551.819916 518.848804 548.596136 519.263883 546.244021 519.775814 543.047912 519.084016 540.460586 517.160816 538.509715 515.846399 537.167626 514.269099 536.420484 512.428915 536.254452 510.727091 536.046913 509.177463 536.254452 507.807702 536.904743 506.424105 537.541197 504.168842 539.049318 501.055749 541.401432 498.662127 543.255452 496.600567 544.140954 494.884907 544.044102 493.155411 543.961086 491.301392 542.909553 489.35052 540.903337 485.365761 536.849399 483.262694 533.999189 483.027483 532.366545 482.778435 530.733901 484.106688 528.533982 486.98457 525.739116 494.276125 518.668937 498.869666 514.338279 500.765194 512.733306 502.660722 511.128334 504.431725 510.132144 506.105878 509.730901 509.232806 509.011431 513.494285 511.405053 518.86264 516.897933 526.07118 524.244832 530.706229 530.055938 532.781624 534.331253 534.857019 538.592731 535.313606 543.338468 534.151385 548.554628 533.348899 552.221159 533.058343 554.808485 533.279719 556.316606 533.487258 557.838562 534.37276 559.374355 535.908553 560.951655 538.14998 563.248426 540.820322 564.175436 543.905742 563.746521 546.991163 563.317606 550.09042 561.58811 553.217349 558.558033 559.402027 552.553223 563.137738 545.87045 564.424483 538.482043 565.240805 533.971517 564.424483 530.471017 562.003189 527.994379 561.435914 527.413268 560.52274 526.762978 559.249831 526.043508 555.112877 523.732901 551.22497 521.021051 547.558438 517.907958 543.905742 514.794866 538.440535 509.509526 531.14898 502.065775L495.106283 465.248264C489.862451 459.90758 486.112904 456.503932 483.857641 455.064991 482.031293 453.958114 480.066586 453.529199 477.977354 453.778246 475.888123 454.04113 474.075611 454.912796 472.539819 456.393244 469.717281 459.146602 469.219187 462.273531 471.073206 465.787867 472.318443 468.112309 473.037914 469.744953 473.217781 470.685799 473.383813 471.640481 473.231617 472.816538 472.733522 474.227807 470.13236 481.214971 459.575517 493.681178 441.049156 511.640265 428.762816 523.553033 418.219808 532.228185 409.433968 537.665721 407.289393 539.00781 405.421538 539.768788 403.830401 539.962492 402.239265 540.156195 400.426753 539.837968 398.406702 539.00781 395.431969 537.887096 393.356573 537.347494 392.16668 537.375166 390.990623 537.402837 389.703878 538.094636 388.306445 539.450561 386.341738 541.359924 385.470072 543.504499 385.705283 545.884286 385.926659 548.264072 387.241076 550.671531 389.620862 553.106661ZM271.489366 430.243264C273.274206 435.445588 277.314309 441.270531 283.62351 447.718092 297.597838 461.996811 307.933306 465.898554 314.602243 459.437157 317.148061 456.974355 317.63232 453.363167 316.096527 448.645102 315.003486 445.227618 315.307877 441.962329 317.037373 438.863073 318.753033 435.74998 322.959168 430.962735 329.628104 424.487502 337.735982 416.628672 343.215025 414.152034 346.065234 417.071423 347.988434 419.022294 349.053804 422.785678 349.261343 428.347737L352.623483 507.863046C352.789515 512.539603 353.093906 515.721875 353.522821 517.396028 353.951736 519.07018 354.892582 520.64748 356.345359 522.127929 359.665991 525.517741 364.287204 525.600757 370.195163 522.376976 374.968572 519.803486 381.554493 514.393622 389.952925 506.161221 396.137603 500.073395 401.035536 495.272315 404.646723 491.785651L428.112525 469.039319C436.981381 460.530199 443.636482 455.383218 448.063991 453.612215 449.392244 453.058776 450.568302 452.809728 451.550655 452.878908 452.546845 452.934252 454.054966 453.377003 456.088853 454.207161 461.180489 456.254884 465.275936 455.770626 468.402864 452.740549 472.138576 449.115525 472.539819 444.452804 469.578922 438.752385 467.738738 435.141197 463.283556 429.74517 456.213377 422.53663 450.748169 416.946899 446.680395 413.266532 443.996217 411.481692 437.46564 407.109526 432.194136 406.874314 428.167869 410.776057 426.535225 412.367194 425.566707 414.041346 425.289988 415.798514 424.999433 417.569518 425.31766 419.82478 426.230834 422.564302 427.365383 425.926442 427.185515 429.039535 425.677395 431.889745 424.169274 434.75379 420.392055 439.098284 414.345737 444.964734 409.018889 450.125551 405.144818 451.46764 402.709688 448.991001 401.270747 447.510553 400.371409 443.677989 400.02551 437.493312L396.483502 371.412728C396.262127 366.971382 395.598 363.595406 394.491123 361.270963 393.384245 358.946521 390.962951 355.874936 387.213404 352.056209 380.668991 345.373436 375.895582 340.876746 372.893177 338.579976 363.982813 331.855695 357.230861 330.734982 352.609647 335.203999 351.170707 336.601432 350.368221 338.206405 350.174517 340.018916 349.980813 341.831428 350.409728 344.321902 351.461262 347.490339 352.374436 350.229861 352.720335 352.49896 352.512796 354.297635 352.29142 356.082475 351.419754 358.240886 349.870126 360.759033 345.608647 367.690853 337.279395 377.140819 324.910039 389.150439 313.287826 400.399081 303.990055 408.617646 297.002892 413.806134 293.12882 416.642508 289.420781 417.583354 285.878773 416.642508 282.198406 415.646318 279.624916 415.217403 278.158303 415.341927 276.677854 415.452615 275.128226 416.310445 273.495582 417.887745 270.382489 420.917822 269.704526 425.027104 271.489366 430.243264ZM192.181597 341.430185C233.744845 341.430185 267.449264 307.476719 267.449264 265.581408 267.449264 223.699932 233.744845 189.746467 192.181597 189.746467 150.618349 189.746467 116.913931 223.699932 116.913931 265.581408 116.913931 307.476719 150.618349 341.430185 192.181597 341.430185Z" p-id="19783" fill="#cf4059"></path></svg>