<?xml version="1.0" standalone="no"?><!DOCTYPE svg PUBLIC "-//W3C//DTD SVG 1.1//EN" "http://www.w3.org/Graphics/SVG/1.1/DTD/svg11.dtd"><svg t="1491873640176" class="icon" style="" viewBox="0 0 1024 1024" version="1.1" xmlns="http://www.w3.org/2000/svg" p-id="3253" xmlns:xlink="http://www.w3.org/1999/xlink" width="32" height="32"><defs><style type="text/css"></style></defs><path d="M511.680728 848.775186m-40.567951 0a39.644 39.644 0 1 0 81.135902 0 39.644 39.644 0 1 0-81.135902 0Z" p-id="3254" fill="#d6204b"></path><path d="M581.774133 156.853397 437.495122 156.853397c-4.221138 0-7.674796-3.453658-7.674796-7.674796l0 0c0-4.221138 3.453658-7.674796 7.674796-7.674796L581.774133 141.503804c4.221138 0 7.674796 3.453658 7.674796 7.674796l0 0C589.447906 153.399739 585.994248 156.853397 581.774133 156.853397z" p-id="3255" fill="#d6204b"></path><path d="M456.102922 678.628018c-13.755282 0-24.905226-9.779737-24.905226-21.843494L431.197696 376.454908l-70.740134 44.102451c-11.210319 6.990205-26.759457 4.685719-34.728966-5.148253-7.969509-9.832949-5.341658-23.469528 5.869684-30.458709l110.076024-68.625984c7.596002-4.735861 17.570167-5.354961 25.851784-1.607614 8.281617 3.748371 13.484106 11.237949 13.484106 19.411095l0 322.656631C481.008148 668.848281 469.858204 678.628018 456.102922 678.628018z" p-id="3256" fill="#d6204b"></path><path d="M565.217039 312.284399c13.755282 0 24.905226 9.779737 24.905226 21.843494L590.122265 614.45751l70.740134-44.102451c11.210319-6.990205 26.759457-4.685719 34.728966 5.148253 7.969509 9.832949 5.341658 23.469528-5.869684 30.458709l-110.076024 68.625984c-7.596002 4.735861-17.570167 5.354961-25.851784 1.607614-8.281617-3.748371-13.484106-11.237949-13.484106-19.411095L540.309766 334.127893C540.310789 322.064137 551.461757 312.284399 565.217039 312.284399z" p-id="3257" fill="#d6204b"></path><path d="M736.030379 64.244186 289.379737 64.244186c-42.881646 0-77.769224 34.886555-77.769224 77.769224l0 737.849818c0 42.881646 34.886555 77.769224 77.769224 77.769224l446.650643 0c42.881646 0 77.768201-34.887578 77.768201-77.769224L813.798581 142.013411C813.798581 99.131765 778.912026 64.244186 736.030379 64.244186zM262.775822 198.292182 762.633271 198.292182l0 581.809949L262.775822 780.102131 262.775822 198.292182zM289.379737 115.409496l446.650643 0c14.669094 0 26.602891 11.93482 26.602891 26.603915l0 42.464137L262.775822 184.477548l0-42.464137C262.775822 127.344317 274.710642 115.409496 289.379737 115.409496zM736.030379 906.468167 289.379737 906.468167c-14.669094 0-26.603915-11.93482-26.603915-26.603915l0-85.948511L762.633271 793.915741l0 85.948511C762.633271 894.532323 750.69845 906.468167 736.030379 906.468167z" p-id="3258" fill="#d6204b"></path></svg>