<?xml version="1.0" standalone="no"?><!DOCTYPE svg PUBLIC "-//W3C//DTD SVG 1.1//EN" "http://www.w3.org/Graphics/SVG/1.1/DTD/svg11.dtd"><svg t="1492122566617" class="icon" style="" viewBox="0 0 1025 1024" version="1.1" xmlns="http://www.w3.org/2000/svg" p-id="3790" xmlns:xlink="http://www.w3.org/1999/xlink" width="32.03125" height="32"><defs><style type="text/css"></style></defs><path d="M725.32768 201.083871c-143.905032 70.011871-239.417806 64.429419-388.228129-1.139613-260.574968 0-409.979871 690.572387-215.056516 690.572387 164.467613 0 186.599226-201.926194 411.846194-201.926194 182.156387 0 289.06529 199.432258 410.574452 199.432258C1139.271422 887.973161 941.39168 201.083871 725.32768 201.083871zM338.784197 545.197419c-72.109419 0-130.593032-57.608258-130.593032-128.594581 0-70.903742 58.483613-128.561548 130.593032-128.561548s130.576516 57.64129 130.576516 128.561548C469.344197 487.572645 410.893616 545.197419 338.784197 545.197419zM665.754003 429.881806c-21.322323-6.540387-33.164387-28.903226-26.425806-49.911742 6.606452-20.925935 29.316129-32.602839 50.605419-26.029419 21.322323 6.507355 33.263484 28.804129 26.491871 49.779613C709.819035 424.877419 687.109358 436.422194 665.754003 429.881806zM870.719164 463.459097c-6.771613 21.008516-29.349161 32.635871-50.671484 26.095484-21.256258-6.523871-33.164387-28.870194-26.508387-50.010839 6.738581-20.992 29.48129-32.569806 50.638452-26.112C865.516584 420.104258 877.424713 442.384516 870.719164 463.459097zM818.676842 370.159484c-6.804645 21.041548-29.415226 32.652387-50.704516 26.161548-21.223226-6.540387-33.197419-28.903226-26.541419-49.994323 6.738581-21.008516 29.448258-32.602839 50.671484-26.145032C813.490777 326.87071 825.332842 349.117935 818.676842 370.159484zM764.388326 493.799226c-6.87071 21.058065-29.448258 32.668903-50.770581 26.128516-21.223226-6.540387-33.131355-28.853677-26.508387-49.96129 6.738581-20.958968 29.48129-32.619355 50.638452-26.145032C759.070132 450.460903 770.945229 472.724645 764.388326 493.799226zM404.782648 418.551742c0 36.64929-30.059355 66.312258-67.220645 66.312258-37.227355 0-67.28671-29.662968-67.28671-66.312258 0-36.533677 30.059355-66.229677 67.28671-66.229677C374.723293 352.322065 404.782648 382.018065 404.782648 418.551742z" p-id="3791" fill="#87c38f"></path></svg>