<?xml version="1.0" standalone="no"?><!DOCTYPE svg PUBLIC "-//W3C//DTD SVG 1.1//EN" "http://www.w3.org/Graphics/SVG/1.1/DTD/svg11.dtd"><svg t="1482239469979" class="icon" style="" viewBox="0 0 1024 1024" version="1.1" xmlns="http://www.w3.org/2000/svg" p-id="1534" xmlns:xlink="http://www.w3.org/1999/xlink" width="128" height="128"><defs><style type="text/css"></style></defs><path d="M1024 1023.854983C949.124343 1024.148531 629.789137 1023.479571 545.798307 1023.479571 208.686521 1023.479571 0 792.567645 0 510.569104 0 228.567054 229.0793 0 511.661428 0 794.25057 0 1023.329871 228.567054 1023.329871 510.569104 1023.329871 606.833962 987.655084 719.181945 934.079744 804.483798 855.210203 943.365669 1019.393294 919.325184 1024 1023.854983L1024 1023.854983 1024 1023.854983ZM292.381466 438.423087C252.033308 438.423087 219.288146 471.170588 219.288146 511.516407 219.288146 551.937075 252.033308 584.610895 292.381466 584.610895 332.728455 584.610895 365.474786 551.937075 365.474786 511.516407 365.474786 471.170588 332.728454 438.423087 292.381466 438.423087L292.381466 438.423087 292.381466 438.423087ZM511.662597 438.423087C471.315605 438.423087 438.569275 471.170588 438.569275 511.516407 438.569275 551.937075 471.316778 584.610895 511.662597 584.610895 552.016603 584.610895 584.762931 551.937075 584.762931 511.516407 584.762931 471.170588 552.01543 438.423087 511.662597 438.423087L511.662597 438.423087 511.662597 438.423087ZM730.949571 438.423087C690.601416 438.423087 657.856251 471.170588 657.856251 511.516407 657.856251 551.937075 690.602584 584.610895 730.949571 584.610895 771.297731 584.610895 804.042892 551.937075 804.042892 511.516407 804.042892 471.170588 771.297731 438.423087 730.949571 438.423087L730.949571 438.423087 730.949571 438.423087Z" p-id="1535" fill="#bfbfbf"></path></svg>