<?xml version="1.0" standalone="no"?><!DOCTYPE svg PUBLIC "-//W3C//DTD SVG 1.1//EN" "http://www.w3.org/Graphics/SVG/1.1/DTD/svg11.dtd"><svg t="1482227969301" class="icon" style="" viewBox="0 0 1026 1024" version="1.1" xmlns="http://www.w3.org/2000/svg" p-id="2116" xmlns:xlink="http://www.w3.org/1999/xlink" width="128.25" height="128"><defs><style type="text/css"></style></defs><path d="M513.296678 0c-282.684261 0-511.846446 229.162185-511.846446 511.846446 0 282.692792 229.162185 511.846446 511.846446 511.846446s511.846446-229.153654 511.846446-511.846446C1025.143124 229.162185 795.980939 0 513.296678 0zM513.296678 989.569796c-263.839781 0-477.72335-213.875037-477.72335-477.72335 0-263.839781 213.883568-477.72335 477.72335-477.72335s477.72335 213.883568 477.72335 477.72335C991.020027 775.694758 777.136459 989.569796 513.296678 989.569796z" p-id="2117" fill="#bfbfbf"></path><path d="M744.540371 486.595355 538.547769 486.595355 538.547769 280.594222c0-13.947816-11.303276-25.242561-25.251091-25.242561s-25.251091 11.294745-25.251091 25.242561l0 205.992602L282.044453 486.586824c-13.947816 0-25.242561 11.303276-25.242561 25.251091s11.294745 25.251091 25.242561 25.251091L488.045586 537.089007l0 205.992602c0 13.947816 11.303276 25.242561 25.251091 25.242561s25.251091-11.294745 25.251091-25.242561L538.547769 537.097537l205.992602 0c13.947816 0 25.242561-11.303276 25.242561-25.251091S758.488187 486.595355 744.540371 486.595355z" p-id="2118" fill="#bfbfbf"></path></svg>