<?xml version="1.0" standalone="no"?><!DOCTYPE svg PUBLIC "-//W3C//DTD SVG 1.1//EN" "http://www.w3.org/Graphics/SVG/1.1/DTD/svg11.dtd"><svg t="1484657203841" class="icon" style="" viewBox="0 0 1059 1024" version="1.1" xmlns="http://www.w3.org/2000/svg" p-id="1105" xmlns:xlink="http://www.w3.org/1999/xlink" width="132.375" height="128"><defs><style type="text/css"></style></defs><path d="M842.9568 239.104C896.750933 254.754133 937.3184 298.103467 957.218133 361.198933 960.0512 370.193067 955.067733 379.767467 946.0736 382.600533 944.366933 383.146667 942.6432 383.402667 940.936533 383.402667 933.6832 383.402667 926.958933 378.743467 924.672 371.473067 908.305067 319.607467 875.912533 284.245333 833.416533 271.889067 824.3712 269.2608 819.182933 259.7888 821.794133 250.7264 824.439467 241.681067 833.877333 236.4928 842.9568 239.104ZM1027.413333 544.699733C991.573333 676.539733 894.020267 773.9392 786.210133 788.343467 786.107733 793.685333 785.373867 798.993067 783.9744 804.1472 775.918933 833.7408 748.714667 853.316267 719.069867 853.316267 713.352533 853.333333 707.549867 852.599467 701.781333 851.080533 701.781333 851.080533 669.525333 842.564267 669.525333 842.564267 652.049067 837.9392 637.4912 826.845867 628.514133 811.3152 619.656533 795.989333 617.335467 778.154667 621.9776 761.122133 623.36 755.985067 625.408 751.0528 628.0192 746.410667 626.449067 745.216 624.861867 743.970133 623.274667 742.673067 615.936 736.750933 614.792533 726.016 620.6976 718.677333 626.6368 711.338667 637.3888 710.229333 644.693333 716.117333 650.496 720.7936 656.008533 724.770133 661.521067 728.234667 666.0096 731.050667 668.928 735.7952 669.44 741.0688 669.934933 746.325333 667.9552 751.547733 664.098133 755.1488 659.541333 759.415467 656.452267 764.433067 654.916267 770.065067 652.680533 778.257067 653.806933 786.858667 658.0736 794.248533 662.459733 801.8432 669.610667 807.287467 678.229333 809.557333 678.229333 809.557333 710.485333 818.0736 710.485333 818.0736 728.149333 822.6816 746.325333 812.458667 751.035733 795.1872 752.554667 789.572267 752.4352 783.735467 750.660267 777.847467 749.141333 772.8128 750.0288 767.351467 753.083733 763.050667 756.1216 758.766933 760.9856 756.1216 766.242133 755.882667 878.1312 750.933333 965.751467 641.399467 994.491733 535.7568 1017.2928 451.874133 1008.776533 363.4688 971.707733 299.264 945.681067 254.173867 906.5472 223.6416 858.555733 210.978133 844.612267 207.291733 830.395733 205.3632 815.086933 205.073067 805.666133 204.885333 798.173867 197.085867 798.3616 187.682133 798.532267 178.363733 806.144 170.922667 815.4112 170.922667 815.530667 170.922667 815.633067 170.922667 815.735467 170.922667 833.809067 171.281067 850.670933 173.585067 867.259733 177.9712 924.2624 193.024 970.5984 229.051733 1001.2672 282.197333 1042.7904 354.0992 1052.5696 452.232533 1027.413333 544.699733ZM612.283733 631.773867C613.700267 637.252267 614.434133 642.884267 614.434133 648.533333 614.434133 686.1824 583.816533 716.8 546.167467 716.8 546.167467 716.8 512.034133 716.8 512.034133 716.8 474.385067 716.8 443.767467 686.1824 443.767467 648.533333 443.767467 642.884267 444.501333 637.252267 445.917867 631.773867 343.296 589.021867 273.1008 465.732267 273.1008 324.266667 273.1008 164.864 368.861867 0 529.1008 0 689.339733 0 785.1008 164.864 785.1008 324.266667 785.1008 465.732267 714.9056 589.021867 612.283733 631.773867ZM529.1008 34.133333C390.229333 34.133333 307.234133 181.640533 307.234133 324.266667 307.234133 437.896533 364.407467 571.016533 473.6512 605.627733 478.651733 607.197867 482.6624 611.003733 484.488533 615.936 486.331733 620.8512 485.7856 626.346667 483.037867 630.818133 479.6416 636.381867 477.9008 642.338133 477.9008 648.533333 477.9008 667.357867 493.2096 682.666667 512.034133 682.666667 512.034133 682.666667 546.167467 682.666667 546.167467 682.666667 564.992 682.666667 580.3008 667.357867 580.3008 648.533333 580.3008 642.338133 578.56 636.381867 575.163733 630.818133 572.416 626.346667 571.869867 620.8512 573.713067 615.936 575.5392 611.003733 579.549867 607.197867 584.5504 605.627733 693.794133 571.016533 750.967467 437.896533 750.967467 324.266667 750.967467 181.640533 667.972267 34.133333 529.1008 34.133333ZM529.1008 102.4C482.423467 102.4 440.797867 129.9456 411.904 179.968 408.746667 185.4464 403.012267 188.501333 397.1072 188.501333 394.205867 188.501333 391.2704 187.767467 388.590933 186.197333 380.433067 181.504 377.634133 171.0592 382.344533 162.901333 417.5872 101.870933 469.7088 68.266667 529.1008 68.266667 538.5216 68.266667 546.167467 75.912533 546.167467 85.333333 546.167467 94.754133 538.5216 102.4 529.1008 102.4ZM131.054933 371.473067C128.750933 378.743467 122.026667 383.402667 114.7904 383.402667 113.083733 383.402667 111.36 383.146667 109.636267 382.600533 100.6592 379.767467 95.675733 370.193067 98.5088 361.198933 118.391467 298.103467 158.976 254.754133 212.770133 239.104 221.8496 236.509867 231.287467 241.681067 233.915733 250.7264 236.544 259.7888 231.338667 269.2608 222.293333 271.889067 179.8144 284.245333 147.4048 319.607467 131.054933 371.473067ZM243.114667 205.073067C227.805867 205.3632 213.589333 207.291733 199.645867 210.978133 151.6544 223.6416 112.520533 254.173867 86.493867 299.264 49.425067 363.4688 40.9088 451.874133 63.709867 535.7568 92.450133 641.399467 180.0704 750.933333 291.959467 755.882667 297.216 756.1216 302.08 758.766933 305.117867 763.050667 308.1728 767.351467 309.060267 772.8128 307.541333 777.847467 305.7664 783.735467 305.646933 789.572267 307.165867 795.1872 311.8592 812.458667 330.018133 822.749867 347.716267 818.0736 347.716267 818.0736 379.972267 809.557333 379.972267 809.557333 388.590933 807.287467 395.741867 801.8432 400.128 794.248533 404.394667 786.858667 405.521067 778.257067 403.285333 770.065067 401.7664 764.433067 398.660267 759.415467 394.103467 755.1488 390.2464 751.547733 388.266667 746.325333 388.7616 741.0688 389.2736 735.7952 392.192 731.050667 396.680533 728.234667 402.2272 724.736 407.739733 720.776533 413.4912 716.117333 420.829867 710.212267 431.581867 711.338667 437.486933 718.677333 443.426133 725.998933 442.282667 736.750933 434.944 742.673067 433.3568 743.970133 431.7696 745.216 430.199467 746.427733 432.7936 751.069867 434.8416 755.985067 436.224 761.122133 440.866133 778.154667 438.545067 795.989333 429.687467 811.3152 420.7104 826.845867 406.152533 837.9392 388.693333 842.564267 388.693333 842.564267 356.420267 851.080533 356.420267 851.080533 350.651733 852.599467 344.849067 853.316267 339.131733 853.316267 309.504 853.316267 282.299733 833.7408 274.2272 804.1472 272.827733 798.993067 272.093867 793.685333 272.008533 788.343467 164.181333 773.9392 66.628267 676.539733 30.788267 544.699733 5.632 452.232533 15.4112 354.0992 56.9344 282.197333 87.6032 229.051733 133.9392 193.024 190.9248 177.9712 207.530667 173.585067 224.392533 171.281067 242.466133 170.922667 251.5456 171.383467 259.669333 178.244267 259.857067 187.682133 260.027733 197.085867 252.535467 204.885333 243.114667 205.073067ZM336.418133 994.816C339.490133 998.058667 341.367467 1002.496 341.367467 1006.933333 341.367467 1011.370667 339.490133 1015.808 336.418133 1019.050667 333.175467 1022.122667 328.738133 1024 324.3008 1024 319.863467 1024 315.426133 1022.122667 312.183467 1019.050667 309.111467 1015.808 307.234133 1011.541333 307.234133 1006.933333 307.234133 1002.325333 309.111467 998.058667 312.183467 994.816 318.6688 988.501333 329.9328 988.501333 336.418133 994.816ZM334.711467 932.522667C341.7088 926.208 352.4608 926.549333 358.775467 933.546667 365.2608 940.544 364.7488 951.296 357.751467 957.781333 354.5088 960.682667 350.4128 962.218667 346.3168 962.218667 341.538133 962.218667 336.930133 960.341333 333.687467 956.586667 327.202133 949.572267 327.714133 938.837333 334.711467 932.522667ZM363.383467 875.349333C369.8688 869.034667 381.303467 869.034667 387.618133 875.349333 390.690133 878.592 392.567467 883.029333 392.567467 887.466667 392.567467 891.904 390.690133 896.341333 387.618133 899.584 384.375467 902.656 379.938133 904.533333 375.5008 904.533333 371.063467 904.533333 366.626133 902.656 363.383467 899.584 360.311467 896.341333 358.434133 891.904 358.434133 887.466667 358.434133 883.029333 360.311467 878.592 363.383467 875.349333ZM490.018133 994.816C493.090133 998.058667 494.967467 1002.496 494.967467 1006.933333 494.967467 1011.370667 493.090133 1015.808 490.018133 1019.050667 486.775467 1022.122667 482.338133 1024 477.9008 1024 473.463467 1024 469.026133 1022.122667 465.783467 1019.050667 462.711467 1015.808 460.834133 1011.541333 460.834133 1006.933333 460.834133 1002.325333 462.711467 998.058667 465.783467 994.816 472.2688 988.501333 483.5328 988.501333 490.018133 994.816ZM541.218133 755.882667C544.290133 759.125333 546.167467 763.562667 546.167467 768 546.167467 772.608 544.290133 776.874667 541.218133 780.117333 537.975467 783.172267 533.538133 785.066667 529.1008 785.066667 524.663467 785.066667 520.226133 783.172267 516.983467 780.117333 513.911467 776.874667 512.034133 772.608 512.034133 768 512.034133 763.562667 513.911467 759.125333 516.983467 755.882667 523.4688 749.568 534.7328 749.568 541.218133 755.882667ZM546.850133 955.733333C552.823467 963.072 551.799467 973.824 544.631467 979.797333 541.3888 982.357333 537.463467 983.722667 533.7088 983.722667 528.759467 983.722667 523.9808 981.504 520.567467 977.408 514.594133 970.069333 515.618133 959.317333 522.786133 953.344 530.1248 947.370667 540.8768 948.548267 546.850133 955.733333ZM556.2368 849.92C549.0688 849.92 542.4128 845.312 540.023467 838.144 537.122133 829.269333 542.071467 819.541333 550.946133 816.622933 559.991467 813.738667 569.5488 818.688 572.450133 827.733333 575.351467 836.608 570.402133 846.336 561.527467 849.237333 559.8208 849.749333 557.943467 849.92 556.2368 849.92ZM545.4848 902.144C546.338133 892.757333 554.7008 885.76 564.087467 886.613333 573.474133 887.466667 580.471467 895.658667 579.618133 905.045333 578.7648 913.92 571.426133 920.576 562.551467 920.576 562.039467 920.576 561.527467 920.576 561.015467 920.576 551.6288 919.7056 544.802133 911.530667 545.4848 902.144ZM694.818133 875.349333C697.890133 878.592 699.767467 883.029333 699.767467 887.466667 699.767467 891.904 697.890133 896.341333 694.818133 899.584 691.575467 902.656 687.138133 904.533333 682.7008 904.533333 678.263467 904.533333 673.826133 902.656 670.583467 899.584 667.511467 896.341333 665.634133 891.904 665.634133 887.466667 665.634133 883.029333 667.511467 878.592 670.583467 875.349333 677.0688 869.034667 688.503467 869.034667 694.818133 875.349333ZM676.386133 941.226667C684.578133 936.789333 694.9888 939.861333 699.426133 948.224 703.863467 956.586667 700.6208 966.826667 692.4288 971.264 689.8688 972.629333 687.138133 973.312 684.407467 973.312 678.263467 973.312 672.290133 970.069333 669.218133 964.266667 664.951467 956.074667 668.023467 945.664 676.386133 941.226667ZM746.018133 994.816C749.090133 998.058667 750.967467 1002.496 750.967467 1006.933333 750.967467 1011.370667 749.090133 1015.808 746.018133 1019.050667 742.775467 1022.122667 738.338133 1024 733.9008 1024 729.463467 1024 725.026133 1022.122667 721.783467 1019.050667 718.711467 1015.808 716.834133 1011.370667 716.834133 1006.933333 716.834133 1002.496 718.711467 998.058667 721.783467 994.816 728.098133 988.501333 739.5328 988.501333 746.018133 994.816Z" p-id="1106" fill="#e95745"></path></svg>