<?xml version="1.0" standalone="no"?><!DOCTYPE svg PUBLIC "-//W3C//DTD SVG 1.1//EN" "http://www.w3.org/Graphics/SVG/1.1/DTD/svg11.dtd"><svg t="1487665300716" class="icon" style="" viewBox="0 0 1024 1024" version="1.1" xmlns="http://www.w3.org/2000/svg" p-id="9910" xmlns:xlink="http://www.w3.org/1999/xlink" width="200" height="200"><defs><style type="text/css"></style></defs><path d="M611.84 70.314667c-32.597333 16.896-60.416 41.301333-86.528 67.413333-55.978667-62.464-136.021333-98.986667-221.013333-98.986667-163.498667 0-296.618667 133.12-296.618667 296.618667 0 58.368 16.896 114.688 48.981333 163.157333 0.853333 1.365333 2.048 2.730667 3.242667 3.925333L130.56 573.44c0 0 0 0 0 0l-22.357333 22.357333c-23.381333 23.381333-23.381333 61.781333 0 85.162667l0 0c23.381333 23.381333 61.781333 23.381333 85.162667 0l102.912-102.912c23.381333-23.381333 23.381333-61.781333 0-85.162667l0 0c-23.381333-23.381333-61.781333-23.381333-85.162667 0l-44.885333 44.885333c0 0 0 0 0 0L97.28 468.650667c-25.6-39.765333-39.253333-85.674667-39.253333-133.290667C58.026667 199.68 168.448 89.429333 304.128 89.429333c71.850667 0 139.434667 31.232 185.856 84.821333-3.072 3.242667-5.973333 6.314667-9.045333 9.557333C432.298667 234.666667 247.466667 422.570667 247.466667 422.570667s134.997333 189.269333 295.594667 28.501333l103.936-97.28c0 0 143.018667 139.434667 215.552 209.237333l35.669333 35.669333c6.485333 6.485333 10.24 15.36 10.24 24.746667 0 9.386667-3.584 18.090667-10.24 24.746667-6.485333 6.485333-15.36 10.24-24.746667 10.24-8.021333 0-15.701333-2.730667-21.845333-7.68-0.853333-1.024-1.706667-1.877333-2.730667-2.730667l-102.912-102.912c-9.898667-9.898667-25.941333-9.898667-35.669333 0 0 0 0 0.170667-0.170667 0.170667 0 0 0 0-0.170667 0.170667-9.898667 9.898667-9.898667 25.941333 0 35.669333l102.912 102.912c0.853333 0.853333 1.877333 1.877333 2.901333 2.730667 4.949333 6.144 7.509333 13.824 7.509333 21.845333 0 9.386667-3.584 18.090667-10.24 24.746667-6.485333 6.485333-15.36 10.24-24.746667 10.24-9.386667 0-18.090667-3.584-24.746667-10.24l-102.912-102.912c-9.898667-9.898667-25.941333-9.898667-35.669333 0-7.168 7.168-9.045333 17.408-5.973333 26.282667 0.682667 5.290667 3.072 10.410667 7.168 14.506667l101.376 101.376c9.045333 13.824 9.386667 37.034667-4.778667 51.029333-12.288 12.288-32.256 18.432-45.738667 9.216-0.170667-0.170667-0.341333-0.512-0.512-0.682667-0.682667-1.024-1.536-2.048-2.56-2.901333l-71.338667-71.338667c-9.898667-9.898667-25.941333-9.898667-35.669333 0-1.194667 1.194667-2.218667 2.389333-3.072 3.754667-23.552-19.456-58.88-18.090667-80.896 3.925333l-102.912 102.912c-23.381333 23.381333-23.381333 61.781333 0 85.162667l0 0c23.381333 23.381333 61.781333 23.381333 85.162667 0l42.496-42.496 38.912 38.912c16.725333 16.725333 38.570667 25.088 60.416 25.088 21.845333 0 43.861333-8.362667 60.416-25.088 16.725333-16.725333 25.429333-39.424 25.941333-62.464 2.389333 0 4.608-0.170667 6.997333-0.341333 21.504-2.218667 41.984-12.117333 57.856-27.989333 17.408-17.408 26.112-41.301333 25.941333-65.365333 1.365333 0 2.56 0.170667 3.925333 0.170667 21.845333 0 43.861333-8.362667 60.416-25.088 16.554667-16.554667 24.917333-38.229333 24.917333-59.904 22.698667-0.170667 44.032-9.045333 59.904-24.917333 33.28-33.28 33.28-87.552 0-121.002667l-21.674667-21.674667c32.256-29.696 61.610667-61.610667 82.261333-102.058667 13.824-27.136 23.04-56.490667 26.965333-86.698667C1050.453333 133.632 806.058667-30.549333 611.84 70.314667zM632.32 914.090667c-13.653333 13.653333-35.84 13.653333-49.493333 0l-38.912-38.912 24.746667-24.746667c10.581333-10.581333 16.384-24.405333 17.408-38.4l47.957333 47.957333c1.024 1.877333 2.389333 3.754667 4.096 5.290667 0.170667 0.170667 0.512 0.512 0.682667 0.682667C645.973333 879.957333 645.461333 900.949333 632.32 914.090667z" p-id="9911" fill="#42bd56"></path><path d="M387.072 669.013333c23.381333-23.381333 23.381333-61.781333 0-85.162667l0 0c-23.381333-23.381333-61.781333-23.381333-85.162667 0l-102.912 102.912c-23.381333 23.381333-23.381333 61.781333 0 85.162667l0 0c23.381333 23.381333 61.781333 23.381333 85.162667 0L387.072 669.013333z" p-id="9912" fill="#42bd56"></path><path d="M477.354667 759.125333c23.381333-23.381333 23.381333-61.781333 0-85.162667l0 0c-23.381333-23.381333-61.781333-23.381333-85.162667 0l-102.912 102.912c-23.381333 23.381333-23.381333 61.781333 0 85.162667l0 0c23.381333 23.381333 61.781333 23.381333 85.162667 0L477.354667 759.125333z" p-id="9913" fill="#42bd56"></path></svg>