<?xml version="1.0" standalone="no"?><!DOCTYPE svg PUBLIC "-//W3C//DTD SVG 1.1//EN" "http://www.w3.org/Graphics/SVG/1.1/DTD/svg11.dtd"><svg class="icon" style="" viewBox="0 0 1024 1024" version="1.1" xmlns="http://www.w3.org/2000/svg" p-id="4327" xmlns:xlink="http://www.w3.org/1999/xlink" width="200" height="200"><defs><style type="text/css"><![CDATA[

]]></style></defs><path d="M790.224676 956.670545 236.045017 956.670545c-39.924291 0-72.28328-32.380478-72.28328-72.28328L163.761738 137.453558c0-39.903825 32.360012-72.28328 72.28328-72.28328l554.179658 0c39.924291 0 72.285327 32.379455 72.285327 72.28328l0 746.933707C862.508979 924.290067 830.147944 956.670545 790.224676 956.670545L790.224676 956.670545zM805.991778 171.20629c0-25.865087-20.99415-46.853098-46.859237-46.853098L267.13306 124.353193c-25.864064 0-46.853098 20.98801-46.853098 46.853098l0 679.429267c0 25.864064 20.989033 46.858214 46.853098 46.858214l491.99948 0c25.865087 0 46.859237-20.99415 46.859237-46.858214L805.991778 171.20629 805.991778 171.20629zM597.466534 819.255873l-168.661328 0c-13.323447 0-24.097838-10.770298-24.097838-24.099884 0-13.322423 10.775414-24.092721 24.097838-24.092721l168.661328 0c13.323447 0 24.092721 10.770298 24.092721 24.092721C621.559255 808.485575 610.788957 819.255873 597.466534 819.255873L597.466534 819.255873zM597.466534 819.255873" p-id="4328" fill="#13227a"></path></svg>