<?xml version="1.0" encoding="utf-8"?>
<!-- Generator: Adobe Illustrator 16.0.0, SVG Export Plug-In . SVG Version: 6.00 Build 0)  -->
<!DOCTYPE svg PUBLIC "-//W3C//DTD SVG 1.1//EN" "http://www.w3.org/Graphics/SVG/1.1/DTD/svg11.dtd">
<svg version="1.1" id="图层_1" xmlns="http://www.w3.org/2000/svg" xmlns:xlink="http://www.w3.org/1999/xlink" x="0px" y="0px"
	 width="566.929px" height="566.929px" viewBox="0 0 566.929 566.929" enable-background="new 0 0 566.929 566.929"
	 xml:space="preserve">
<path fill-rule="evenodd" clip-rule="evenodd" fill="#00A29A" d="M208.109,5.188h153.154c111.604,0,202.915,91.313,202.915,202.914
	v153.163c0,111.601-91.312,202.914-202.915,202.914H208.109c-111.604,0-202.914-91.313-202.914-202.914V208.102
	C5.195,96.501,96.506,5.188,208.109,5.188z"/>
<linearGradient id="SVGID_1_" gradientUnits="userSpaceOnUse" x1="348.1748" y1="218.0664" x2="298.2337" y2="59.7622">
	<stop  offset="0" style="stop-color:#00908C"/>
	<stop  offset="1" style="stop-color:#00A29A"/>
</linearGradient>
<path fill-rule="evenodd" clip-rule="evenodd" fill="url(#SVGID_1_)" d="M363.25,5.188h-26.84L229.424,136.167l-87.142,28.201
	l-10.509,99.65l31.554,65.996l51.268,53.897l72.071,19.024l-2.909,29.487l145.317-40.136l135.104-212.135
	C550.453,81.655,465.366,5.188,363.25,5.188z"/>
<g id="Group-11-Copy-3_1_" transform="translate(687.000000, 262.000000)">
	<path id="Path-8_2_" fill="#FFFFFF" d="M-487.258-132.02c-55.566,0-87.143,37.685-87.34,93.203
		c-0.174,49.74,24.808,106.81,65.415,146.587c42.681,41.795,99.743,68.698,151.016,69.594c59.568,1.051,105.327-32.132,124.5-97.066
		c13.762-46.65-12.802-88.613-57.559-118.038c-14.39-9.454-27.593-12.583-55.024-15.748c-0.664-0.066-0.664-0.066-1.303-0.147
		c-24.147-2.773-33.822-5.039-42.907-11.224c-12.314-8.393-21.675-16.572-30.024-25.628c-4.238-4.617-15.993-18.987-18.033-21.249
		C-451.368-125.962-464.716-132.02-487.258-132.02z M-487.258-103.218c14.008,0,19.383,2.436,26.725,10.569
		c1.371,1.514,13.236,16.019,18.21,21.427c9.82,10.672,20.861,20.323,35.073,30.001c14.48,9.861,27.268,12.851,56.27,16.19
		c0.656,0.073,0.656,0.073,1.304,0.147c22.851,2.63,32.868,5.003,42.074,11.045c35.364,23.248,55.061,54.392,45.696,86.138
		c-15.487,52.448-49.455,77.092-95.724,76.279c-43.117-0.762-93.156-24.357-130.75-61.176
		c-35.177-34.443-56.955-84.197-56.802-126.116C-545.049-79.506-525.172-103.218-487.258-103.218z"/>
	<path id="Path-15_2_" fill="#FFFFFF" d="M-447.306-21.48c1.082,1.996,2.935,4.862,5.639,8.218
		c4.345,5.388,9.658,10.475,16.05,14.861c15.209,10.446,33.928,15.177,55.688,12.013c8.066-1.17,13.613-8.76,12.381-16.944
		c-1.235-8.189-8.748-13.88-16.81-12.702c-14.29,2.078-25.622-0.791-34.864-7.128c-3.838-2.639-7.072-5.718-9.646-8.934
		c-0.876-1.091-1.604-2.102-2.173-2.971c-0.267-0.425-0.4-0.631-0.369-0.578c-3.912-7.294-12.895-10.03-20.032-6.114
		C-448.6-37.853-451.219-28.767-447.306-21.48z"/>
</g>
<g>
	<linearGradient id="SVGID_2_" gradientUnits="userSpaceOnUse" x1="283.7568" y1="313.4805" x2="456.9736" y2="313.4805">
		<stop  offset="0" style="stop-color:#C9CACA"/>
		<stop  offset="1" style="stop-color:#F7F8F8"/>
	</linearGradient>
	<path fill="url(#SVGID_2_)" d="M395.774,224.26c-14.39-9.454-27.593-12.583-55.024-15.748c-0.664-0.066-0.664-0.066-1.303-0.147
		c-24.147-2.773-33.822-5.039-42.907-11.224c-4.687-3.196-8.848-6.37-12.783-9.567v35.723c12.986,7.848,25.955,10.647,52.263,13.674
		c0.656,0.073,0.656,0.073,1.304,0.147c22.851,2.63,32.868,5.003,42.074,11.045c35.364,23.248,55.061,54.392,45.696,86.138
		c-15.487,52.448-49.455,77.092-95.724,76.279c-14.667-0.257-30.114-3.217-45.613-8.374v30.161
		c15.18,4.279,30.371,6.742,45.076,6.998c59.568,1.051,105.327-32.132,124.5-97.066C467.095,295.647,440.531,253.685,395.774,224.26
		z"/>
	<linearGradient id="SVGID_3_" gradientUnits="userSpaceOnUse" x1="283.7568" y1="259.3984" x2="329.6221" y2="259.3984">
		<stop  offset="0" style="stop-color:#C9CACA"/>
		<stop  offset="1" style="stop-color:#F7F8F8"/>
	</linearGradient>
	<path fill-rule="evenodd" clip-rule="evenodd" fill="url(#SVGID_3_)" d="M312.642,245.965c-11.36,1.65-20.828,0.139-28.885-3.726
		v31.636c10.122,2.739,21.229,3.495,33.313,1.736c8.066-1.17,13.613-8.76,12.381-16.944
		C328.216,250.478,320.703,244.787,312.642,245.965z"/>
</g>
</svg>
