<?xml version="1.0" standalone="no"?><!DOCTYPE svg PUBLIC "-//W3C//DTD SVG 1.1//EN" "http://www.w3.org/Graphics/SVG/1.1/DTD/svg11.dtd"><svg t="1491968001056" class="icon" style="" viewBox="0 0 1024 1024" version="1.1" xmlns="http://www.w3.org/2000/svg" p-id="2785" xmlns:xlink="http://www.w3.org/1999/xlink" width="500" height="500"><defs><style type="text/css"></style></defs><path d="M1024 512c0 282.769408-229.230592 512-512 512S0 794.769408 0 512 229.230592 0 512 0 1024 229.230592 1024 512zM762.16832 481.83808c9.357312-16.19968 19.439616-31.497216 30.239744-45.899776-102.24128-38.880256-184.503296-99.900416-246.779904-183.06048l10.26048-13.500416-57.780224 0c-64.082944 86.762496-147.782656 156.60032-251.10016 209.519616 11.158528 13.323264 21.059584 26.46016 29.700096 39.419904C366.348288 436.477952 447.167488 368.079872 519.168 283.117568 576.766976 364.839936 657.767424 431.0784 762.16832 481.83808zM571.547648 636.27776c19.79904 19.803136 37.977088 38.163456 54.540288 55.079936-72.359936 3.598336-148.323328 7.37792-227.879936 11.339776 34.919424-35.997696 70.739968-77.21984 107.459584-123.660288l261.359616 0 0-39.959552L271.307776 539.077632l0 39.959552 179.81952 0c-29.160448 41.039872-59.400192 76.862464-90.720256 107.459584-12.242944 10.800128-27.181056 19.439616-44.82048 25.920512l24.29952 44.82048c15.478784-6.479872 30.780416-10.441728 45.899776-11.880448 93.596672-6.843392 185.220096-12.959744 274.860032-18.36032 15.120384 16.19968 28.438528 30.956544 39.959552 44.279808l35.099648-31.320064c-37.799936-40.682496-82.80064-84.240384-135.000064-130.679808L571.547648 636.27776zM369.047552 467.798016l298.080256 0 0-39.959552L369.047552 427.838464 369.047552 467.798016z" p-id="2786" fill="#f8b62a"></path></svg>