<?xml version="1.0" standalone="no"?><!DOCTYPE svg PUBLIC "-//W3C//DTD SVG 1.1//EN" "http://www.w3.org/Graphics/SVG/1.1/DTD/svg11.dtd"><svg class="icon" style="" viewBox="0 0 1024 1024" version="1.1" xmlns="http://www.w3.org/2000/svg" p-id="6045" xmlns:xlink="http://www.w3.org/1999/xlink" width="200" height="200"><defs><style type="text/css"><![CDATA[

]]></style></defs><path d="M215.322315 791.274716 215.322315 791.274716c10.57503 6.981866 21.15026 11.636311 34.369098 11.636311 29.081483 0 52.87555-20.945599 52.87555-46.545642 0-16.290955-10.57503-30.254487-23.794068-39.563576-81.957233-60.509175-134.832783-148.945815-134.832783-251.346187 0-179.200502 166.558074-325.818895 370.128853-325.818895s370.129053 146.618593 370.129053 325.818895c0 100.072951-52.87555 190.836813-134.832584 251.346187-13.218838 9.309088-23.794068 23.272821-23.794068 39.563576 0 25.600043 23.794068 46.545442 52.87555 46.545442 13.218838 0 26.437875-4.654644 34.369098-11.636311l0 0c108.394908-76.80013 177.133104-193.164235 177.133104-325.819095 0-216.436856-185.064326-393.310136-423.004403-416.582957l-0.0002-2.327222C566.944715 20.945599 543.150648 0 514.068965 0c-29.081483 0-52.87555 20.945599-52.87555 46.545642l0 2.327222C223.253538 72.145685 38.189012 249.018765 38.189012 465.455821 38.189012 595.783259 106.927207 714.474586 215.322315 791.274716zM804.884792 930.911442 566.944715 930.911442 566.944715 512.001263l26.437675 0c29.081483 0 52.87555-20.945599 52.87555-46.545642s-23.794068-46.545442-52.87555-46.545442l-158.626651 0c-29.081683 0-52.87555 20.945399-52.87555 46.545442s23.794068 46.545642 52.87555 46.545642l26.437875 0 0 418.910179L223.253538 930.911442c-29.081483 0-52.87555 20.945599-52.87555 46.545642s23.794068 46.545442 52.87555 46.545442l581.631054 0c29.081483 0 52.87555-20.945399 52.87555-46.545442C857.760143 951.857041 833.966275 930.911442 804.884792 930.911442z" p-id="6046" fill="#13227a"></path></svg>