<?xml version="1.0" standalone="no"?><!DOCTYPE svg PUBLIC "-//W3C//DTD SVG 1.1//EN" "http://www.w3.org/Graphics/SVG/1.1/DTD/svg11.dtd"><svg class="icon" style="" viewBox="0 0 1024 1024" version="1.1" xmlns="http://www.w3.org/2000/svg" p-id="6998" xmlns:xlink="http://www.w3.org/1999/xlink" width="200" height="200"><defs><style type="text/css"><![CDATA[

]]></style></defs><path d="M706.624 1019.2 564.416 621.568 418.56 759.488l24.32 176.96-74.176 75.52-120.448-194.56-210.112-143.232L111.36 599.104l185.6 36.544 137.344-152.768L33.216 334.272l120-122.24 444.736 86.336 143.936-144c78.4-79.296 153.664-94.208 199.488-47.488 18.112 18.368 68.736 87.552-44.992 203.392l-145.344 145.28 76.288 440.704L706.624 1019.2zM591.68 507.712l140.8 393.728 26.112-26.56-76.416-441.152 168.704-168.512c48.128-49.024 65.344-92.544 44.8-113.408-5.376-5.44-11.136-7.872-18.752-7.872-10.496 0-40.192 5.376-89.728 55.552L619.136 367.744 174.72 281.408 148.032 308.608l396.8 147.072-224.576 249.792-172.224-33.92 151.104 106.368 73.728 119.04-22.208-161.344L591.68 507.712z" p-id="6999" fill="#d81e06"></path></svg>