<?xml version="1.0" standalone="no"?><!DOCTYPE svg PUBLIC "-//W3C//DTD SVG 1.1//EN" "http://www.w3.org/Graphics/SVG/1.1/DTD/svg11.dtd"><svg t="1484910500177" class="icon" style="" viewBox="0 0 1024 1024" version="1.1" xmlns="http://www.w3.org/2000/svg" p-id="2717" xmlns:xlink="http://www.w3.org/1999/xlink" width="128" height="128"><defs><style type="text/css"></style></defs><path d="M512 602.88C461.888 602.88 421.12 562.112 421.12 512S461.888 421.12 512 421.12 602.88 461.888 602.88 512 562.112 602.88 512 602.88L512 602.88zM512 442.88C473.856 442.88 442.88 473.856 442.88 512S473.856 581.12 512 581.12 581.12 550.144 581.12 512 550.144 442.88 512 442.88L512 442.88z" p-id="2718" fill="#666666"></path><path d="M512 842.88c-267.776 0-480.128-311.552-489.024-324.8-2.496-3.648-2.496-8.448 0-12.096C31.872 492.672 244.224 181.12 512 181.12c267.84 0 480.128 311.552 489.088 324.8 2.432 3.648 2.432 8.448 0 12.096C992.128 531.328 779.84 842.88 512 842.88L512 842.88zM45.312 512C76.544 555.84 275.84 821.12 512 821.12c236.16 0 435.456-265.344 466.688-309.12C947.456 468.16 748.16 202.88 512 202.88 275.84 202.88 76.544 468.16 45.312 512L45.312 512zM512 722.88c-116.288 0-210.88-94.656-210.88-210.88 0-116.288 94.592-210.88 210.88-210.88 116.224 0 210.88 94.592 210.88 210.88C722.88 628.224 628.224 722.88 512 722.88L512 722.88zM512 322.88C407.744 322.88 322.88 407.744 322.88 512c0 104.256 84.864 189.12 189.12 189.12 104.256 0 189.12-84.864 189.12-189.12C701.12 407.744 616.256 322.88 512 322.88L512 322.88z" p-id="2719" fill="#666666"></path></svg>