<?xml version="1.0" standalone="no"?><!DOCTYPE svg PUBLIC "-//W3C//DTD SVG 1.1//EN" "http://www.w3.org/Graphics/SVG/1.1/DTD/svg11.dtd"><svg t="1487841340379" class="icon" style="" viewBox="0 0 1024 1024" version="1.1" xmlns="http://www.w3.org/2000/svg" p-id="7132" xmlns:xlink="http://www.w3.org/1999/xlink" width="48" height="48"><defs><style type="text/css"></style></defs><path d="M888.68771 800.203958c-19.09387-56.55711-198.076264-119.000278-194.173374-117.021204-59.256592-29.266557-88.815815-87.805812-88.815815-117.071346s88.815815-87.75567 88.815815-204.828039c0-117.02325-29.65439-234.047524-177.777963-234.047524-3.564175 0-6.458085 0.385786-9.7869 0.531096-3.421936-0.145309-6.415107-0.531096-9.933233-0.531096-148.170644 0-177.778986 117.02325-177.778986 234.047524 0 117.072369 88.963171 175.561481 88.963171 204.828039s-29.701462 87.805812-88.963171 117.071346c3.957125-1.979074-175.027315 60.465117-194.170305 117.021204-29.653367 87.75567 0 117.025297 0 117.025297l332.508 0 98.749048 0 332.363713 0C888.68771 917.229255 918.340053 887.958604 888.68771 800.203958z" p-id="7133" fill="#87a7d6"></path></svg>