<?xml version="1.0" standalone="no"?><!DOCTYPE svg PUBLIC "-//W3C//DTD SVG 1.1//EN" "http://www.w3.org/Graphics/SVG/1.1/DTD/svg11.dtd"><svg t="1481196904938" class="icon" style="" viewBox="0 0 1024 1024" version="1.1" xmlns="http://www.w3.org/2000/svg" p-id="2377" xmlns:xlink="http://www.w3.org/1999/xlink" width="200" height="200"><defs><style type="text/css"></style></defs><path d="M959.118294 67.051115 64.770166 67.051115c-35.743062 0-64.745606 29.003568-64.745606 64.745606l0 615.390765c0 35.626405 29.114085 64.74049 64.745606 64.74049l48.662303 0c2.936889 9.127891 8.368598 18.140149 16.405645 26.508747 1.956561 2.061962 4.560876 3.580548 7.27673 4.234441 81.146135 20.966521 101.241822 47.143717 106.025779 60.833507 5.320169 15.208377-3.475148 27.373441-4.018523 28.132734-5.215792 6.739495-4.02364 16.405645 2.605338 21.620413 6.734378 5.320169 16.405645 4.234441 21.836331-2.499937 7.382131-9.344832 17.596773-31.719422 9.233292-56.703443-11.517311-34.328853-53.012378-61.270459-123.295094-80.169901-5.869684-6.950296-7.604188-12.70844-7.604188-17.270339l0-0.110517c0-6.191003 3.906983-12.492522 10.968819-17.812691 0.215918-0.110517 0.437975-0.327458 0.653893-0.437975 2.061962-1.518586 4.234441-2.931772 6.734378-4.234441 0.543376-0.327458 1.197268-0.653893 1.740644-0.86981 2.931772-1.518586 6.40692-2.605338 9.776667-3.802606 5.431709-1.302669 15.09786-3.042289 30.632671-3.042289 27.157523 0 58.876945 5.326309 94.070492 15.751752 5.869684 2.610454 11.843746 5.215792 17.708314 8.363482 1.845021 0.981351 3.585665 1.956561 5.431709 3.043313 7.498788 4.239558 14.992459 8.801457 22.485107 14.016225 0.653893 0.432859 1.307785 0.759293 1.956561 1.192152 118.622678 83.318614 105.371886 125.362172 105.482403 125.362172l0 0c-4.018523 7.604188-1.086751 16.942881 6.40692 20.961404 2.282996 1.197268 4.782933 1.851161 7.27673 1.851161 5.542226 0 10.973936-3.042289 13.68979-8.258081 4.888334-9.233292 21.071921-55.728232-77.343529-136.441509l274.507004 0c-98.31005 80.607876-82.126462 126.992299-77.238129 136.225591 2.826372 5.321192 8.473999 8.579399 14.233166 8.579399 2.282996 0 4.672416-0.543376 6.950296-1.734504 7.604188-4.02364 10.646478-12.930497 6.628978-20.534685-0.110517-0.431835-14.121626-42.4713 105.154945-126.116349 8.363482-5.869684 16.511046-10.863419 24.769127-15.429411 1.518586-0.864694 3.037173-1.734504 4.450359-2.493797 6.191003-3.25923 12.276604-6.085602 18.467607-8.801457 35.199687-10.320043 66.807568-15.640212 93.859691-15.640212 15.529695 0 25.200962 1.734504 30.522154 3.037173 3.369747 1.197268 6.955412 2.394537 9.887184 3.913123 0.543376 0.326435 1.086751 0.543376 1.629103 0.759293 2.605338 1.413186 5.104251 2.931772 7.166213 4.456498l0.326435 0.215918c7.060813 5.431709 10.973936 11.622712 11.079336 17.924231 0 0.110517 0.110517 0.110517 0.110517 0.215918-0.110517 4.561899-1.846044 10.320043-7.604188 17.164938-70.282716 18.899442-111.778806 45.841048-123.295094 80.169901-8.363482 25.090445 1.846044 47.470151 9.233292 56.703443 5.321192 6.734378 15.09786 7.820106 21.837354 2.499937 6.734378-5.326309 7.820106-15.102976 2.493797-21.725814-0.105401-0.110517-9.233292-12.276604-4.018523-27.595498 4.561899-13.795191 24.552186-40.08188 106.131179-61.265342 2.826372-0.759293 5.326309-2.172479 7.28287-4.234441 8.147564-8.473999 13.579273-17.491373 16.511046-26.614148 34.977629-0.76441 63.332421-29.330002 63.332421-64.635089L1023.977487 131.796722C1023.864924 96.05366 994.861356 67.051115 959.118294 67.051115L959.118294 67.051115 959.118294 67.051115zM164.710342 364.698143l138.065496 0c5.869684 20.528546 15.751752 72.671113-7.604188 138.392954l-1.629103 4.567016c-11.295254 31.502481-25.416879 70.715575 5.869684 151.644769 19.11536 49.426713 7.382131 77.565587-0.653893 89.514733l-0.110517 0c-1.408069-0.543376-2.715855-1.086751-4.123924-1.629103-18.578124-6.955412-36.390815-11.405771-53.339836-13.68979-1.413186-0.215918-2.931772-0.431835-4.344958-0.543376-7.930623-0.86981-15.640212-1.413186-23.028483-1.413186-1.629103 0-3.25923 0.110517-4.998851 0.110517-6.191003 0.105401-12.165064 0.543376-17.924231 1.302669-1.518586 0.215918-3.042289 0.327458-4.560876 0.543376-1.197268 0.215918-2.282996 0.543376-3.475148 0.653893 5.431709-25.638937 9.017374-63.659879-7.820106-89.076758-18.145266-27.379581-22.379707-111.673405-0.327458-175.221744C184.263677 442.584024 172.856883 393.052934 164.710342 364.698143L164.710342 364.698143 164.710342 364.698143zM774.557858 659.412374c31.286564-81.040734 17.164938-120.252805 5.863545-151.755286l-1.629103-4.455475c-23.354917-65.832358-13.357216-117.974925-7.493671-138.392954l137.960095 0c-8.147564 28.244274-19.553335 77.776388-9.992585 105.260345 21.942755 63.659879 17.812691 147.953703-0.327458 175.221744-16.947997 25.416879-13.251815 63.437821-7.931646 89.076758-1.191128-0.215918-2.27788-0.543376-3.585665-0.653893-0.975211-0.105401-2.061962-0.215918-3.14769-0.327458-6.40692-0.864694-13.146415-1.302669-20.207227-1.518586-0.975211 0-1.846044-0.110517-2.715855-0.110517-25.960255-0.105401-55.290257 4.998851-86.139869 17.275455C767.169587 737.083361 755.331981 708.839087 774.557858 659.412374L774.557858 659.412374 774.557858 659.412374zM992.794277 747.187487c0 18.140149-14.443967 32.910551-32.367175 33.67496-2.067079-5.975085-5.326309-11.733229-9.998725-17.059538-0.648776-0.759293-1.408069-1.408069-2.061962-2.061962-0.215918-0.326435-0.543376-0.543376-0.759293-0.759293-2.282996-2.388397-4.888334-4.560876-7.714705-6.734378-0.86981-0.653893-1.846044-1.413186-2.715855-2.067079-2.172479-1.518586-4.561899-3.042289-7.060813-4.450359-1.086751-0.653893-1.956561-1.307785-3.042289-1.956561-0.321318-0.215918-0.759293-0.326435-1.086751-0.437975 0 0-0.105401 0-0.105401-0.105401-5.869684-19.880793-14.665001-62.678528-1.086751-82.997296 25.854854-38.885636 27.589358-133.615137 3.801583-202.595184-6.412037-18.571984 3.585665-64.307631 13.035898-95.051843l6.080485 0c8.585539 0 15.534811-6.950296 15.534811-15.529695 0-8.584516-6.950296-15.534811-15.534811-15.534811l-17.380856 0L760.003374 333.521073l-13.362332 0c-8.584516 0-15.534811 6.950296-15.534811 15.534811 0 5.975085 3.475148 11.079336 8.473999 13.684674-6.955412 27.595498-14.449084 82.231863 9.882068 150.669558l1.629103 4.672416c10.104125 28.027333 21.509896 59.746756-5.53711 129.924071-22.053272 56.920384-10.535961 93.965092 1.191128 113.845884-10.320043 5.431709-20.745487 11.728112-31.281447 18.899442l0 0L358.614587 780.75193c-0.981351-0.653893-1.956561-1.197268-3.043313-1.846044-8.473999-5.758144-17.053398-10.863419-25.423019-15.424294-0.975211-0.543376-2.061962-1.197268-3.14769-1.851161 11.733229-19.874653 23.2444-56.920384 1.197268-113.734344-27.157523-70.066799-15.751752-101.785198-5.652743-129.813554l1.740644-4.777817c24.331151-68.436672 16.83748-122.968659 9.887184-150.669558 4.993734-2.610454 8.579399-7.604188 8.579399-13.68979 0-8.579399-6.950296-15.534811-15.534811-15.534811l-13.251815 0L143.743822 333.410556l-17.380856 0c-8.585539 0-15.534811 6.955412-15.534811 15.534811 0 8.579399 6.950296 15.535835 15.534811 15.535835l6.080485 0c9.455349 30.848589 19.447934 76.473719 13.035898 95.051843-23.460318 67.677379-21.615297 164.247808 3.801583 202.595184 13.473873 20.202111 4.782933 63.111386-1.085728 82.991156-0.321318 0.215918-0.864694 0.327458-1.192152 0.543376-1.197268 0.653893-2.282996 1.413186-3.369747 2.067079-2.27788 1.302669-4.560876 2.715855-6.622838 4.123924-0.980327 0.76441-2.067079 1.413186-3.042289 2.172479-2.715855 2.067079-5.215792 4.239558-7.388271 6.517437l-0.975211 0.981351c-0.653893 0.648776-1.413186 1.302669-2.067079 1.956561-1.846044 2.172479-3.364631 4.561899-4.888334 6.839779 0 0.110517-0.105401 0.110517-0.105401 0.222057-2.067079 3.25923-3.801583 6.622838-4.998851 10.097986L64.875566 780.641413c-18.571984 0-33.67496-15.09786-33.67496-33.67496L31.200606 131.574664c0-18.573008 15.102976-33.67496 33.67496-33.67496l894.353245 0c18.578124 0 33.67496 15.102976 33.67496 33.67496L992.794277 747.187487 992.794277 747.187487 992.794277 747.187487zM479.08331 292.458865c0-8.579399-6.950296-15.534811-15.534811-15.534811-52.575426 0-97.112782-32.478715-118.622678-48.124044-4.888334-3.580548-8.801457-6.40692-11.517311-7.925507-7.382131-4.344958-16.83748-1.956561-21.287839 5.431709-4.344958 7.382131-1.956561 16.83748 5.431709 21.287839 2.061962 1.302669 5.104251 3.475148 9.017374 6.412037 24.115234 17.596773 74.189699 54.094012 136.874367 54.094012C472.134037 307.993676 479.08331 301.038264 479.08331 292.458865L479.08331 292.458865 479.08331 292.458865zM701.44877 220.87348c-2.605338 1.629103-6.517437 4.344958-11.511171 7.925507-21.404496 15.646352-65.942875 48.124044-118.628818 48.124044-8.579399 0-15.529695 6.955412-15.529695 15.534811s6.950296 15.534811 15.529695 15.534811c62.683644 0 112.759133-36.502355 136.874367-54.099129 3.913123-2.826372 6.955412-5.104251 9.127891-6.40692 7.388271-4.344958 9.776667-13.905708 5.431709-21.293979C718.28625 218.806401 708.7255 216.418005 701.44877 220.87348L701.44877 220.87348 701.44877 220.87348zM622.692055 642.464377 518.30152 595.536578c-4.239558-1.956561-9.233292-1.846044-13.362332 0.327458l-92.335988 46.816259c-7.714705 3.913123-10.758018 13.256932-6.844895 20.86112 3.801583 7.604188 13.146415 10.641361 20.856004 6.839779l85.712127-43.451628 97.656157 43.779086c2.061962 0.981351 4.234441 1.413186 6.40692 1.413186 5.869684 0 11.627828-3.369747 14.121626-9.122775C633.992425 655.172817 630.512161 645.939525 622.692055 642.464377L622.692055 642.464377 622.692055 642.464377zM622.692055 642.464377" p-id="2378" fill="#707070"></path></svg>