<?xml version="1.0" encoding="utf-8"?>
<!-- Generator: Adobe Illustrator 16.0.0, SVG Export Plug-In . SVG Version: 6.00 Build 0)  -->
<!DOCTYPE svg PUBLIC "-//W3C//DTD SVG 1.1//EN" "http://www.w3.org/Graphics/SVG/1.1/DTD/svg11.dtd">
<svg version="1.1" id="图层_1" xmlns="http://www.w3.org/2000/svg" xmlns:xlink="http://www.w3.org/1999/xlink" x="0px" y="0px"
	 width="566.93px" height="566.929px" viewBox="0 0 566.93 566.929" enable-background="new 0 0 566.93 566.929"
	 xml:space="preserve">
<path fill-rule="evenodd" clip-rule="evenodd" fill="#601986" d="M208.311,2.717h153.151c111.602,0,202.915,91.311,202.915,202.915
	v153.16c0,111.603-91.313,202.917-202.915,202.917H208.311c-111.604,0-202.913-91.314-202.913-202.917v-153.16
	C5.397,94.028,96.707,2.717,208.311,2.717z"/>
<linearGradient id="SVGID_1_" gradientUnits="userSpaceOnUse" x1="495.0898" y1="113.1274" x2="118.4383" y2="357.6549">
	<stop  offset="0" style="stop-color:#381A80"/>
	<stop  offset="1" style="stop-color:#601986"/>
</linearGradient>
<path fill="url(#SVGID_1_)" d="M563.454,186.621C553.785,83.849,466.658,2.717,361.462,2.717H293.72L129.015,168.149l10.644,243.343
	l86.523,36.664l115.559,5.672l102.651-76.086L563.454,186.621z"/>
<g id="Page-1-Copy-5_1_" transform="translate(521.000000, 19.000000)">
	<path id="Fill-1_4_" fill="#FFFFFF" d="M-101.147,201.201H-371.08v-16.931c0-15.891,8.784-29.749,21.684-36.913v10.955
		c0,8.364,6.71,15.136,14.998,15.136c8.29,0,15.004-6.772,15.004-15.136v-16.146h164.94v16.146c0,8.364,6.719,15.136,15,15.136
		c8.278,0,14.997-6.772,14.997-15.136v-11.763c13.771,6.878,23.31,21.184,23.31,37.722V201.201z M-165.462,404.549v-28.125
		c0-19.481,15.694-35.319,34.98-35.319h29.305c-5.134,13.981-49.641,59.145-62.596,63.444H-165.462z M-124.457,106.731
		c0-8.357-6.719-15.135-14.997-15.135c-8.281,0-15,6.778-15,15.135v5.162h-164.94v-5.162c0-8.357-6.714-15.135-15.004-15.135
		c-8.288,0-14.998,6.778-14.998,15.135v8.09c-29.809,8.78-51.664,36.565-51.664,69.458v178.15c0,39.917,32.151,72.399,71.702,72.399
		h79.493c8.276,0,14.993-6.777,14.993-15.135c0-8.367-6.717-15.137-14.993-15.137h-79.493c-22.994,0-41.722-18.904-41.722-42.128
		V231.474h269.933v79.351h-29.334c-35.824,0-64.969,29.435-64.969,65.6v41.55c0,3.612,1.296,6.87,3.385,9.474
		c2.623,4.4,7.352,7.38,12.806,7.38h16.395c12.247,0,30.827-12.661,55.245-37.644c24.189-24.751,36.453-43.237,36.453-54.938
		V184.279c0-33.478-22.663-61.632-53.29-69.875V106.731z M-171.338,270.954c-0.399,0.16-0.819,0.238-1.215,0.238
		c-1.542,0-2.722-1.087-3.209-2.163c-0.353-0.755-0.567-1.904,0.411-3.052c1.238-1.462,2.987-2.773,4.922-3.767
		c1.848-0.677,3.576-1.008,5.112-1.008c0.729,0,1.402,0.069,2.05,0.207c1.863,0.401,2.198,2.036,2.26,2.712
		c0.092,1.234-0.4,2.913-2.137,3.598L-171.338,270.954z M-157.079,281.554c3.086-1.456,6-2.844,9.281-4.146
		c3.3-1.309,5.854-3.981,7.027-7.34c1.16-3.328,0.832-6.986-0.895-10.044l-0.661-1.178c-3.714-6.618-8.321-14.845-20.2-14.845
		c-4.035,0-8.524,0.946-13.733,2.896c-17.74,6.67-23.577,21.731-16.37,42.623c6.008,13.812,15.114,20.813,27.099,20.813
		c4.067,0,8.498-0.824,13.252-2.481c11.167-4.189,17.8-10.968,19.671-20.136c0.494-2.425-0.123-4.921-1.687-6.863
		c-1.608-1.995-3.981-3.142-6.516-3.142c-0.322,0-0.64,0.022-0.966,0.061l-1.369,0.155c-3.695,0.438-6.516,3.396-7.041,7.364
		c-0.523,3.974-3.096,6.74-7.793,8.434c-1.744,0.571-3.396,0.87-4.916,0.87c-2.403,0-4.512-0.715-6.477-2.181
		c-1.342-0.994-1.313-2.44-1.234-3.011c0.178-1.277,0.959-2.311,2.119-2.765C-164.052,284.879-160.509,283.186-157.079,281.554z
		 M-190.149,312.173l-24.042-61.963c-1.264-3.251-4.313-5.34-7.758-5.34c-1.045,0-2.062,0.185-3.042,0.58l-0.655,0.262
		c-2.079,0.815-3.696,2.41-4.6,4.458c-0.887,2.058-0.93,4.346-0.113,6.432l24.05,61.972c1.264,3.236,4.313,5.331,7.758,5.331
		c1.039,0,2.053-0.185,3.04-0.578l0.647-0.261c2.08-0.818,3.706-2.396,4.591-4.455
		C-189.378,316.548-189.329,314.261-190.149,312.173z M-251.986,329.273c-1.746,0-2.313-0.669-2.821-2.149
		c-0.617-1.217-0.479-2.049-0.307-2.579c0.436-1.349,2.061-3.505,7.392-6.171c4.499-2.335,7.859-4.583,10.123-6.777l0.223,0.545
		c1.232,4.292,1.593,10.607-9.298,15.845C-248.833,328.842-250.616,329.273-251.986,329.273z M-226.048,293.317
		c-4.141-11.201-11.045-16.887-20.488-16.887c-3.813,0-8.063,0.972-12.527,2.829c-12.198,4.359-19.103,11.353-20.525,20.782
		c-0.361,2.388,0.34,4.831,1.916,6.688c1.604,1.879,3.912,2.958,6.33,2.958c0.298,0,1.441-0.102,1.441-0.102
		c3.859-0.385,6.975-3.436,7.389-7.233c0.402-3.558,3.237-6.171,8.955-8.081c2.138-1,3.985-1.509,5.482-1.509
		c1.433,0,2.494,0.463,3.375,1.447c0.642,0.725,0.691,1.564,0.629,2.141c-0.132,1.018-0.707,1.966-1.555,2.551
		c-2.375,1.632-5.957,3.681-10.649,6.093c-17.671,9.212-17.815,20.976-14.758,29.379c3.282,7.395,9.014,11.309,16.578,11.309
		c3.45,0,7.38-0.817,11.71-2.427c7.362-2.919,12.539-7.071,15.461-12.377c1.449,1.422,3.387,2.203,5.515,2.203
		c1.085,0,2.146-0.201,3.164-0.602c2.427-0.971,4.238-2.964,4.956-5.476c0.713-2.511,0.238-5.161-1.305-7.271
		c-1.184-1.626-2.246-3.662-3.172-6.01L-226.048,293.317z M-315.248,352.822c-4.065,0-7.38-1.602-10.105-4.875
		c-1.476-1.779-3.715-2.804-6.103-2.804c-1.916,0-3.803,0.648-5.313,1.848l-0.877,0.685c-1.852,1.44-3.026,3.621-3.237,5.979
		c-0.199,2.311,0.514,4.515,2.047,6.216c5.906,6.603,13.183,9.944,21.633,9.944c5.578,0,11.745-1.484,18.318-4.375
		c19.289-8.225,26.504-20.151,21.448-35.472c-3.517-10.193-12.297-15.376-26.147-15.376c-4.376,0-9.367,0.54-14.836,1.58
		c-4.098,0.833-7.582,1.256-10.34,1.256c-4.356,0-6.731-0.993-7.177-3.345c-0.74-2.117-2.684-7.71,9.781-12.648
		c2.325-0.984,4.524-1.487,6.534-1.487c3.159,0,5.947,1.21,8.55,3.684c1.67,1.596,3.804,2.472,6.032,2.472
		c1.811,0,3.501-0.583,4.939-1.678l1.494-1.155c1.977-1.518,3.172-3.828,3.263-6.333c0.111-2.534-0.898-4.967-2.757-6.663
		c-5.213-4.736-11.509-7.148-18.685-7.148c-4.786,0-10.044,1.08-15.765,3.242c-18.596,7.944-25.552,19.491-20.696,34.287
		c2.901,9.207,11.005,13.896,24.104,13.896c4.205,0,9.015-0.492,14.295-1.448c4.151-0.771,7.736-1.164,10.675-1.164
		c5.587,0,8.674,1.341,9.338,4.391c1.117,2.874,0.932,5.231-0.56,7.417c-1.672,2.441-4.983,4.659-9.931,6.609
		C-308.992,351.998-312.337,352.822-315.248,352.822z"/>
</g>
<g>
	<linearGradient id="SVGID_2_" gradientUnits="userSpaceOnUse" x1="325.3594" y1="296.1665" x2="388.5586" y2="296.1665">
		<stop  offset="0" style="stop-color:#C9CACA"/>
		<stop  offset="1" style="stop-color:#F7F8F8"/>
	</linearGradient>
	<path fill-rule="evenodd" clip-rule="evenodd" fill="url(#SVGID_2_)" d="M352.513,305.638c4.436-1.758,7.979-3.452,11.408-5.083
		c3.086-1.456,6-2.844,9.281-4.146c3.3-1.309,5.854-3.981,7.027-7.34c1.16-3.328,0.832-6.986-0.895-10.044l-0.661-1.178
		c-3.714-6.618-8.321-14.845-20.2-14.845c-4.035,0-8.524,0.946-13.733,2.896c-17.74,6.67-23.577,21.731-16.37,42.623
		c6.008,13.812,15.114,20.813,27.099,20.813c4.067,0,8.498-0.824,13.252-2.481c11.167-4.189,17.8-10.968,19.671-20.136
		c0.494-2.425-0.123-4.921-1.687-6.863c-1.608-1.995-3.981-3.142-6.516-3.142c-0.322,0-0.64,0.022-0.966,0.061l-1.369,0.155
		c-3.695,0.438-6.516,3.396-7.041,7.364c-0.523,3.974-3.096,6.74-7.793,8.434c-1.744,0.571-3.396,0.87-4.916,0.87
		c-2.403,0-4.512-0.715-6.477-2.181c-1.342-0.994-1.313-2.44-1.234-3.011C350.571,307.125,351.353,306.091,352.513,305.638z
		 M349.662,289.954c-0.399,0.16-0.819,0.238-1.215,0.238c-1.542,0-2.722-1.087-3.209-2.163c-0.353-0.755-0.567-1.904,0.411-3.052
		c1.238-1.462,2.987-2.773,4.922-3.767c1.848-0.677,3.576-1.008,5.112-1.008c0.729,0,1.402,0.069,2.05,0.207
		c1.863,0.401,2.198,2.036,2.26,2.712c0.092,1.234-0.4,2.913-2.137,3.598L349.662,289.954z"/>
	<linearGradient id="SVGID_3_" gradientUnits="userSpaceOnUse" x1="290.0576" y1="303.3877" x2="331.4336" y2="303.3877">
		<stop  offset="0" style="stop-color:#C9CACA"/>
		<stop  offset="1" style="stop-color:#F7F8F8"/>
	</linearGradient>
	<path fill-rule="evenodd" clip-rule="evenodd" fill="url(#SVGID_3_)" d="M299.051,263.87c-1.045,0-2.062,0.185-3.042,0.58
		l-0.655,0.262c-2.079,0.815-3.696,2.41-4.6,4.458c-0.887,2.058-0.93,4.346-0.113,6.432l24.05,61.972
		c1.264,3.236,4.313,5.331,7.758,5.331c1.039,0,2.053-0.185,3.04-0.578l0.647-0.261c2.08-0.818,3.706-2.396,4.591-4.455
		c0.896-2.064,0.944-4.351,0.124-6.439l-24.042-61.963C305.545,265.959,302.495,263.87,299.051,263.87z"/>
	<linearGradient id="SVGID_4_" gradientUnits="userSpaceOnUse" x1="284.8848" y1="438.6904" x2="286.1279" y2="438.6904">
		<stop  offset="0" style="stop-color:#C9CACA"/>
		<stop  offset="1" style="stop-color:#F7F8F8"/>
	</linearGradient>
	<path fill-rule="evenodd" clip-rule="evenodd" fill="url(#SVGID_4_)" d="M284.885,432.677v12.027
		c0.794-1.843,1.243-3.874,1.243-6.011C286.128,436.551,285.679,434.525,284.885,432.677z"/>
	<linearGradient id="SVGID_5_" gradientUnits="userSpaceOnUse" x1="284.8848" y1="328.6201" x2="307.6748" y2="328.6201">
		<stop  offset="0" style="stop-color:#C9CACA"/>
		<stop  offset="1" style="stop-color:#F7F8F8"/>
	</linearGradient>
	<path fill-rule="evenodd" clip-rule="evenodd" fill="url(#SVGID_5_)" d="M284.885,298.428v60.383
		c3.883-2.476,6.897-5.427,8.831-8.934c1.449,1.422,3.387,2.203,5.515,2.203c1.085,0,2.146-0.201,3.164-0.602
		c2.427-0.971,4.238-2.964,4.956-5.476c0.713-2.511,0.238-5.161-1.305-7.271c-1.184-1.626-2.246-3.662-3.172-6.01l-7.922-20.405
		C292.533,305.772,289.146,301.168,284.885,298.428z"/>
	<linearGradient id="SVGID_6_" gradientUnits="userSpaceOnUse" x1="284.8848" y1="282.2119" x2="449.833" y2="282.2119">
		<stop  offset="0" style="stop-color:#C9CACA"/>
		<stop  offset="1" style="stop-color:#F7F8F8"/>
	</linearGradient>
	<path fill-rule="evenodd" clip-rule="evenodd" fill="url(#SVGID_6_)" d="M396.543,133.404v-7.673
		c0-8.357-6.719-15.135-14.997-15.135c-8.281,0-15,6.778-15,15.135v5.162h-81.661v30.273h81.661v16.146
		c0,8.364,6.719,15.136,15,15.136c8.278,0,14.997-6.772,14.997-15.136v-11.763c13.771,6.878,23.31,21.184,23.31,37.722v16.931
		H284.885v30.273h134.968v79.351h-29.334c-35.824,0-64.969,29.435-64.969,65.6v41.55c0,3.612,1.296,6.87,3.385,9.474
		c2.623,4.4,7.352,7.38,12.806,7.38h16.395c12.247,0,30.827-12.661,55.245-37.644c24.189-24.751,36.453-43.237,36.453-54.938
		V203.279C449.833,169.801,427.17,141.647,396.543,133.404z M357.228,423.549h-1.689v-28.125c0-19.481,15.694-35.319,34.98-35.319
		h29.305C414.689,374.087,370.183,419.25,357.228,423.549z"/>
</g>
</svg>
