<?xml version="1.0" standalone="no"?><!DOCTYPE svg PUBLIC "-//W3C//DTD SVG 1.1//EN" "http://www.w3.org/Graphics/SVG/1.1/DTD/svg11.dtd"><svg t="1490687658198" class="icon" style="" viewBox="0 0 1024 1024" version="1.1" xmlns="http://www.w3.org/2000/svg" p-id="4561" xmlns:xlink="http://www.w3.org/1999/xlink" width="32" height="32"><defs><style type="text/css"></style></defs><path d="M506.704842 924.416c-116.709053 0-233.458526-1.697684-350.113684 0.781474-53.099789 1.131789-78.053053-13.797053-76.395789-72.178526 3.368421-118.864842 2.182737-237.904842 0.417684-356.823579-0.700632-47.023158 14.686316-77.433263 64.768-69.632 66.155789 10.334316 110.470737-18.607158 150.420211-65.967158 25.950316-30.760421 56.912842-57.276632 85.140211-86.164211 26.044632-26.650947 55.538526-48.451368 54.406737-94.585263-0.714105-29.790316 25.653895-51.078737 59.189895-54.191158 32.592842-3.045053 67.004632 9.216 69.322105 39.491368 5.739789 74.954105 64.902737 107.735579 106.442105 154.758737 58.502737 66.236632 117.248 129.212632 220.739368 107.183158 33.603368-7.141053 52.816842 17.367579 52.736 53.530947-0.309895 130.182737-0.538947 260.365474 0.107789 390.534737 0.229053 47.521684-28.995368 53.719579-66.842947 53.517474C753.610105 923.998316 630.164211 924.416 506.704842 924.416zM508.887579 506.529684c-94.127158 0-188.267789 0.768-282.368-0.309895-44.786526-0.525474-65.994105 17.394526-64.862316 63.865263 1.684211 69.429895 1.967158 138.981053-0.107789 208.397474-1.360842 45.056 14.753684 65.792 61.884632 65.495579 190.490947-1.158737 380.981895-1.104842 571.486316 0 42.657684 0.242526 62.517895-17.690947 62.531368-59.351579 0.040421-71.706947-0.282947-143.440842 0.080842-215.147789 0.242526-44.975158-20.789895-64.215579-66.250105-63.447579C697.155368 507.634526 603.014737 506.529684 508.887579 506.529684zM303.912421 420.136421c138.954105 0 258.896842 0 397.271579 0-56.064-52.762947-99.691789-93.871158-143.386947-134.925474-36.715789-34.492632-74.374737-34.600421-110.969263-0.848842C402.620632 325.160421 359.545263 367.171368 303.912421 420.136421z" p-id="4562" fill="#dd6572"></path><path d="M344.387368 635.082105l-46.942316 0c-1.104842-6.090105-3.584-10.159158-7.410526-12.180211-3.287579-2.021053-7.410526-3.381895-12.355368-4.069053-11.52 0.687158-17.030737 4.419368-16.478316 11.169684 0 7.464421 9.606737 14.228211 28.833684 20.318316 38.979368 11.52 58.475789 30.814316 58.475789 57.896421-1.104842 40.623158-24.710737 61.601684-70.831158 62.976-40.636632-2.034526-63.151158-22.352842-67.530105-60.941474l47.764211 0c1.091368 7.464421 3.826526 12.544 8.232421 15.238737 3.287579 2.708211 7.949474 4.069053 13.999158 4.069053 13.716211 0 20.857263-4.392421 21.409684-13.204211 0-6.750316-9.876211-13.190737-29.642105-19.294316-38.440421-11.506526-57.640421-31.811368-57.640421-60.941474 1.091368-37.901474 22.770526-57.882947 65.050947-59.917474C317.749895 576.848842 339.429053 596.493474 344.387368 635.082105z" p-id="4563" fill="#dd6572"></path><path d="M406.164211 768.134737l-48.586105 0 54.352842-186.88 50.243368 0 54.352842 186.88-49.421474 0-5.766737-24.387368-49.408 0L406.164211 768.134737zM453.093053 704.148211l-16.478316-67.031579-15.642947 67.031579L453.093053 704.148211z" p-id="4564" fill="#dd6572"></path><path d="M653.204211 768.134737l-118.595368 0L534.608842 581.254737l50.243368 0 0 143.211789 68.352 0L653.204211 768.134737z" p-id="4565" fill="#dd6572"></path><path d="M801.441684 768.134737l-126.827789 0L674.613895 581.254737l124.348632 0 0 43.668211-74.118737 0 0 26.408421 62.598737 0 0 43.668211-62.598737 0 0 29.466947 76.597895 0L801.441684 768.134737z" p-id="4566" fill="#dd6572"></path></svg>