<?xml version="1.0" standalone="no"?><!DOCTYPE svg PUBLIC "-//W3C//DTD SVG 1.1//EN" "http://www.w3.org/Graphics/SVG/1.1/DTD/svg11.dtd"><svg class="icon" style="" viewBox="0 0 1024 1024" version="1.1" xmlns="http://www.w3.org/2000/svg" p-id="3567" xmlns:xlink="http://www.w3.org/1999/xlink" width="200" height="200"><defs><style type="text/css"><![CDATA[

]]></style></defs><path d="M526.933333 6.4C522.666667 2.133333 518.4 0 512 0s-10.666667 2.133333-14.933333 6.4C420.266667 81.066667 102.4 409.6 102.4 610.133333 102.4 838.4 285.866667 1024 512 1024s409.6-185.6 409.6-413.866667C921.6 409.6 603.733333 81.066667 526.933333 6.4zM512 955.733333c-187.733333 0-341.333333-155.733333-341.333333-345.6C170.666667 490.666667 337.066667 266.666667 512 87.466667c174.933333 179.2 341.333333 403.2 341.333333 522.666667C853.333333 800 699.733333 955.733333 512 955.733333zM770.133333 610.133333 770.133333 610.133333c-12.8 2.133333-21.333333 8.533333-23.466667 17.066667-29.866667 91.733333-104.533333 166.4-202.666667 202.666667-10.666667 4.266667-17.066667 12.8-14.933333 23.466667l0 0c2.133333 14.933333 19.2 25.6 34.133333 19.2 113.066667-42.666667 200.533333-130.133333 234.666667-234.666667C802.133333 622.933333 789.333333 608 770.133333 610.133333z" p-id="3568" fill="#d4237a"></path></svg>