<?xml version="1.0" encoding="utf-8"?>
<!-- Generator: Adobe Illustrator 16.0.0, SVG Export Plug-In . SVG Version: 6.00 Build 0)  -->
<!DOCTYPE svg PUBLIC "-//W3C//DTD SVG 1.1//EN" "http://www.w3.org/Graphics/SVG/1.1/DTD/svg11.dtd">
<svg version="1.1" id="图层_1" xmlns="http://www.w3.org/2000/svg" xmlns:xlink="http://www.w3.org/1999/xlink" x="0px" y="0px"
	 width="566.93px" height="566.929px" viewBox="0 0 566.93 566.929" enable-background="new 0 0 566.93 566.929"
	 xml:space="preserve">
<path fill-rule="evenodd" clip-rule="evenodd" fill="#2EA7E0" d="M207.612,4.437h153.154c111.604,0,202.913,91.311,202.913,202.915
	v153.16c0,111.603-91.31,202.917-202.913,202.917H207.612c-111.604,0-202.916-91.314-202.916-202.917v-153.16
	C4.696,95.748,96.008,4.437,207.612,4.437z"/>
<linearGradient id="SVGID_1_" gradientUnits="userSpaceOnUse" x1="130.332" y1="227.1563" x2="563.0029" y2="227.1563">
	<stop  offset="0" style="stop-color:#2EA7E0"/>
	<stop  offset="1" style="stop-color:#0081CC"/>
</linearGradient>
<path fill-rule="evenodd" clip-rule="evenodd" fill="url(#SVGID_1_)" d="M384.63,425.653l178.373-234.196
	C554.813,87.219,467.021,4.437,360.767,4.437h-43.431L130.332,196.18l3.116,159.906l52.287,58.113l98.451,35.677L384.63,425.653z"/>
<path id="Combined-Shape-Copy-13_1_" fill="#FFFFFF" d="M215.988,238.465h214.074c8.348,0,15.13-6.777,15.13-15.12
	c0-8.352-6.764-15.127-15.13-15.127h-96.691v-30.135h58.684c8.345,0,15.117-6.767,15.117-15.12c0-8.346-6.772-15.123-15.117-15.123
	h-58.684v-21.779c0-8.347-6.762-15.118-15.118-15.118c-8.351,0-15.123,6.771-15.123,15.118v21.779h-55.347
	c-8.356,0-15.12,6.772-15.12,15.123c0,8.347,6.764,15.12,15.12,15.12h55.347v30.135h-87.142v-62.349
	c0-8.349-6.773-15.12-15.139-15.12c-8.345,0-15.114,6.763-15.114,15.12v62.349h-27.475c3.334-5.796,6.924-10.976,10.651-15.466
	c1.973-2.39,3.73-4.274,4.652-5.094c6.226-5.562,6.765-15.119,1.205-21.35c-5.565-6.231-15.127-6.763-21.354-1.21
	c-2.051,1.843-4.794,4.747-7.771,8.332c-5.495,6.618-10.653,14.251-15.312,22.749c-14.694,26.858-22.229,58.248-21.719,93.373
	c0.122,8.345,6.992,15.021,15.345,14.897c8.348-0.124,15.018-6.987,14.896-15.338c-0.261-18.237,1.965-35.144,6.531-50.652h40.35
	v87.843l-45.276,22.553c-7.491,3.722-10.522,12.798-6.795,20.27c3.714,7.477,12.795,10.523,20.275,6.802l31.796-15.847v54.119
	c0,8.353,6.77,15.129,15.114,15.129c8.365,0,15.139-6.776,15.139-15.129v-69.172l20.582-10.259
	c7.478-3.723,10.512-12.794,6.795-20.272c-3.724-7.473-12.796-10.52-20.285-6.796l-7.092,3.543V238.465L215.988,238.465z
	 M392.146,257.041c0.08-8.357-6.617-15.191-14.975-15.273c-8.348-0.087-15.182,6.609-15.266,14.97l-0.153,15.367l-120.662,0.226
	c-8.349,0.016-15.117,6.799-15.099,15.145c0.014,8.356,6.792,15.11,15.144,15.098l120.309-0.219l-1.031,103.118
	c-5.054,3.036-10.464,5.815-16.331,8.369c-26.36,11.454-54.693,15.484-83.964,11.104c-8.269-1.232-15.962,4.456-17.194,12.721
	c-1.233,8.258,4.469,15.952,12.718,17.19c35.033,5.234,68.98,0.428,100.503-13.28c7.432-3.238,14.339-6.818,20.573-10.628
	c3.346-2.041,6.112-3.912,7.912-5.295c3.698-2.829,5.883-7.198,5.932-11.846l1.123-111.518l52.828-0.425
	c0,0,15.438-0.708,15.27-14.389c-0.17-13.672-7.1-15.536-15.27-15.529l-52.521,0.105L392.146,257.041z M319.433,386.035
	c7.173,4.148,16.419,1.681,20.596-5.546c4.182-7.228,1.709-16.479-5.517-20.663l-38.5-20.157
	c-7.164-4.146-16.415-1.672-20.598,5.553c-4.177,7.232-1.708,16.484,5.517,20.662L319.433,386.035z"/>
<g>
	<linearGradient id="SVGID_2_" gradientUnits="userSpaceOnUse" x1="284.1865" y1="174.7041" x2="445.1924" y2="174.7041">
		<stop  offset="0" style="stop-color:#C9CACA"/>
		<stop  offset="1" style="stop-color:#F7F8F8"/>
	</linearGradient>
	<path fill-rule="evenodd" clip-rule="evenodd" fill="url(#SVGID_2_)" d="M284.187,208.218v30.247h145.876
		c8.348,0,15.13-6.777,15.13-15.12c0-8.352-6.764-15.127-15.13-15.127h-96.691v-30.135h58.684c8.345,0,15.117-6.767,15.117-15.12
		c0-8.346-6.772-15.123-15.117-15.123h-58.684v-21.779c0-8.347-6.762-15.118-15.118-15.118c-8.351,0-15.123,6.771-15.123,15.118
		v21.779h-18.943v30.243h18.943v30.135H284.187z"/>
	<linearGradient id="SVGID_3_" gradientUnits="userSpaceOnUse" x1="284.1865" y1="349.3071" x2="459.7832" y2="349.3071">
		<stop  offset="0" style="stop-color:#C9CACA"/>
		<stop  offset="1" style="stop-color:#F7F8F8"/>
	</linearGradient>
	<path fill-rule="evenodd" clip-rule="evenodd" fill="url(#SVGID_3_)" d="M444.513,271.945l-52.521,0.105l0.154-15.01
		c0.08-8.357-6.617-15.191-14.975-15.273c-8.348-0.087-15.182,6.609-15.266,14.97l-0.153,15.367l-77.566,0.147v30.245l77.258-0.143
		l-1.031,103.118c-5.054,3.036-10.464,5.815-16.331,8.369c-19.059,8.282-39.161,12.617-59.896,12.765v30.243
		c24.922-0.136,49.079-5.323,71.958-15.271c7.432-3.238,14.339-6.818,20.573-10.628c3.346-2.041,6.112-3.912,7.912-5.295
		c3.698-2.829,5.883-7.198,5.932-11.846l1.123-111.518l52.828-0.425c0,0,15.438-0.708,15.27-14.389
		C459.612,273.803,452.683,271.938,444.513,271.945z"/>
	<linearGradient id="SVGID_4_" gradientUnits="userSpaceOnUse" x1="284.1865" y1="362.8662" x2="342.0625" y2="362.8662">
		<stop  offset="0" style="stop-color:#C9CACA"/>
		<stop  offset="1" style="stop-color:#F7F8F8"/>
	</linearGradient>
	<path fill-rule="evenodd" clip-rule="evenodd" fill="url(#SVGID_4_)" d="M340.028,380.489c4.182-7.228,1.709-16.479-5.517-20.663
		l-38.5-20.157c-3.709-2.151-7.978-2.485-11.825-1.333v29.25l35.246,18.449C326.605,390.184,335.852,387.716,340.028,380.489z"/>
</g>
</svg>
