<?xml version="1.0" standalone="no"?><!DOCTYPE svg PUBLIC "-//W3C//DTD SVG 1.1//EN" "http://www.w3.org/Graphics/SVG/1.1/DTD/svg11.dtd"><svg t="1490686544032" class="icon" style="" viewBox="0 0 1024 1024" version="1.1" xmlns="http://www.w3.org/2000/svg" p-id="3552" xmlns:xlink="http://www.w3.org/1999/xlink" width="32" height="32"><defs><style type="text/css"></style></defs><path d="M516.897 44.285c-250.863 0-454.228 203.365-454.228 454.228s203.365 454.228 454.228 454.228 454.228-203.365 454.228-454.228S767.76 44.285 516.897 44.285zM441.666 543.94c-10.353 10.354-27.354 22.16-50.968 35.456l0 159.551c0 13.296-6.648 19.943-19.944 19.943-11.841-1.489-17.728-8.864-17.728-22.16L353.026 599.34c-17.728 7.41-42.104 16.274-73.127 26.592-14.785 1.489-24.375-4.432-28.808-17.728-1.489-13.296 4.432-22.16 17.728-26.592 33.967-10.318 62.047-21.397 84.208-33.239L353.027 388.822l-37.672 0c-1.489 25.138-8.137 56.161-19.944 93.071-4.432 11.842-12.568 16.273-24.375 13.296-11.842-4.432-16.274-12.534-13.296-24.376 19.182-50.206 27.319-115.958 24.375-197.222 1.455-11.807 8.864-17.728 22.16-17.728 11.807 0 17.728 6.648 17.728 19.944 0 2.978-0.762 28.081-2.216 75.343l33.24 0 0-93.071c0-11.807 6.648-17.728 19.944-17.728 11.807 1.489 17.728 8.137 17.728 19.944l0 90.855 31.024 0c10.318 0 16.239 5.921 17.728 17.728-1.489 13.295-7.41 19.943-17.728 19.943l-31.024 0 0 139.606c4.432-2.942 13.296-9.591 26.592-19.943 10.318-5.886 19.182-3.67 26.592 6.647C451.257 523.997 450.53 533.623 441.666 543.94zM492.633 597.124c-7.41-8.863-6.648-18.455 2.216-28.808 8.864-7.375 17.728-7.375 26.592 0 17.727 14.785 39.887 39.161 66.479 73.128l2.217 2.216c7.375 11.841 6.648 22.159-2.217 31.023-11.842 7.409-22.16 5.921-31.023-4.432-1.488-2.943-4.432-6.648-8.863-11.08C530.305 637.012 511.815 616.341 492.633 597.124zM765.199 539.509l-53.184 0 0 163.982c-1.49 50.206-50.969 62.774-148.471 37.672-13.297-2.978-18.49-11.08-15.512-24.376 4.432-11.842 13.295-16.239 26.592-13.296 64.99 16.239 96.74 11.807 95.287-13.296L669.911 539.509 472.689 539.509c-11.842 0-18.49-6.647-19.944-19.943 1.454-13.296 8.102-19.944 19.944-19.944l197.223 0L669.912 439.79 439.45 439.79c-14.785 0-22.16-6.648-22.16-19.944s7.375-19.944 22.16-19.944l128.527 0 0-68.695-99.719 0c-11.841 0-18.489-6.648-19.943-19.944 1.454-13.296 8.102-19.944 19.943-19.944l99.719 0 0-31.023c0-13.296 7.375-20.671 22.16-22.16 13.295 1.489 19.943 8.864 19.943 22.16l0 31.023 126.311 0c13.297 0 20.672 6.648 22.16 19.944-1.488 13.296-8.863 19.944-22.16 19.944L610.08 331.207l0 68.695 152.902 0c11.807 0 17.729 6.648 17.729 19.944s-5.922 19.944-17.729 19.944l-50.967 0 0 59.831 53.184 0c11.807 0 17.727 6.648 17.727 19.944C782.926 532.861 777.006 539.509 765.199 539.509z" p-id="3553" fill="#88B04B"></path></svg>