<?xml version="1.0" standalone="no"?><!DOCTYPE svg PUBLIC "-//W3C//DTD SVG 1.1//EN" "http://www.w3.org/Graphics/SVG/1.1/DTD/svg11.dtd"><svg t="1487841310354" class="icon" style="" viewBox="0 0 1024 1024" version="1.1" xmlns="http://www.w3.org/2000/svg" p-id="5804" xmlns:xlink="http://www.w3.org/1999/xlink" width="48" height="48"><defs><style type="text/css"></style></defs><path d="M601.554642 601.278349c11.059893 2.24718 35.545564 41.310871 35.545564 41.310871s7.375991 4.234441 111.473861 42.916439c98.036827 30.92943 125.409245 102.662171 132.528386 150.493549 4.915963 37.116339-7.713682 45.841048-42.451858 45.841048-99.144044 0-330.897316 0-330.897316 0l-7.28901 0c0 0-218.956827 0-315.301106 0-23.940249 0-46.439682-10.082636-42.920532-45.841048 6.950296-47.832402 33.258475-119.565143 127.23073-150.493549 100.076276-38.681998 107.191324-42.916439 107.191324-42.916439s23.388686-39.063691 34.148751-41.310871c10.764158-2.581802 1.609661-17.792225 0-22.030759-1.270946-3.301186-10.082636-1.692548-13.68365-26.39516-13.557784 19.193131-48.088228 16.989953-147.482983 15.592117 89.226161-36.014238 68.466348-83.550904 90.584088-263.317151 20.546965-162.485675 140.832516-164.134221 163.879418-162.780387 24.403806-1.353834 149.517315 0.294712 170.745802 162.780387 23.258727 179.766246 1.227967 227.302913 94.522794 263.317151-103.72027 1.396813-139.517567 3.601015-153.501046-15.592117-4.151553 24.703635-12.924357 23.093974-14.32117 26.39516C599.650269 583.486124 590.20106 598.696548 601.554642 601.278349L601.554642 601.278349z" p-id="5805" fill="#e8989a"></path></svg>