<?xml version="1.0" standalone="no"?><!DOCTYPE svg PUBLIC "-//W3C//DTD SVG 1.1//EN" "http://www.w3.org/Graphics/SVG/1.1/DTD/svg11.dtd"><svg t="1481600850213" class="icon" style="" viewBox="0 0 1362 1024" version="1.1" xmlns="http://www.w3.org/2000/svg" p-id="2629" xmlns:xlink="http://www.w3.org/1999/xlink" width="266.015625" height="200"><defs><style type="text/css"></style></defs><path d="M21.245012 129.980265v830.603455h1314.202397V129.980265H21.245012z m1269.911408 789.069696H65.543969V171.506054h1225.62042v747.543907z" fill="#515151" p-id="2630"></path><path d="M977.358195 60.762646v101.97765h178.574443V60.762646h-178.574443z m147.854443 94.478942h-117.126475v-66.890709h117.126475v66.890709z" fill="#515151" p-id="2631"></path><path d="M1013.815782 15.937743v55.096778h105.667237V15.937743h-105.667237z m80.979673 48.402926h-56.28414V38.569339h56.28414v25.77133zM448.065743 288.951284c-140.299953 0-254.031689 113.731735-254.031689 254.031689 0 140.284016 113.731735 254.02372 254.031689 254.02372 140.291984 0 254.02372-113.731735 254.02372-254.02372 0-140.299953-113.731735-254.031689-254.02372-254.031689z m0 473.446599c-121.190599 0-219.430848-98.240249-219.430848-219.41491 0-121.18263 98.23228-219.422879 219.430848-219.42288 121.166693 0 219.414911 98.240249 219.414911 219.42288 0 121.174661-98.248218 219.414911-219.414911 219.41491z" fill="#515151" p-id="2632"></path><path d="M448.057774 379.605167c-90.231533 0-163.369837 73.146272-163.369836 163.369837 0 90.223564 73.146272 163.369837 163.369836 163.369836 90.223564 0 163.369837-73.146272 163.369837-163.369836 0-90.231533-73.146272-163.369837-163.369837-163.369837z m0 312.42758c-82.334381 0-149.065712-66.7393-149.065712-149.057743 0-82.326412 66.731331-149.065712 149.065712-149.065712 82.310475 0 149.057743 66.7393 149.057744 149.065712 0 82.318444-66.747268 149.057743-149.057744 149.057743z" fill="#515151" p-id="2633"></path><path d="M448.057774 542.975004m-77.337899 0a77.337899 77.337899 0 1 0 154.675798 0 77.337899 77.337899 0 1 0-154.675798 0Z" fill="#515151" p-id="2634"></path><path d="M138.459144 71.04249h400.762521v62.985961H138.459144zM993.933447 213.581696v82.932047h145.431907V213.581696h-145.431907z m136.490833 71.640156h-127.565696v-60.348264h127.565696v60.348264z" fill="#515151" p-id="2635"></path></svg>